<mxfile host="65bd71144e">
    <diagram name="Page-1" id="onrdcSY7h1V2ezngPwtC">
        <mxGraphModel dx="884" dy="471" grid="1" gridSize="10" guides="1" tooltips="1" connect="1" arrows="1" fold="1" page="1" pageScale="1" pageWidth="850" pageHeight="1100" background="none" math="0" shadow="0">
            <root>
                <mxCell id="0"/>
                <mxCell id="1" parent="0"/>
                <mxCell id="IzsZYcXj3AiTTVjj9_hH-1" value="" style="rounded=0;whiteSpace=wrap;html=1;" parent="1" vertex="1">
                    <mxGeometry x="660" y="380" width="120" height="60" as="geometry"/>
                </mxCell>
                <mxCell id="IzsZYcXj3AiTTVjj9_hH-2" value="&lt;div&gt;Dance Model&lt;/div&gt;&lt;div&gt;(Tree)&lt;br&gt;&lt;/div&gt;" style="whiteSpace=wrap;html=1;rounded=1;" parent="1" vertex="1">
                    <mxGeometry x="40" y="40" width="120" height="60" as="geometry"/>
                </mxCell>
                <mxCell id="IzsZYcXj3AiTTVjj9_hH-4" value="&lt;h1&gt;Tasks&lt;/h1&gt;&lt;p&gt;&lt;/p&gt;&lt;ul&gt;&lt;li&gt;Choosing an activity&lt;/li&gt;&lt;ul&gt;&lt;li&gt;Or, user-driven?&lt;/li&gt;&lt;li&gt;Recommendation, and / or...&lt;/li&gt;&lt;li&gt;Synthesis...&lt;/li&gt;&lt;li&gt;Similar to simplypiano&lt;/li&gt;&lt;li&gt;&lt;br&gt;&lt;/li&gt;&lt;/ul&gt;&lt;li&gt;Updating user model&lt;/li&gt;&lt;ul&gt;&lt;li&gt;Assessing memorization&lt;/li&gt;&lt;li&gt;Assessing refinement&lt;/li&gt;&lt;/ul&gt;&lt;/ul&gt;&lt;p&gt;&lt;/p&gt;" style="text;html=1;strokeColor=none;fillColor=none;spacing=5;spacingTop=-20;whiteSpace=wrap;overflow=hidden;rounded=0;" parent="1" vertex="1">
                    <mxGeometry x="610" y="40" width="190" height="270" as="geometry"/>
                </mxCell>
                <mxCell id="IzsZYcXj3AiTTVjj9_hH-5" value="&lt;div&gt;User&amp;nbsp;&lt;/div&gt;&lt;div&gt;Model&lt;br&gt;&lt;/div&gt;" style="whiteSpace=wrap;html=1;rounded=1;" parent="1" vertex="1">
                    <mxGeometry x="40" y="240" width="120" height="60" as="geometry"/>
                </mxCell>
                <mxCell id="IzsZYcXj3AiTTVjj9_hH-7" value="&lt;h1&gt;&lt;font style=&quot;font-size: 14px;&quot;&gt;Activity Recommendation / Synthesis&lt;/font&gt;&lt;/h1&gt;&lt;div&gt;&lt;span style=&quot;font-size: 14px;&quot;&gt;A search problem through the tree.&amp;nbsp;&lt;/span&gt;&lt;/div&gt;&lt;div&gt;&lt;span style=&quot;font-size: 14px;&quot;&gt;&lt;br&gt;&lt;/span&gt;&lt;/div&gt;&lt;div&gt;&lt;span style=&quot;font-size: 14px;&quot;&gt;Guided by:&lt;/span&gt;&lt;/div&gt;&lt;div&gt;&lt;ul&gt;&lt;li&gt;&lt;span style=&quot;font-size: 14px;&quot;&gt;lesson state (what area were we trying to learn)&lt;/span&gt;&lt;/li&gt;&lt;li&gt;&lt;span style=&quot;font-size: 14px;&quot;&gt;user performance (how competent is the user with the different parts of the tree)&lt;/span&gt;&lt;/li&gt;&lt;li&gt;&lt;span style=&quot;font-size: 14px;&quot;&gt;user motivation (how engaged is the user? What are their needs as far as reward vs challenge vs rest?&lt;/span&gt;&lt;/li&gt;&lt;/ul&gt;&lt;div&gt;&lt;br&gt;&lt;/div&gt;&lt;/div&gt;&lt;div&gt;Notes:&lt;br&gt;&lt;ul&gt;&lt;li&gt;Learning occurs in 2 stages:&lt;/li&gt;&lt;ul&gt;&lt;li&gt;Memorization&lt;/li&gt;&lt;li&gt;Refinement&lt;/li&gt;&lt;/ul&gt;&lt;li&gt;Both of these can operate on short, medium, or long sections.&lt;/li&gt;&lt;li&gt;Both can operate on the whole body, or on parts of the body in isolation.&lt;/li&gt;&lt;/ul&gt;&lt;div&gt;&lt;span style=&quot;background-color: rgb(235, 255, 56);&quot;&gt;&lt;font color=&quot;#333333&quot;&gt;What are the types of activities we want to be able to generate?&lt;/font&gt;&lt;/span&gt;&lt;/div&gt;&lt;/div&gt;&lt;p&gt;&lt;/p&gt;" style="text;html=1;strokeColor=none;fillColor=none;spacing=5;spacingTop=-20;whiteSpace=wrap;overflow=hidden;rounded=0;align=left;labelPosition=center;verticalLabelPosition=middle;verticalAlign=top;horizontal=1;" parent="1" vertex="1">
                    <mxGeometry x="200" y="40" width="280" height="440" as="geometry"/>
                </mxCell>
                <mxCell id="IzsZYcXj3AiTTVjj9_hH-8" value="Dance Mastery" style="whiteSpace=wrap;html=1;rounded=1;" parent="1" vertex="1">
                    <mxGeometry x="40" y="300" width="100" height="20" as="geometry"/>
                </mxCell>
                <mxCell id="IzsZYcXj3AiTTVjj9_hH-9" value="Skills Model" style="whiteSpace=wrap;html=1;rounded=1;" parent="1" vertex="1">
                    <mxGeometry x="40" y="320" width="100" height="20" as="geometry"/>
                </mxCell>
                <mxCell id="IzsZYcXj3AiTTVjj9_hH-10" value="&lt;div&gt;Segments&lt;/div&gt;" style="whiteSpace=wrap;html=1;rounded=1;" parent="1" vertex="1">
                    <mxGeometry x="40" y="100" width="100" height="20" as="geometry"/>
                </mxCell>
                <mxCell id="IzsZYcXj3AiTTVjj9_hH-11" value="Complexity" style="whiteSpace=wrap;html=1;rounded=1;" parent="1" vertex="1">
                    <mxGeometry x="60" y="120" width="80" height="20" as="geometry"/>
                </mxCell>
                <mxCell id="IzsZYcXj3AiTTVjj9_hH-12" value="Primitives" style="whiteSpace=wrap;html=1;rounded=1;" parent="1" vertex="1">
                    <mxGeometry x="60" y="140" width="80" height="20" as="geometry"/>
                </mxCell>
                <mxCell id="IzsZYcXj3AiTTVjj9_hH-13" value="Skills" style="whiteSpace=wrap;html=1;rounded=1;" parent="1" vertex="1">
                    <mxGeometry x="60" y="160" width="80" height="20" as="geometry"/>
                </mxCell>
                <mxCell id="IzsZYcXj3AiTTVjj9_hH-14" value="Physical Abilities" style="whiteSpace=wrap;html=1;rounded=1;" parent="1" vertex="1">
                    <mxGeometry x="40" y="340" width="100" height="20" as="geometry"/>
                </mxCell>
                <mxCell id="IzsZYcXj3AiTTVjj9_hH-15" value="" style="shape=image;verticalLabelPosition=bottom;labelBackgroundColor=default;verticalAlign=top;aspect=fixed;imageAspect=0;image=data:image/png,iVBORw0KGgoAAAANSUhEUgAAAhQAAAJFCAYAAACFqG63AAAAAXNSR0IArs4c6QAAAARnQU1BAACxjwv8YQUAAAAJcEhZcwAADsMAAA7DAcdvqGQAAP+lSURBVHhe7J0HWFRHF4a/bfQqCCKKIIKAPWDvGiP23nuJNVGjxmhiiylGY4mJmmh+e0fsLcbe0NjFroCKSlMQhQUWdvf8c3cXWPpSTDSZN8+Gde7cuTNnzpw5M3dmVkQMcDgcDofD4RQDse4vh8PhcDgcTpHhDgWHw+FwOJxiwx0KDofD4XA4xYY7FBwOh8PhcIoNdyg4HA6Hw+EUG+5QcDgcDofDKTb/8W2jqYh7dBvXzp/ELYvO+KSjGyS6K0XnbaT5T6NE/ONbuPbXKVyVtMb47l6Q6q5w/gbkj3F61w4cvfYEr83rYtiX/VDdRHeNw/knKQndVMbj8a1r+OvUVUhaj0d3L25d3lsEh6JQpN2nAxuO0xOl7t/vM4pzNKmylDlUMqr65SVK0wUXi7eR5j9N2jWaUUPGyiQljwmnSaEL5rxt0ujxns+paVkjErGmKvj/Mt85dPNfoVSc95uS0820azOohoylIfWgCae5dXmfKfQrj1d7vsHwoaOx5IJCF2I46udr0K2cDaytLFGm91bE68L1id3WHy421rC2tILvjCtsbJwfidg1uBwsrR3R6qf7urBCIHWGs6NWBOYWlmANo/i8jTT/acR2sC8llEQESxsb/p7sb+L1yWnoPPosfJdcxUtFMp4d/wGTRnQFH8C9Z6geY9MAT1jb18G047lZvfePktRNsZ09tObFEjY23Lq8zxSu9lSPsHH5bkSlPcSWFQdzdQjyQ+zcAx+3s4E8IREvTh7EiUTdBT3s2vZES3M53iQm4vapU3iq0l3IjaTTOHA0CkkmzTGsn4cusBCIS8HWSttRGpuYlEzn/zbS/KcRW8DcVFsmCyur98uhUEbjyplgxKl1/35fUF7Dokm/QjX4Z8zrXgWljEzg3HwK5o6owl83lQDK6Cs4ExyHElOL/PQs7QoO7A/Fm9hr2PvnA6Tqgt9bSlg3xRbm0JoXC1hZcYfifaZQtZd6ZSVWnkliFa9G1J7fEfC8sM3RAh+OGoRqMhHUL45i7/FcPArLjzCgSwVIQEi9ehRHXuT9jIQjATgYJYLnwHHoUrooiiiBqamRptOXSEvKTL+NNP9pjGFkJNKUSXCS3heUwQvwUQU31P9sFwqtqv8wirOrseGGEuUrunMHokRRInjBR6jgVh+f7XpeIg5FgXpm0gZfLBiFbn2nYu4YXxjpgt9XSlw3jY1gJNJYF7xH5oWTC4XoheNxYNkGPGv+BSbWN2W9+XGsWnsX+U0g5Ia0+hAMa2LOfJJo/LHjKBJ04ZmYoNGAHqjMNJWSzuOPI6904dmJw/5N+xFj2hijR9dlqlg0JFLtkkmJpOSWTr6NNP9pxCJBVUQwMjZ+b2YoVDGhuB+dDJG5JSzfl0xrUOHxhct4piIkJSSU3Ciaw1AhJvQ+opNFMLe0LBFdLljPzFBj2DIEbvoGHV3ed5vwNnRTDK15MYKx8XvVUDnZMLj2VI82YtkeMbp+OgVTxraDnUiBq+tX4Xxhl1JIXNFneFvYi9WIORSAP3J5b2Lk2w+9asggojc4feBYrq9W1M8DseFwPBy7fooBFYvaSJkiM89Y8I3ZF01I8Xkbaf7zCGXS//s+QMkpSCH2RcpGQNqg9wQV4uLiQey/hDdvuENRohCSU1LY/wW1KBmteH/1rCi8Dd1k9lJrMP9NJvM/iYEORSour/gN510HYYy/DRw6j0LPChIoQ7fi90OvdXEMx67jx+jO7lfH/oEt+1/kVEqpNzq3qwopu/LqxD4czzGNocL9DWtxIrkKBn/SDra60EyUiDr7GyZ0qYfK5RzgUM4Dvq2HY/7h8LzfXyojcOTH4fiwphucHJxQ8QN/jPzpBJ7nvyo0fwqTpvwB9s0bgbZ+HnB2KA2nijXQov8sBN6V6yJk5XXwZnzVqzF8yjvA3qEcKtVqgd6Tl+H4k+weXmFlIceD/T9iTOcG8KngBEdnD/h1mIS9jwsviILyqAo/hCWzZ2HWzNnYeC13z1T1eD8WzpqF2cuOIiJdUV4HY/NXvdDYpzwc7B1QrlIttOg9GcuOP4EmFXUMjv08FdPXX0ECM/TqJ4cw78upmDplMqasOM9KqI+B8lE9QcDkrmjTrCFGBcSxgETc3TEHg1pUh2sZR5Sv0R5f7AjV3KOOv45NMweiZU13VpeOcKnSDEN/uWDQmiN11EH88Ml4/HQ8hmm/CuEHv8f4Tz7B2NFjseS0/itClu+g3zGlV3PUcHeGg0NZuFVtjK7jf8GJ8GyyTDqJuT3bo2XjHvjplhIpdzfj0w99UN7ZG6P35pwjzAnTiX3zMKKtHzycHVDaqSJqtOiPWYF3s8mSoY7Ermnd0LZ5QwzfEAW1Oh7XN8/EgBY1ULGsA5zc/dB1+l5kVyd15C5M69YWzRsOx4YotUaGm2cOQIsaFVGWtR13v66YvvcxK3VOlFFB+H1KLzSvIcjbAWXdqqJx1/H45US4Vh90qGOO4eep07H+SgLrDtV4cmgevpw6FVMmT8GK8/olMbC8huqZ8ja2zJqEzyZMxI9/ROawd4bmX6A4csoLg+VnsG7mA7Nz+38cg84NfFDByRHOHn7oMCmnPmTy9nVPQ1II9s/7GG009tcejuW9UKfNEMzaeAWx2SpMGXUWv03ognqVy7F2Vw4evq0xfP5hhL/3i2NKAN1uj/yJ20H9y9pQ6+VPSKUJSKNrM2uRTCQim/b/o+fawEKQRldn1NTcb+n/Gz3Lfr8yjJY0N9duRxI70eA9CboLOhRB9LmXjKz9f6UnOZ6dQBcXtaPyMimVrj2Yvl29nbYtn0gtnWUkMvag4bujdWUQSKbAvrYkhoRKO7uQW7OxtHjTHtqzeTGNaVyGpCIjcu2+iu4VaidTEdKM+4Mm1rAisVkl6jBtBQXu20WrZ/cgb3MRScp0plVhWffoKm78SM1sJWTrO4zmb9xFuzfMpxGNnJg8jajxglDKjF0YWTDSHlHg6JpkLTYl14/G06INO2n3liU0rqkTy7cwqDOm9qvjdZHzx6A8Ki7Q1CosL0xW5T8+RHLNnfoo6c73dclIZEK1vwnWbsFV3KAfm9mSxNaXhs3fSLt2b6D5IxqRk0xERo0XUChLWBV9kL4dNpQGt/IgY5ZvSfmmNGDYMBo2dChNXHtLm46GQshH9Yx+bm7EZGBEHy45R+uHVCFrSxeq7d+Z2viW1TxHZN6Ivg5YTJ3drMmxalNq36ULtaldjkyFa1JP+ux0ii6xvFBR1J7p1LtnD/rIx5rpkJhsq7elXr17Uc+eo2hlcHrO5XR9aUdykUnIzm8IzV23m/bv2ULLvuxKPpZikpZtTYsu60kzeTcNLC0m5qjTlD/30VgvY23bkvnS1wXu84ujPybWICuxGVXqMI1WBO6jXatnUw9v1j4lZajzqjA9fRN4SSv9jTVyajL3D/qtZyUyMy1LNVt0pC5t/MjZREQQWVGLJSFZ73u5kvyNWZ6MmtDcP36jnpXMyLRsTWrRkcnQz5lMBBlataAlIVmfJr++lDq6yEhi50dD5q6j3fv30JZlX1JXH0sSS8tS60WXdXqlouiD3zIdGEytPITyM51rOoCGMb0YOnQirb2VLgfDy2uwnilO0jh37Vbyxguyysvw/OsoopzyojDyM0w38ybtUSCNrsnuNXWlj8Yvog07d9OWJeOoqZNUq4/G7Smrefl7dE/5bC9N8LMhsbELtZq4lLbtDqQV09qTO4sv9fmCLujZ6oSLi6hdeRlJS9emwd+upu3bltPEls7MrhmTx/DdFJ2jP/pvYYBDoaTQJc3Jynkw7dGrbGXYT9ScdXgikwb0w13DlFcfZehiam4m3N+I5t/Pen/a5elUw7gMVXJnnSxr+GWH7qNE3TWBN3uHkrOsPA3b/0YXko6KXu4dRm4yMVk1nkvXk3XBjMQzE8lLKiKZ12Q6l2HX0zt/Kbn120qP9NtEQhBNq2VCIpElNVlwJ5vi5kcR0kzeT8PKV6KBAeF6z0mhoM+9SSqcZzHtol4nqKCT49xJKvWiz4P0NF0RQuuH9qb5N9JjFlYWCrr2bX2yFEnJfdjerA0j8TxNrSF0/IY6FIbmUUlhv7RkzwSJnQbR7uzVqbxD39c1IrF9d9qoy5Di5Dhyl0rJ6/MgvfMwFBSyfij1nn9DT07MWG7vQzYsbaOPfs2loRdWPgm0tiOrO8GQOrpS9d6L6FSE7mlpd2hufaFemQFybErT9oYyLdChiqLNPcswfZBRta8MPZdEQecmV9bUffXpV3PcIz/7OVU1ZvnzHkfHXukCNajoyaqOZC8WkckHM+lSuoBSTtAnbhLmUFSgpi0aUfvvjlJY7Eu6H3TVgPNkkmn/sPJUaWAAhevFTQn6nLylIFnVaXQxSwbltLWHpUZO1nbOVKXnQjrxPD0jSgpZ2IR1eiIybv4zhevXiXwr9bBkBl9sTXbOVajnwhOUeVsILWwiyNeYmv8czkqpQ36WPq/KnAOZN43LKghSPVlFHe3FzL58QDMzBCEgp+19bFj+jOijX7M51BoKW16WYr56xki7TjNryVhnZkod1+opeVHyXxQ55UWR5Je/buaJ4hp9W5/phdSdhu3NKvfE81OpBhsQ5HQo/gbdYwOUHxozJ0dsR/7L7unZlDQKW9Od6n96jFliLaqXe2mYm4zEVo1pblaDQRO9mFMk86LJmQbjP0nBDkXKOZrMRjSVxx2hqFdvKCExkRLZJyE+lH5tx7w61nF6TzmvVxEGooqm9V1KkViU3dAm0KGPK2gM4plt/chBzDx/52G0P92jUD2n/7W3IeMPZtH17NqsvE8/NmINSlyG+m+P0eQz4xOziXrYsFGarApNy9DC9M6fjTqXR2VrgCp6vrwVmTFDIa08mbT9opIUcnnWdNlHLlfoOQKFTVPgDQWfv0HZu+rkPYOoNOscjP1XMt87nWTa2d+ONQBb1gBC8m7QhZVF3FbqxUaxIlk9mnsvey8jp01dhRkjQx0KA/MoELeDBjixzo416O6bMkspkHbza/KVScnzszMsRS3JO/uTnZh16v7LKCTfhFmu8zP0hdaVdGPF9H3sEYrJkp6CTk+opDGytWZez1ZeVue/tCAjZuRKD9ydUY78yc9ox9KmbkK7EWZ6so/QGAk7qB/rCCBxoVFHdE9TBNFkzWFrYrLrtDrnjGABvAk+TzdyKicNEvTF2J9WZqm2ZNo1wJ7pv4RcB2ynZ9kyqDg9niqxzkDqOYnO6RuN5F00QJNvVxqw/Vm2cjH5jhfky3Rh0rkMWxO7qRuVYu1DmJnKNonHSKAd/bT5cBl1RE/uBTkUhS1vAXomoLxH39cTHAob6rM9c76hSPkvgpzyomjyK5pDEbe1l8aWyerNpZzmZRN1ZYPTnA7F29e9uIA+mj5G6j2FzucQmIJSFOkVqqT7PzZiDomYyvTfTjH69iIxhjb1EPpCGVVhg7//MgWsoVAjdvfPWP9Agfs/t0IZWytYWljAgn0sbdwx+kA8i6HEgy3/w1EDX6FlIHZAl2FdUFachjubV+NkkjZYHbUDK3a8RsvRI9CgXR90cJJAFfUHdp3SRlDdW4vfjwIfjRmBatn3LMWdxokrCpA6Cht7OGjymfFx6Ift8WqWQAwiIg15wyiGfY3qKCcBlI+u4srLNDxa6g97C/Os6Qqf0q3xc6gh+12yp5n+cs4S1epVh7XmuxLxYX/hwLpF+HrdJTDzA0pORGLGezwj+DWtz+K+wuEJDVCv9xdYsu00QuKzPb+Qskg5dxinYtUQl/NDXdfirkQ3MI8Ctu0xdpAXa4pxOLwhUG/bnRLXtwYi2KgRRo2pj/TdZEZ+TVGfCerV4QloUK83vliyDadD4lGg9LNrehF0RbtrRwznKtVgly09mSyvDXTMzMhkYP0N0lJTc7w/LzSKCzh+/jXU4jKoUqNszmPdTWuguicLVUXiyoUwnVwkLO/sj9gWrQf0gLOBK6fSsaxWD9W1ygllfBj+OrAOi75eh0tyYUCSjMRM5dSglZMELrX8wJpvVoxNtTuyVGlI0wSko8ujxAW1/JxylMvYVLuPS5WWfpcCF46fx2u1GGWq1EDZ7DfAFDWqe7J0VIi8cgFheShIbqIobHmzkKtsWRcv5E9kDJOMXQxFzX9h5ZQXJSM/w0jBucOnEMueVc6vLgpjXt6u7qUg6PBJvGT5sq/fBDVzrKg1grFRen3F4fSJK1CQGlEbe8BB315YOKDfdqEvVCEmIlIX/79J/qZF9RBrlu1HSvPvcfLqddwIvombN2/h1q2bCL5xDVcvrEQvpomq57uwancuiysLwKLVcPT1lEL1ZDtW7ollISo8WL8SRyx7YGxvZ4jNW6JvZxdIVFH4Y+dJJAmKuXItrpXphbG9yubIvDI6AtFK4VVlPcw4dZPlU8hr1s/tWxexyN+wzc5iS0tYCquOKYkprhgu/Vfhrxxp3sadu7swzt2wVpI1TZbXdFIe4dCCj9HKuwycqnXBtPWX8MbEHFIhrpiNB7SxGGKUH/o7dnzXA9WsXuHqtvmY0LsZKpevDP+pOxGqW0VVOFmo8frpU82hPGJbO9gVosHnjmF51MKcjxEj0dgcSDy5Hpse6iyXIgibAu7BrtMYDKqUmSFx+aH4fcd36FHNCq+ubsP8Cb3RrHJ5VPafip1ZE2Yy1mqkSCrTk5+WwuuKsLVNt3unqOhVd5GRRyAilslIZAFrjSJlQ+KA0qWElkF49fIla1EMlm8x+whOfDnnouxDSMGjQwvwcStvlHGqhi7T1uPSGxOYa5UTTLxZ0DyrIKRG2epELGSzQKRG6XfJERERy8ongoV1bifSSuBQuhRLlUni1Uu81OsQtWohYvnOrhXpFK68+emZFlY2ISPC3wxVLmr+CyunvCi6/AqN+jWePhUOERPD1s6OpVwY3qbuyfH8uTZfpUrba8qaJ8poREQrWauSod6MU7iZi724dfsWLi7y193w3yRfGSadXY6VF0zhP3wkmtZiI59qVVG1ahVUqVIV1arXRK26AzC8UzlI1GwkumYrwgurdEa1MXhgbRhTLA7+vglhSefx+6rr8BoyFq0shAgmaNS3KypJVYj6YyeOP92N5VueovrQsWipuZ4VkYmJ7jyKNMjsvFg+hbxm/fh4u6KUgTZVLU9CEusERBIb2NmykYGNC7x9sqfpAy8XG4MbSfY0NWGxx/FVCz90/Po8HIZvwI2IZwg+tgULu3lqD45hhk+qX1NsdNp8agBuhIfiwq7lmD6wAcoqw3B4fl90nn1eszK7cLJIH0UL0ZXZRo5ZIUN/S86APKYjceuPMZ0cIVJcwoZ1VzUr1BMOr0HAE3f0H9sRpbTRdLARVfOpCLgRjtALu7B8+kA0KKtE2OH5zPmcnXUbs1IoC3MCWNmyV3lJ60q6VHKXjjbUQMlpILUutq6zyoD1TGJhbx0Jp8nmnqJQj8LHKLdTggywt1lQx+L4Vy3g1/FrnHcYjg03IvAs+Bi2LOwGNhZgsE40i3IWBBtZCn/YSDKvOZ1c0emdRJJ+l9BJCw4eQf4mMXfZZgoiY4ZLQKlkGs5kKJPlUrlFKW8+epaDjIwWPf/5kkNOeVH05+epm3khZjKTCQkJ5iVf65KefS1vXfekMJKxgQILTZYn5y6DdERMBlqDgTSZHbxysRdVfLzhaqjB+JeSd22ooxC4ZBMeOXTEgPZZTXomJmjcsyNcpYSkM2ux9pYhrxL0kaDygCFoaSU4LyuxaN4v2PyiBUZ/XC3D2BjV6YPuPjKoog5gyZjF2J/WGmOG537Eq8TJDS4WrEiqUAQHF/YdTE6SQh7iOXOSpO61UDPn3tQikTNNOY5NH475F1LQYPZOrJ/UBp7W2mpRK1KQyrQ8z5GPWXnU6Twa36w7jYsru8BBpMD9Pw/jPquGwsrCvJK7ZtpTFRWOp3lufyKkKhSFm4nKJ4+Z2KL92AGoLFXi7uZVOJYYicBVe/Cm4SiMqqtrxTkwQ/k6nTH6m3U4fXElujiIoLj/Jw7rJaxOTYNmEsLIWGMX9Sm8rqihVmkNklqVUwIqpTZMrc5+jd3HwjT35biWN0ql4J0TVKpsXrqZJzyFw5FY+7x3W9i+lw3mtD16xp4nMoOnTyVtB8eeq2J51+ZFCDAc+bHpGD7/AlIazMbO9ZPQxtNaazTUCqRolVPwd7Og0siHNHISnpoFlgFNFtL/ZqCC9jaW1/QOS4902WXKkJXP04VZEDWi7t1GTNbEGMzJfPQMahIxkfmgUoadVyOVOc3CSNPIOLtWFK28+emZlnS5pwn+uo6i5r+wcsqLoj4/H93ME3NUchdez7GBYfjTvLfuUyoUisyMvH3dM4WHR3mNDCLu3MxFBnpInODmYsGer0JocDCK37v8O9HUT24o7/wPSw++hkuX/vgwl9mAdIzrd0O7ClJQWjA2rjqLFF24oQi/7zGsAxudpt3Br9/uhHGPsehVVi9b0hro3a06ZMyAHt1/BaV7jUVPpzyybdoE/k2tIFa/xuFly3E9R2YUeLB/Jy4YdCBADA7sOcMUxwQ1e/dGrYIcfkPILc3UWzh66imUEhfUaeDKlDuT5AQ50oRWwUZAGXZIHYkj6/ciNEuHLIZdZQ/YC2IxNoWJYNUKKQtj1jm3YR2VOu4sjpzXLWhJJyUEIc+EkQUhIV441KYADM2jHsZ1RuLjBqZQP92BlQsXYfkRY3QcPQBZ3ySpEXlkPfZmTRhiu8rw0CYMU72EU5mhF1Ax+eXIcxF0RVgDIcggLTXbqxUWpmCOluBupDInMLtdUii0+RDuy89mZcJGTMnaw5dSU7LdY1QbPTt7su4wFRc2rcXNbNZZcX079txWMpm0Qnd/G11oKlIFkVEay0uBtadHKm4dPYWnSglc6jTI+u47OQFyrXIK6pmFVCYnTd5zyInB5KSRRpoiyyyVJo9CJyH8zfU2nQzZ/VqMULtnZ3iyDiX1wiaszSkIbN9zG0qxHVp190e6JDTpa5JSsXxnl0VRy5uPnmlgZRWyTUoWN702i5H/QskpL4r6/Hx0M0+M2aCiDVwkasSdPYKc5iUEWvOSgPj4dAn+HbpnBL+ObTQD4tTzm7CetZu8MUUT/6awEqvx+vAyLM9pMKB4sB87Depc/sVo12ZmJ4EOjahAEs3PyRa0DSaFjo11JVbfJHboTVuzrYA2hOST48mD+SQiI1+anbGlMBPlvR+ogbGIRMa16ZsC9jsnX5pD9azEBJGMyjYZQz8FHKWzQafpj21LaWqPmuTkOZi2Zyxzl9P23sKKbxGZ+QykVdfjtau+lbH015LOVF4mJpsGX9P5bMdg5E8h01Teo7n1ZCQSmVCtSSd0uwcS6f6ur+hD4TwEJldhR0jGivjEQOprZ06evZfS+WidLJIf0qZ+FUkqMqdG825nrPwunCyU9Gh1Z3IUi8iyzlQ6odvGkPzkT/quXUWyMBb2ikuo4qcnC1w9Xpg8ZqKimM09NCvBJRIJybwm0dkcqpdIgX3tyNyzNy09H61bYZ5MDzf1o4pSEZk3mke39RJO2NydrETCCu7P6bwmrWR68yYz0cLJJ4Z+ay3scZeR72zdmRgZZK4uLz/yz4xtZlqUdPsbP2J2m4xaLqWI9OTyRU4BvQQdklDZYQeypcck9fIQfeJjynTGjKoO20x3dTugFE/20XhfCxJJSpP/0juZeUw5SMOdhZ00ZWjIPsP2mWhR0r259TTnxZjUmpShE4n3d9FXHwp775ntllamyVm2a7zRba/Nvt1ZS/L+oVRGzGyF4xDKkpU3a6mjcE6ArKrezpp0kmn/UGHrrZgch+xj/9KhekmHPvEhU5Y/s6rDaHOmIGjfeF+yEEmotP9SupMluQTa3N2K5U9K3p+f18o2+Q1p1aIo5S1Yz4TzVr7wYb2WyJja/i9OF8goSv6LIqe8KJL88tfNPFE+otWdHUkssqQ6U9PtXDI9+fM7alfRgoxZ+4WkIn16Ml22f5PuqZ7R5t7lmF0SkUXN0RTwMH0XjpJib2ynBUsOZO6KSr5Ec+oJRxmISFa2CY35KYCOng2i039so6VTe1BNJ08avP2ZLvJ/k1wdCtWzNdTdxYZsKo+jYwZojPzQKKpkbUO2NmXI/+cQXWghSAumOX7GZNMhj0OylGG0uJkZ2XZcbYBBVlHk0TnUoZIFU16Ns6r5iCRW5Nl+Bu17nKV10rpO1uTz6Rpa+bEvlTK2oQo+VamSoxlJZA5Ue9gKumzILsksFDZNFUXsGk1VLbUdm015L/J2sSW7Kr1pUeAS6uIk0ewrd/CsQS1mnqHk51tpRC1HzX5qsZkjeVStSu72xpryeff9nW5mqa/CyIKhiqNz8zuQm6mYZDYVyMfblUqZ2lKt4Wto7RhhOxozPO1Xk55JzBVVofKoh/wYja0oGF4zarLgIWvS2VA9p60japEjM6gisRk5elSlqu72ZMwMn5V3X/o9W8LCvvFRnkLHa0SlPWtSNQ93qj/jjJ4RLIR8lLfpu0asTdjYkNf4E9kMaSyt6lSKrG2syaHXZtZl6aOgUxOraO6zqZPLVufcYOVc5m+rSc+++wamUTlRPjtAM9q4kzmTsaauqnmSo1Bv9r40ZMW1rHlI2Eg97K3JxtqOuq4rnEKrInbR6KqWWiNqU568vF3I1q4K9V4USEu6OJGEPd/YwZNqtJhJZwTbrgylhc1tNeV1H3UoR4fzZn03smO2wrpUF1qjd/SBMnQhNbcV5OtOow7luIvWd7PTyKNUlzWU5cQE5TM6MKMNuQtn4siEtlaNPB1NSSyzJ98hK+hajsGAcP7IKPI0ZfGNSpNnzWrk4V6fZpzRPrPQ5RXuKUjPkg/QiIpa3Wnyw92sel3I/BdZTnlRWPkZoJt5oYo7R/M7uJGpmNm5Cj7k7VqKTG1r0fA1a2lMJW27b78607r8XbpH8lu0ZrgflZYJOmFLrj5VyMOZ9WeeHen7EzFMYzJRRR6lOR0qkQUb+KTbCwj2x7M9zdj3OIcT819DJPyPCeUfRo2Y89vxl2UHdKhqpgvTR40XFwJxwbIjOlQxcHmS6hUeBJ3CpYcxSDF2hEftpmjkaZPtHY8CD44dQ7JfW9SwViHu9nEcvvAIyWblUK1RM9Qun1teCqJoaSoir+Do8asITxDDxrU2Wn5YHQ5SFv70PPYduYVE2+po1bYunDVLClSID7uCy7fC8CzqDdQWZVC5bhPUc89jcahBssgkJeIyjp28gQiFJdzrtUJTb1sowm/i7is2iJDZw8unrAGLxAqZRw0KHB3tibaBdbD2zjb0zeMXZFXxYbhy+RbCnkXhjdoCZSrXRZN67rDJJWF1/F0cOXAekTJHVPZrgroVc/lBqELK591Bibj7QTh96SGikySwcamKBo39UN5cd7mkUETiytHjuBqeALGNK2q3/BDVtcqJ8/uO4FaiLaq3aou6WuX8R1DG3UfQ6Ut4GJ2kWTxdtUFj+OUpCDXi7x7BgfORkDlWhl+Tuqio/6teRSivQXqWD4XLf8nz9z0/BRGXj+HkjQgoLN1Rr1VTeNsqEH7zLl6RBDJ7L/iU1bMuf5vuqZEYfgmnzt3G80QJSrnXRvMmPrATXkvnQIVXD4JwirW7mBRjOHrURtNGnrB59w3GW+cdcSg4HIb8GMZWb4ND/odwa1lLFMWd43A4HM4/A/epOO8IajzZuACbn1XDgBFNuTPB4XA47xncoeC8G8hPYeGiY0hrNBhDquY6z8jhcDicdxjuUHDeAVS499vXWBNigY8G94JwzAKHw+Fw3i+4Q8H5x1FHBWDWgjNIsmuDvh0cuFJyOBzOewhflMn5x1FF38fNF0qIJLbw8i6rOxKbw+FwOO8T3KHgcDgcDodTbPjsMofD4XA4nGLDHQoOh8PhcDjF5j1wKJIQffcCDqydj6V/RMKwH6N5z1HG4/H1E9i2ZCEC7+X3gzUFkxR9FxcOrMX8pX8g8j8hvMKgRPzj6zixbQkWBt5j//o3kYq4R9dwbPNiLNn7CIb+LuTb598scw7n/UQZ/xjXT2zDkoWBKFaXI6yheKdJOaT9YSPIqOH8kJy/7/AvJO3aDKohA0Hz42z6P35TWFLo0HBnzQ+3yRrOp5D/gvAKQ9o1mlFDxnRLSh4TThf8o2fvE4pzNKmyVNNuqn556d35jYF/s8w5nPeSNLo2o4bmBwylHhOoOF3Ouz9DIbGHg62QTTEsbWzz+R2IXFA9xqYBnrC2r4Npx9+fn5UV29mjlPAr3CJL2BTrgHgJ7B1sNdNQYksb2PLzHbIitoO9VtBMt7L9dsd7qjsZSJ3h7KgtkbmFJSvhO0J+Mue8N6geb8IAT2vY15mGQjeP971t/esQw86+lMZGiFg/UZwu591vzyIzmJoKf2WwsMzlJ6mU0bhyJhhxuU3np13Bgf2heBN7DXv/fIBsv/j/ziK2MIeppnYtYGVVnCoSwUwrPMhYp2Lgz6r9dxBbwFwraFhYWWVtDO+p7mQgLgVbK23ZjE1MNMbinSA/mXPeLfKxrWlXDmB/6BvEXtuLPx/k0jr+hXb534sYFuamGhshsrBCcbqc96A9G8NIxv6ITFnnmDW7yuAF+KiCG+p/tgvPc1Nckzb4YsEodOs7FXPH+MJIF/zOY2wEI5FQvcZgfUGxMNYKD6Zmptx454DplpFI05CETjcL76vuZCBhjriRpmwS6bt0lHk+Mue8MxRkW03afIEFo7qh79S5GOObtXX8a+3yvxhjI2YrtI2yWAPP96CPEUOiyaUUsmx2URUTivvRyRCZW0L/14czMUONYcsQuOkbdHyvznMWQySUR2QEY+PiVZFYKzxIswuPo0GsFTSMjI2zNYb3VXcykUi1+ZZI3q385y1zzrtCgbbVrAaGLQvEpm865jgq/99rl//FiEWatigyMkZxupz3oz0LnpP+Xx2UnIIU4VguKRvRa4P+JbARnKas6X+LQx7C42gQ6QSc/vefQ4WEiMeIStL9s9gwp5SVSVOqf7xsWXl3ZM7Ji+LY1n+vXf4Xo2critMq83YoVE8QMLkr2jRriFEBcSwgEXd3zMGgFtXhWsYR5Wu0xxc7QjXvv9Tx17Fp5kC0rOkOZwdHuFRphqG/XECW5TbqaBxbOgOzZs3EN9tuZdsuloKLa2ZiJrs24/cg9qQCUMfg2M9TMX39FSQwxVU/OYR5X07F1CmTMWXFech10aC8jS2zJuGzCRPxo/6W05Iumw5lVBB+n9ILzWsIcR1Q1q0qGncdj19OhEOhi5MD+QPs/3EMOjfwQQUnRzh7+KHDpL14nOfWHTke7JuHEW394OHsgNJOFVGjRX/MCrybWe5ikHRyLnq2b4nGPX7CLWUK7m7+FB/6lIez92jsTdBF0qBE1NnfMKFLPVQu5wCHch7wbT0c8w+H5/pONClkP+Z93AZ+Hs5wsGcy9qqDNkNmYeOV2GxbgVm6Qb9jSq/mqOHO4jqUhVvVxug6/hecCM8uxSScnNsT7Vs2Ro+fmE6l3MXmTz+ET3lneI/eiyzZFeS2/0eM6dwAPhWc4OjsAb8Ok7A3L0HnpTvqSOya1g1tmzfE8A1RUKvjcX3zTAxoUQMVyzrAyd0PXafnUX+qSJxe9ik61vaEs2NZVKrbBcNGDkEP//rwKWcLO9eeWPUkc4Pn6+DN+KpXY1YeB9g7lEOlWi3Qe/IyHH+SpzbljjICR34cjg9rusHJwQkVP/DHyJ9O4LleHlXhh7Bk9izMmjkbG6/lnr7q8X4snDULs5cdRURuU9k5KKTMGfIH+zBvRFutnpRmea3RAv1nBeJuDuVWI3LXNHRr2xwNh29AlFqN+OubMXNAC9SoWBYOTu7w6zo972clhWD/vI/Rxs+DtVV7OJb3Qp02QzBr4xXE6pdNGYWzv01Al3qVUY616XIevmg9fD4Ohxv65l+FJwGT0bVNMzQcFYA4VRROLhyC5j7lUKasO3zbjsGyczE5tvUa2g4Nl5eOgsptoG1V3t6CWZM+w4SJP+KP9P3oxbXLOgpjR9WRuzCtW1s0bzgcG6LUGnu9eeYAtKhREWWZrrv7dcX0vY9z3Z6sjDqL3yZ0Qb3K5ZidKQcP39YYPv8wslatgTbmdTA2f9ULjVkdOdgzPalUCy16T8ay40/ytv3Z+Lt0X/5gP34c0xkNfCrAydEZHn4dMCkPGRUa3W6PnKie0c/NjZhaGNGHS87R+iFVyNrShWr7d6Y2vmXJWAQSmTeirwMWU2c3a3Ks2pTad+lCbWqXI1PhmtSTPjudoktMIJp+/UhIT0qen53Jtl0smXYNsCM2piLrnttIrgvVoAyjBY1lBLETDTuQrAlSRR+kb4cNpcGtPDT5kJRvSgOGDaNhQ4fSxLW3MrfIKU7SOHft1rnGC8Iyt5yWeNmI5NeXUkcXGUns/GjI3HW0e/8e2rLsS+rqY0liaVlqvehy1nIx0h4F0uia1iQ2daWPxi+iDTt305Yl46ipk5SYl0gwbk+r43WRNcTRHxNrkJXYjCp1mEYrAvfRrtWzqYe3OYkkZajzKr0yalBS2ILGJIOYnIYdYFIumOTdA6m0GCT1nkJ/7htLXsYiJieQzPdrupkh2AS6uKgdlZdJqXTtwfTt6u20bflEauksI5GxBw3fHU0qXUwhD8/2TiA/GzEZu7SiiUu30e7AFTStvTuZiKTk88UFPV2Q0/WlHclFJiE7vyE0d91u2r9nCy37siv5WIpJWrY1LbqsL8Vk2j2wNNMbKXlP+ZP2jfXS1J1Q375f38zUg7RHFDi6JlmLTcn1o/G0aMNO2r1lCY1r6kRSTXxjap9V0HnrDr2klf7GGt1pMvcP+q1nJTIzLUs1W3SkLm38yNmEyUtkRS2WZNvinHaPVnV1IZnMhfynrqQdTD/Wf9ebqliISVb2I5q2YjUt/2k1nYzUSk5x40dqZishW99hNH/jLtq9YT6NaOREMpERy09otnrOjWQK7GvLZCOh0s4u5NZsLC3etIf2bF5MYxqXYeU2Itfuq+heuvAVF2hqFVZ/LH75jw/l0FWhHu98X5eMRCZU+5vggrehFkHmcX9MpBpWYjKr1IHJI5D27VpNs3t4k7lIQmU6r6KwbIV+udKfjJluGjWZS3/81pMqmZlS2ZotqGOXNuTnbMLKIiKrFktybJdWPttLE/xsSGzsQq0mLqVtuwNpxbT25M7qTurzBV1Il0nCRVrUrjzJpKWp9uBvafX2bbR8YktylonI2GM47Y7O1PK8UVH4kubERupk1PIbWjPqA/L2n0i/bN1FW34aQw1LS5itqU6f/Rmr12YMa4eFlZch5TbUtipOjiN3KatHWWNaoHtQse0yo9B29OVK8jdm+TBqQnP/+I16VjIj07I1qUVHZq/9nJmNYfbaqgUtyaYECRcXUbvyMpKWrk2Dv11N27ctp4ktnVn7MiaP4bsps2oNsDGKG/RjM1uS2PrSsPkbadfuDTR/RCNyYnpi1HgBhWarh9z4e3Q/jR4Fjqaa1mIydf2Ixi/aQDt3b6El45qSk1SrX8btV1M2S1go8jmHIoHWdhQyJiZbR1eq3nsRnYrQqUTaHZpbn10TMUV0bErT9oZmdlaqKNrcswyrABlV+0p//7uctnS3ZOllM/YaFHRynDtJmTErN+IPytJV5+JQpCPf3odsWOUaffSrngLokXadZtZi94pMqePaN7pAgRIum/wsfV7VmEQybxp37JUuUIvqySrqaC8mkckHNPOSnhuluEbf1mfykLrTsL36HTBR4vmpVIMpY06HIpn2DytPlQYGULieoqQEfU7erHHLqk6ji1kEW3iHIuXEJ+QmYYasQlNq0ag9fXc0jGJf3qegq090DV9FL/cOIzeZmKwaz6XreokmnplIXkwxZV6T6ZyuEhU3fqDGTIHFdv60LKP3YqSF0Zru9enTY5m1LT/7OVVlhlPmPY6yilFFT1Z1JHuxiEw+mEmZYkyhE5+4kYQ19gpNW1Cj9t/R0bBYenk/iK4+SReQgq59W58smfPiPmxvVj1JPE9TawidaC4ORZ66I6etPQQ9FpO1nTNV6bmQTjxPz5CSQhY2YUaMdTjNf6bwjGepKGZjN7ITM/0eulevwSro6oyazIjJqMaMy3ptQtcepF70eZC+zoTQ+qG9af6NrK0nd9IdCim59dtKj/RvSQiiabUEHbekJgvu6OqV6covLZmcQGKnQbRbv8gCyjv0fV0jEtt3p40FdqRFk3ny/mFUvtJACsiq3PS5N+t8ZFVpWlblJvnWHtr8WtuRc5WetPDEc/ZkLcqQhdSEdZQi4+b0c2ZFsKzdoB8aMydebEf+y+5lxGcVTmFrulP9T49p7Y/qJe0d5kYysRU1nntdr+0k0pmJXswpkpHX5HO6sPxJWNtR07GJrZyp2edH9OTB9CKwPzlLhDYzkc7otaWC22Eh5WVouXUUZFvTrs+kWjLWWZt2pCzNg1Fku1wUOyrfSj0sma0UW5OdcxXqufAEZTbHEFrYRNBzY2r+c3iGjVW93EvD3GSsPhrT3KwGjCZ6scGczIsmpxswA2yM1rmSktfnQXpyVVDI+qHUe/6NbH1d7vwduq+49i3VZ7KSug+jvVkbJZ2fWoPZobfqUKQbTuaZjT1CMVkUQ0GnJ1RiDoCMas28nk1gKnr+SwvmkYup9MDdeg1RmIWw13TGOQ+oUtBfU6uw9HI57KY4DoXyHn1fT1BcG+qzXd+vLdmyxW7qRqVYZyd4o9k9ScF52dFPKLeEXEYdybgnbmsvNgJhhqTeXLqX/R75JupqnptDQfQm+DzdyF7jyXtoUGnW2Iz9aeVLXZiGwjsUiqDJVFkYeTDD02n1s4xGmIHyPv3YiDVScRnqvz2GEhMTMz8xm6iHjZg1gCq6BhBHAX0cNJ2a95TzWetVQJFCiowHxNKmbqVIrBmBZ59pYSTsoH7MoEDiQqOOpJdEQUGTK7O6Yg3LrhOtfpaLEsRtpV6CbGT1aG5OQdOmrua5OxR56k66HkvIdcB2epYtScXp8VSJyU/qOYnOZRQ4hQ59LBwwZkxtfo/ThWlJOTicdShMh1vp63Ay7exvx4y/LTP+IQYZpJykOxRG9OHyqGz1yPR4eSsyY21HWnkyZfgscTtogJNEU/fdN2VRJEq7+TX5yrSziwXqUVFl/iaYzudUbtoziI0QWafgn1W5KXnXAOZkspGw6wDanrMiaHwlZoylnjQpsyIoLqAPOehG/udzKiSl6BRSef9HasSMsrhMf9oeo6fj7BOzqQfZsDRkVaZp4haEfEt3jfGXVfmCLuj32gLJ+2iok6DXzjT8UKZkC2yHAoWQl6HlTqcg26q89z3VExwKmz6UpXkwimqXi2JHmRLQAI1dcKUB25/l6FdOjxdsOdPbSed09kdJ939sxBw8MZXpv51i9Oo1MTGGNvWwYc+QUZVpFzWxhTQKsjHJO/uzwQIbnPovo5CiNda/QffjaGsvIS0Z1Zt7L4d9lW/qSuaszorrUOS7KFO7OlwM5yrVYJctpizPXQOsOmQysLwhLTU1y/sxqWbVuUiTbtaFH+wedk0Ik7B7i0SuJWGqpHmkMUyyLV0tubIpcOH4ebxWi1GmSg2UzbFo2RQ1qntCAhUir1xAmOZlaQrOHT6FWHZPOb+6cM1xT95YVquH6tba78r4MPx1YB0Wfb0Ol+SCc5iMxMTsbyQLCZOLRjK2rTGgh3NOscadxokrCpA6Cht7OMDCwiLz49AP2+PZ81UxiIhUsmIG4fDJl1CL7VG/Sc2cC7SMjGGU/gDFBRw//5rFLYMqNcrmPMDMtAaqe7JQVSSuXAjLeOecXo+2rQegh3NOJUg5dxinYtUQl/ND3cIIukDdkcCllh+csidpbKr9+XVVGtI0AQIEtVrN/s+CVdneVLKHiJlGiQW5ZzzGCH5N68Mar3B4QgPU6/0Flmw7jZD4kjpAWwz7GtVRjuVd+egqrrzU6Yxte4wd5MXMaRwObwjU2/KnxPWtgQg2aoRRY+oXuK2syDK3rIZ6mcqNsL8OYN2ir7HuklwY+CA5MTHr+3adrkpcasEvZ0XAVFsRSMuoiBQEHT6Jl6zd2ddvgpo5FRLGOoWMO30CVxSs3qI2ooeDno6zj0O/7dCqeYQmboFIpZp8ipwqwDW7eZN5wVOQEWszt2+E6wIZBbVDAYPlZXi5cyW3S+llMjbJf1dArtdya1tFsaMCTE5CXIkLavk5afKkj7FWCVhzTFeCOJw+cQUKUiNqYw846NWrhYUD+m2PZzJTISYiUhdfqAoh1bxtjJFfU9Rn1fDq8AQ0qNcbXyzZhtMh8Rk2yiDetu6nnMPhU7HMvpaDX13XHHIqKfJRBWHrYvFWfGosqB4Zq7pzSbRIK7+ZUgiIpDLk7oaIIdaUkP3NIsGSLJscERGxrOpEsLDO7URCCRxKl9IIml69xEtBy9Sv8fRpHFMQpqR2doWs3BQ8OrQAH7fyRhmnaugybT0uvTGBuVR4shhMFMVC2NLHRAOxQzk457JEWxkdgWil8AqxHmacuolbt27l+Ny+dRGL/Fm3I3+O58LJNuJSKM3c6XyRRyAilglHZAFrNpzLgcQBpUtppIhXL1/qGqtQj5ruGA7lnHNZUa7G66dPNYfriG3tYFcoQeelOyxEEFBBSI30dJI5CM0bwFachptnTjOTlo4KYZeuI1pthGoNBQciHTHKD/0dO77rgWpWr3B123xM6N0MlctXhv/UnQgt5JrM3BBbWkIjZkpiTmi6MrN8jhiJxuZA4sn12PRQZxIVQdgUcA92ncZgUKWChFgcmTPtfnQICz5uBe8yTqjWZRrWX3oDE3Oppl2Jsyu3pu4LQqo9x0aDHM+fa9tdqdL27P95oUR0RDS0aj4Dp27m1PFbt27j1sVFuvj5I7SpPM2ayBwWZtqLSXK55q9AQe0wHcPkZWi59SjItjLZa5uHOKf9KpJdLoId1aCVU0FI05VAGY2IaCWzIjLUm3EKN3PUK/vcvoWLi/y18Vn6+dsYFqP8UPy+4zv0qGaFV1e3Yf6E3mhWuTwq+0/FzkI01rep++rXT/FU2yhhV9hGWQgM0q3cSDdBGf1qFrShuV8riOx3CSNv3bfsl5RKNgpkjoFMlmtFZ6EQmUmPmvst2tDMa0LjEJwTgvxNYu73CDUvfIx0h4aIWUOTadUhTZk5js1JZtk1qGNx/KsW8Ov4Nc47DMeGGxF4FnwMWxZ2g6dmUoWlK81apYJ3q/ui/VsIclNYkQkbkWi+pUFm54UqVark+Ph4u6KUUCFCpyq0dkqGPLmA5wsGSrC6JMebjA4uK0J+hI9Rrgci5Zbb9BklRpqgK3mTIafcKJToWJ0Jf9gIInOeixmjXvOxpF8lvA74BJ1Hz8OqzZuxau4w9P/xMqRVRuGbMT568RniMmg+NQA3wkNxYddyTB/YAGWVYTg8vy86zz5v8MrxvFDLk5DEMiqS2MBO70x2iVt/jOnkCJHiEjasu6pZ+Z1weA0Cnrij/9iOKKWNlg9Flbkasce/Qgu/jvj6vAOGb7iBiGfBOLZlIbpplZulKy2UwdImz0ZyGYIVDKxgiNmIT56cT7WKYGKi1XKkyWDnlVPHq1TxgbdrwdIoEKbviUJFsGeWsrPXhmUjN80unLwMLbcehbCtOdIrkl0ugh01BJ2OSdKVQMTuzahaO3jlqFf28fGGq8aAZSf3mhDyXqb5VATcCEfohV1YPn0gGpRVIuzwfPTtPBvnC2ysb1/3xawutF1OGvLvcnT2q4jkk0c11Cpt4mqV1uPUR6XUhglTuVlh9+mmd3NeE0pEmvSyZFr9HNduRmpGncrU7KVVQqXxRlW6v5moWVzNKMLIOI+qFvIi/E0TbJseJVk2M3h6urCqUyPq3m3E5EiOKdajZ1CTCGaePqik0VNzVHIXpvVViAp/mvfRs5QKhSIzQfmx6Rg+/wJSGszGzvWT0MbTWluBagVSUlmuRFKmeJqoGSh1QlNlF14eqNVMztoCshLlROLkBhcL9lRVKIKDC9jga+oBj/Kss1JH4M7NmFzTy8DME57CITfqKNy7nUtc1pk+esZkL2Ly9qmkM1RCPary0DUt5pXcNdOnqqhwPM1b0EhVKLI9My/dEWQpXMhFjwXS5ZZdftIyqN6oJqo3bAj7Wxvxw1czMH/7E7gP+xXHji1Ca83sSy6YlUedzqPxzbrTuLiyCxxECtz/8zDuZ8tTYUkKeYjnTCWk7rVQ01YXqMEW7ccOQGWpEnc3r8KxxEgErtqDNw1HYVRdnSUugCLJXH4M04fPx4WUBpi9cz0mtfGEtVa5oUhJZbFFkGZXblb3mppgOqvOWRG6+kv/K2AKD4/ymrYacedmLm01HQmc3FygVfNgFKTmxSLlNu6EChXhipq+jrpAQX3yb4eFk5eh5c6kQNuanq80Fk8TkEnR7HJR7KgAk5MQl9Tsbw4lYM/RJpRhHyROcHOxYHZThdDg4IKPKBDyWoCNycQM5et0xuhv1uH0xZXo4iCC4v6fOFxQY/07dN+8Ety1jRLheTdK1uUooNflFJo8rJgWYZ2A0PDT2EOyQqyjU7D/C0YhRVMwfRQKrVMg3Jd5TQxra6EiCTERERrnQYM6Bsdn9MPME8KJPmokvHmTNT2hU9VkIxUp2UqaqnM+VMwjzqlKAkw4QtZJyeJmvbfkymaE2j07w5PVd+qFTVh7M1tlKa5j+57bUIrt0Kq7P2w0gcask2gDF4kacWeP4Hy2w4xSQkLwTHgMJSA+Pr1kqbh19BSeKiVwqdMg67qL5ATI04R4SmFwoIdQBm05U1Oyd5h5wOQiJEFpTHa5CdW0CfybWkGsfo3Dy5bjeoouPAMFHuzfiQvCQR1GfujYxhVSVnfnN63H7fzalVFt9OzsCRkr54VNa5FTjNuxhyUgtmuF7v5aKQqkpmpyizRNneXEmDXwNsxRUcedxZGcgkaIVtBIiI/Pdn/eupPKZCTETc2hOwx2k0ZDBPlpArQozs1Gr0mR6L56G3aeuYmHj0Jx/+oJBCz4GPUcsjVDdSSOrN+L0CzyEsOusgc0b46MTWGSu6U2DNbmDuw5w4ypCWr27o1aulFMOsZ1RuLjBqZQP92BlQsXYfkRY3QcPQDu+jqXD0WReeqtozj1VAmJSx00yKrcSJCnaeIpsyq3RlcFP1r4m7MmmPy1FaGtRw1G8OvYBq5S1h7Ob8L6fBTStIk/mlqJoX59GMuWX0dONX+A/Tsv6P5RdF4dDsSRlwSjar3Rr57eqLiAdlg4eRle7nQKtK1MqNrmweogm2Epml0uih0VYM/XKgGzddoQfTLsdYYSmKKJf1NYidV4fXgZluc0YKxq92OnxoBpyd/GqBF5ZD32Zm2szE5Vhoe2scK0gMb6t+i+cR10bsMcNnUczh45j6ytMgUhIc80dosS4pHR5RSBfBwKORKStJ5ZUkJCts6IGYMEOft/btNThMRE7TV1YgISMm40QrXG9ZhBVCJ06xx8H3gSp/b/D9M6NkTPvR/g+8l+EBY1x0dHMzHqoU7UTQkmIzEhq5IZWZhD2J6deu8GbmoEl8LypSdeVULGvW/e6Iu9ZMtmXGcKFo70hknKJfzQfwy23NO9C00Nx/4vRmFJsBr2H83GN70cMgRu1uxzzOjgCHq8AV9+cxIvNGmlIPzI9+je5UfcEP7NDH9kVLrrJYGNrTVEIhUeH9uBIO0NkD/Yjem95+CYIBrVE4Q81JeRmuU3SVOGZJbfbE00VygxUTMVTklM7lkLr0XsiF5fTUQdKxESgmajXeuxWLL9GM6dP4PDAcswrWc9NJu0D8/kQv6M0fjzOeheToKUiz9g4LjtCEnXZFUcggMX4ueDz3XyZ07WlIUY6W2ClEs/oP+YLcgU4358MWoJgtX2+Gj2N+iV0QEL9SGUj5DE8p1bdpmg8fmMDnCkx9jw5Tc4qZNbSvgRfN+9C37UChoxkVGZTq5AnrqTBrlca4Rye6aahQlFz6r7wBs26nqSEoFLB/7EuUuXcfky+1y5gmvXb+Le4xdI0YuL5CCsndgXbQcsw4UYnSFhHXHgz9vxQGWOup07GNC5q9noRZBMGoKWTsHaG6+1cmZyv7h0JKbtiYNV/Wn4eUL1rK9aBCRu6D+yHewRiz3fLMaNCv0wpmMhpveLIHOJjS2sRSKoHh/DjqAX2rzKH2D39N6Yo1VuPAl5mEWH0+RybUefm64KdkNbEaw9a58vYNz4c8zpXg6SlIv4YeA4bM9USMQFB2LhzwchLEYVO/bCVxPrwEqUgKDZ7dB67BJsP3YO588cRsCyaehZrxkm7Xumu9cwlFc3YfGhx7oOQI1X11dizJQARJtWx6cLPoOvXkUU1A4LKy9Dy51OQbZVlaDNH5LfIEvzYBTVLhfFjjIlgLY56q8FSkewf3L2f/Y3w86L4djrK0ysYwVRQhBmt2uNsUu249i58zhzOADLpvVEvWaTsO9Z+nqWgmxMMoLWTkTftgOw7EKMbraGddCBP2P7AxXM63ZGhwIa69+j+2Zo9vkMdHAkPN7wJb45qXtOSjiOfN8dXX68ofm3OiYSGV1OUaC8UN6m7xrZkI2NDXmNP5Flj7KwxW9Vp1JkbWNNDr02U4IuVIuCTk2sornPps4suq6/jUZ5n1Z1d9UdDMI+Ihk5NpxIu5+k0atV7TQHdciqfUWX9e9JPkAj3LT5aDb/YZbtLsJ+4lGepiQSGVFpz5pUzcOd6s84k5lX4d6K2nub/HA38963UrZndGBGG3I3F5FIZkMVfKqRp6MpiWX25DtkBV3LmpAGVdw5mt/BjUzFMrKp4EPerqXI1LYWDV+zlsYI235EZtR+deY2Q1XELhpd1ZLEEJHMpjx5ebuQrV0V6r0okJZ0cSKJcP6BgyfVaDGTzmh2CyXTgRFu2vw2m08Ps+8VyoWEjT3I3tqGrO260ro89w+pKPLoHOpQyYLE6XXJPiKJFXm2n0H7HmfdOyW/tYaG+5UmGcufka0r+VTxIGcbW/Ls+D2dyLpnl4nxAM1o407mLK7MpgL5VPMkR1Mxyex9aciKa9nqI4E29rDX1JVd13V5b3dSxdG5+R3ITUhHSNPblUqZ2lKt4Wto7RhhW5mIzNqvpiwbOvPUnVBa2NxWE+4+6lA23SF6s74b2QnyK9WF1uhvpY8/Rz92qUJ2Rkw/dPLK/LCylqpMrScHUigTner5VhpRy1FznoXYzJE8qlYld3tjjXy9+/5ON7M/NFfe0LpO1uTz6Rpa+bEvlTIWdLIqVXI0I4nMgWoPW0GX89sfJj9GYytqdbDJgqztziAKK3NVBO0aXZUsxUyPWPsp7+VNLrZ2VKX3Igpc0oWcJMK+egfyrNGCZmqUW0mhC5uTraDb7qPoUM6KoG521mRjXYq6ZKkIhvwWrRnuR6VlLE0jW3L1qUIezjZk69mRvj8Rk7lFUxVJR+d0oEoWYr06E5HEypPaz9hH2dQ8T5ID+5ItK5fYgumFzIhKuVWhqp5OZMHKZObmTzMPZt/uaEA7LLS8GIaWm1GQbU0+MIIqCrK3aUI/3M2a+yLbZYFC2lFl6EJqbiuk5U6jcioBre9mp7EPpbqsIX0tUEUepTkdKpGFmHk+6XUrkpCVZ3uase+x3lbtAmyM6jltHVGLHIVzH8Rm5OhRlaq627M+jqXl3Zd+N6Sx/m26r6K4c/Opg5sgT0G23uRaypRsaw2nNWvHaLa7i8zak16XU2hEwv+YMP9GEhB6+k+cuf8G5u718WEzL7DGBvWL+7j6TAGZxBIuVd00YYagjr+LIwfOI1LmiMp+TVC3omV+0y5vHWXcfQSdvoSH0UnM83RB1QaN4VfeXHc1N1IQcfkYTt6IgMLSHfVaNYW3rQLhN+/iFUkgs/eCT1m9JUiKSFw5ehxXwxMgtnFF7ZYforoDG9oonuL8viO4lWiL6q3aoq6zYe+7i4XqFR4EncKlhzFIMXaER+2maORpk7v8mbccfukUzt1+jkRJKbjXbo4mPnY5R8calIi7H4TTlx4iOkkCG5eqaNDYD/mK0QBSIi7j2MkbiFBYwr1eKzT1toUi/CbuviJIZPbw8ilr+GKvQpOCB4FfYfS82/Bs0xDlLcxgbiKFMvElngQfw87dF/A81Qz1v7+A01OrMrmoEB92BZdvheFZ1BuoLcqgct0mqOdugwInJzQo8ODYMST7tUUNazYKvX0chy88QrJZOVRr1Ay1y5vp4uWFAkdHe6JtYB2svbMNfUsXrVUVTuYKRF45iuNXw5EgtoFr7Zb4sLoDk4UCT8/vw5FbibCt3gpt6zrrFgYXBzZqDb+EU+du43miBKXca6N5Ex/Y5aKQqlcPEHSKtemYFBg7eqB200bwtDFcHik7+qFsz82Qt1iKO7/VxE32zOhUE9izZzZr7J3rMw2jKPIyvNzFsa3FtcuFt6NFQYVXD4JwitmZmBRjOHrURtNGnihE1Wagig/Dlcu3EPYsCm/UFihTuS6a1HOHjWGNlfE36n5KBC4fO4kbEQpYutdDq6besFWE4+bdV2CjDdh7+UC/yykM/4BDweH814jHyen+6LHKDnNO7sLoytlXkKvwZHU31P54D+LrzcPd01MMXq/w1pAfw9jqbXDI/xBuLWuJgtwPTt6kBPaFU88tSGqxDE/+HIMyRfPNOJx3Hq7aHM5bRv18C+b+dBnG7T7BkBzOhIAEFTq1ha+wkFul0iyO+mdR48nGBdj8rBoGjGjKnYliIuwO0IzahJ0bmhAO598Jdyg4nLeMOvI5IlPViA+5i/Bsi7W1qBF3/iLuqUxRs11bFHh21NtGfgoLFx1DWqPBGFK1yPPxnHTSUjVOYp47pzicfwncoeBw3jJSn4/Qyl2GpNPT0bbbbGy/EgXt2vZUvAo5g01z+qLZgK2QdV+KdVNq5LGu5O9ChXu/fY01IRb4aHAvCEeDcIpHsjxJe6ZEkhxy7lBw/sVwh4LDeduYNcF3ezZgQnNHRO2fg561nWFpYQ1rMws4VO+Ob4/L0OXXIFzcNBTef8Na2vxQRwVg1oIzSLJrg74d9LbncYqICi/jtFt26c0rvErfxcfh/AvhizI5nL8NNeSR93H7YSQSVMawtHeCu2dF2P3DToQ+quj7uPlCCZHEFl7eZUtgNwUnIewKbr1UMWNrDY/alXP8GCGH82+BOxQcDofD4XCKDfeVORwOh8PhFBvuUHA4HA6Hwyk23KHgcDgcDodTbLhDweFwOBwOp9hwh4LD4XA4HE6x4Q4Fh8PhcDicYsMdCoYy+grOBMdpDp/hcDgcDodTeP7jDoUSwQs+QgW3+vhs13PuUHA4HA6HU0T+4w6FCjGh9xGdLIK5ZeF+r5/D4XA4HE4m//E+lJCckqL5aWGpUW4/K83hcDgcDscQCnQolFFn8duELqhXuRwcHMrBw7c1hs8/jPBUXQSG6tF+LJo1C7NmfIlvt99D1l9oViPy8BLMmDkLi/eFaa+pniBgcle0adYQowLioIo6iYVDmsOnXBmUdfdF2zHLcC5Gpbk7O4bkR0PSSczt2R4tG/fAT7eUSLm7GZ9+6IPyzt4YvTcB6phj+HnqdKy/ksAcCjWeHJqHL6dOxZTJU7DivFyXCON1MDZ/1QuNfcrDwd4B5SrVQovek7Hs+BPdL0ZyOBwOh8PJ16FIvLQYneu0wKebn8N74DdYvvQrdLS9jfVTO+HDsXsQo1t0IKlQA04PVuP77+Zi1qiJWPUo0xlQPdmIT4ZMwo/bo1Gpjqv2p5lFYkRdPYA/Tl1GyIO9+KTdGBwt1Q2zlv6EL/xNcXnlp2jd6nMcicu6qsHQ/GgQv8a9k4dw/MJtREb+gcldh2LZsbt49sIcThWN8fLKBQS/iMXrFOEmQqr8FV6+fInYVyqYWOl+Eik1GAs6N8PAX0NRecgPWLlqEca3tMC9nYswcXYgnufu83A4HA6H899D+HGw3FC93EvD3GQktmpMc68n60IZiWdoopeURDIvmnwuRRcoxD9AozxlJIKEnHpuoggVC1SG0f86OpC0dCv6KVgvDUqgtR1NWFwxWTk3o8+PRJMQXYMqhgL7O5NEJCOviWco/a7C5odSTtAnbhKCtAI1bdGI2n93lMJiX9L9oKv0RKmLQ3La3seG5cOIPvpVLw86FCfHkbtUSl6fB5FCF8ZCKWT9UOo9/wal6UI4HA6Hw/mvk8cMhQoha+Zj02MVHDqOw7BKKsjlcu0HleFbzQKitFAc2h+siw+I7drix1WTUNNMjagd0/DFrue4++soTD1qjxFrN+LTaia6mAJiGBvJ2F8Jyvf/Ad986JA5VSIujXa9WsNBlIaH29bhZIoQWPj8QGQMEyMRoHyKW5ZD8dvUlnArZQfP+rXgItHFKQB1XBzi1WpE37yGpxnvcYzgPmAVtnxeXTvbwuFwOBwOJ69XHnE4feIKFMScg4094GBhAYuMjwP6bY+HWtghERGpi6/FotFsrJnVGNYUjs2jGuCjL2/Ab14AFrXVcxh0SKVCry6CUwVXCK6FPjIvT7iyy6qY27gRLrxXKEp+JJAIjxDbovWAHnDO9+WOluxRjPyaor418OrwBDSo1xtfLNmG0yHx7EkcDofD4XD0yb2bVUYjIloJYl19vRmncPPWLdzK/rl9CxcX+etuSMcYNSatwg/+pUEvwxFVphemDq3CQrMjhkgsYu5E7ojMLWCmuZgEuZyKlh+Wvph9IHZAOee8d3AwH4UhglSW3a1ht5Yfit93fIce1azw6uo2zJ/QG80ql0dl/6nYGcqXZHI4HA6Hk07uDoXIBCY6LyBNZgevKlVQJfvHxxuupXLpqBOfIzRCrunQVSH/w6Qf/mJuQeEgeSKShL2colKws2dZLE5+BPLyXBhKZRq7LoJMltu9YpRpPhUBN8IRemEXlk8fiAZllQg7PB99O8/Gee5TcDgcDoejIXeHQuIENxcLdlGF0OBgJOqCC0QdgcBxQ7Akxh9L138Kb1kyri4YhW/OGZyChpTbdxCqAqSuNeHryLJYlPyo1VCpBK9ELXzNAzVS07QzH0bG+XgdMEP5Op0x+pt1OH1xJbo4iKC4/ycO38+6QZbD4XA4nP8quTsUMEUT/6awEqvx+vAyLL+uWRmZBcWD/dh5IV73LwEl7v02DGM2p6DjvJ8wst+3WDrGC9KUG1g8YjqO6UfNl1c4HHgEL8kI1Xr3Qz3NxEFR8pOKVKG/pzQoFIJjkRssTprwVwWlMnscNSKPrMfe0KxOg9iuMjyEWRMYw9QkPyeEw+FwOJz/Dnk4FGI49voKE+tYQZQQhNntWmPsku04du48zhwOwLJpPVGv2STse5Z5AFTi+TkY+MURiNp9iwV9yrMULNF85kIMrShB6t3lGPHZTkTmmClQ4uqmxTj0WPfuQP0K11eOwZSAaJhW/xQLPvPV7aQofH5AiUgU3ptQEhIT83IojGBhbgwRpeLejZvag6pSEpCg+ZKMoLUT0bftACy7EKM7rCsFIYE/Y/sDFczrdkYHdwO3i3A4HA6H829Ht300V1SRR2lOh0pkIRYJPbL2I5KQlWd7mrHvccY5DKqYP+gzv9JkWbYd/RaaccgDQ0XROweTu4UV2di4UZffH+ruSabAvrYkhpgsbKxJZlSK3KpUJU8nC5KIzMjNfyYdfKafjhZD86MhYSP1sLcmG2s76rouXheYHRW93DuKPE1FJDIqTZ41q5GHe32acSaFXXpOW0fUIkcTdk1sRo4eVamquz0ZC8/z7ku/39Q784LD4XA4nP84IuF/rGPOBxVePQjCqUsPEZNiDEeP2mjayBM2ecxtGEYKdvQri56b5Wix9A5+q3kT525HI9XEHu61m6Gxt10+ZzyUdH7UiL97BAfOR0LmWBl+TeqiomVmYqr4MFy5fAthz6LwRm2BMpXrokk9d9jwyQkOh8PhcDIwwKF4G6QgsK8Tem5JQotlT/DnmDJ5vXvhcDgcDofzHvAP9ePCzgutH6NW8WOiOBwOh8N53/nHJgbSNNsrCGkKhWYxBIfD4XA4nPeXf8ihSIY8SaVxJJLkcu5QcDgcDofznvPPOBSql4h7rf3Z8DevXiHPc6c4HA6Hw+G8F/xDizITEHblFl6qRCBrD9SubMcXZXI4HA6H8x7zDzkUHA6Hw+Fw/k3wiQEOh8PhcDjFhjsUHA6Hw+Fwig13KDgcDofD4RQb7lBwOBwOh8MpNtyh4HA4HA6HU2y4Q8HhcDgcDqfYcIeCw+FwOBxOseEOBYfD4XA4nGLDHQoOh8PhcDjFhjsUHA6Hw+Fwig13KDgcDofD4RQb7lBwOBwOh8MpNtyh4HA4HA6HU2y4Q8HhcDgcDqfYcIeCw+FwOBxOseEOBYfD4XA4nGLDHQoOh8PhcDjFhjsUHA6Hw+Fwig13KDgcDofD4RQb7lBwOBwOh8MpNtyh4HA4HA6HU2y4Q8HhcDgcDqfYcIeCw+FwOBxOseEOBYfD4XA4nGLDHQoOh8PhcDjFhjsUHA6Hw+Fwig13KDgcDofD4RQb7lBwOBwOh8MpNtyh4HA4HA6HU2y4Q8HhcDgcDqfY/P0ORWoc7p85istRal1APqjleH7tCM48SNEFcN59UhAf9RSP7gXj4ulD2HngGmINqOqSIxVx98/g6OUolMxj1ZA/v4YjZx6wkr3jpMQj6ukj3Au+iNOHduLAtdgSkgGHU7Ko5c9x7cgZcNP+70JEDN13Deqo09iwIwRGTo4obWcDC1MjSMUi3VUGqaFMTUZifBxioiJg5DsE3Wua6S7mRSou/zIIE349g9thUXitLIPh+0Ox0t9Yd10fNSJ2TcGgOTsRHPIMLxJFaLYkDEfHOf/z0ynqF7i8Zz+uv1AgNTUVaWlpmr+p7K+KpDCzLYtKtZqiZX03WP5X534SAjG02lBsDE9AGtMsWdUvEXTtO/hJddczSEHU/Qd4oZRCJpUwRVRBmaaEUm0Mx8qVUcZEF81AUi//gkETfsWZ22GIeq1EmeH7EbrSH7lpmCGoI3ZhyqA52BkcgmcvEiFqtgRhR8fB+R2u14TAoag2dCPCE9JAkKHql0G49p0fcog+B2okPLmMU6evICTiFVJkNihb6QM0blobbtYSXZx/N4l392HdwWj49BiM5i4FS6zESLyLfesOItqnBwY3dzGgrkqev63s6gjs+mIwvtlxAw+fvUCiqBmWhBzFuPIl26iSIu8jNFYFmYzZFSGA9VkqlQrGpT3h7mCkiZM7arx6dBvPk6SQSsUQqZVIM3FCZds3uPs4HiQWQyyWQGpVDpVdrHPvjxIjcO9JHNLUaqjZR2ztiiquJogpQVv3TiM4FPqkHBhGZSViMitbleo3a07N6lQkKzGzTywqICZzF19q0qQu+ZQxJbHIiJoufqK7s2Beru5AFiKWjsSNPjmRogvNnZSzk6iyVHimEbVaHkUqXXixUb6kGzvm0cet61L/VeGFS1cVQSd+nUb9fe2IKRPLm4ikLq1p4jff0lcjWpOHhYggkpF93Qm051mJ5fj9Q/WIFjUx0uiMrOZMupamC9cn7RYt7+NL5czFxBq9Jq5IbEHlffvRb3eUukiF5OVq6iDUASTk9skJyl/DDCDlLE2qLNXkzajVcop6D6pU9WgRNTES5CmjmjOvUW6i10d+L4CmtvciG5k1VW4znKbO+Y7mTBtLPRu6kLlZWfLtNIsORReh4Gkv6d7lu/TyfWgGyoc0v6ER00MRWXVeR7G64BIlV3ko6eH8hmTEbKLIqjOteysPLoC3XPa0l/fo8t2XenZWQecme7HhF9NRo1a0vMQbVRoFL+lEHrayDLsi2GSbirVp2LpHTOI6VJF0+cA+uvhc39a8ol2jPMlaItgQVidSG/L8eDs9PzaDmlcrS2ZC38XCJeWH04EE3S1ZSKGzEytry8bkaezoTc1nHKOUt2Hr3lGyORQqerSwGZVv/yvdSdYFKUNoXgOZtmJkNWjGVZ2JSgmhdT3dqOZXl7T/NoDkvYPJUXBOJBXp0wIcCmXIPGogE4RvRB/9Gl1sh0L++BStmTmAmrhaMEdISNeY2qwsWvNJ+XMklZMIaUip0vhTrIkIqOjZ6k5kp3G+xOTYL1AT+t9EThs6m2gaj6zWTLqeT6/2KqA32etk5tB3O2vSxSB5Lw12FLO0JFTx0xJwKPR03+ijX6ko/erfjnwDdTYRDKKMas28no9DoaKYo9OofikJiSRlqO3PNyhRd0XLKzr/TVOylbnSmGOFkaSKwgNGk5+TCUndx9FJbeN4x5HTX/Pakre7Lw1cc69AJ6xw5C8P+V/zqK23O/kOXEP3SvbBBvKWyq4Kp4DRfuRkIiX3cSd1NlJASSHzGpBM6E+MPqJf31KjUr3cTx+7awcDIuOWtDQi63MUf31BPlKt/c6q3cl0eXotkhn50Kh9EZkOSHIg9bERbAvLt7gUdVmfS58Uu436OLL2JPQvYjvqv1Ouu6ClRG3dO0q2WRuCwrk1vv1+OLzTp2EkTnApa6KdOhI7oXwF3ZSYsTv6fbcQwz6w1P7bIDSpGAjzmXXfio3yDlZ89gW2h9ujQbMqsBISFklgYla0uSaRpRUsNJkTsTRMdVNfYji384evRjxqxF65oAnl5I9ZuXJgThhDjNIuLijo5VlBlJjO6GDG4V+JOmILxg6Yj/NxhFJtv8NvY6vDXHdNiw3qTfsVU+u+weOwRF2YIaTh1p97cS0yBSJTc5jlOi9cFNRIfH4bN0LioNSFlBxmqDPlAO6EXMa6wZVL+LVD/vIwqzMFB+6E4PK6wahcsg82kLdU9rRb+HPvNUSmiGBqbpb19cDf0KjEdq0xsrcPmOMCSr2Co0ditRc0KHBhy048UCrxaPcWnE7SBWtQ4vmzGNh2mo45bZ2Q8cIv+TUSYAozCcu7+hUOr96ERyrdNQ0qhK5fgStuteEi3EQKJCUL/kcmJW3r3kWy6Y8ElXtNRWXdv9IRZ6yhEN4h6b4yJJW64JNKun8w5I9OIjDgD1x8+BIqazc06D4MfeuXyV1J6TWCt63E/44+g5FrfXQZ0gcNy+b3fksPdSyuBa7G1hP3EScpDc+GXTCwRx045tUapD74bOd5fMa+pv41FXs3/oV4FXNYsut1YhjOnn6MUvWbwce2CJbQ2BhGmkQJInMr9jcV8U8f4Nb1q7h86Rpe15yA6a2TsHvxbzgtbYXPJreHK8tz6vPzCNyyDxcexCBZZgc334/Qq1dLuOssvPrVdezdfhL3IqIRHfMK9u1nY3LNEKxfvhmX4m3g1bwXhnSpgaxZTsXz84HYsu8CHsQkQ2bnBt+PeqFXS/dsHcdr3N23Dpv+vIlolQ1cff3RW3i2he4yQx17DYGrt+LE/ThISnuiYZeB6FHHMWu9KqPwV8B67Dz7ALGwRnxoltaWN0xe2moQ6kOU1fDkQI5HJwMR8MdFPHypgrVbA3Qf1hf1y+RW8YTXwduw8n9H8czIFfW7DEGfhmWRVcOY43ctEKu3nsD9OAlKezZEl4E9UCdPRdLjtfDuexP+vBkNlY0rfP17a2SrJ7acyB/hZGAA/rj4EC9V1nBr0B3D+taHNvuJuHMwACfuRWvWJsWYNsfUmV1RLvYytv1vI049NYFPp5EY5e+WY12IMuovBKzfibMPmNG0jkfBolfi2vL52B3FIkrKouPHPZHra2xJZQye/hWkYhWTlND6BfKrAzlCTx/E6ZAETXxRchhOb9uCEKkNqn7UGtV0ClqgPqlicClgLbafvs/kxPS7rgfij+5B0I2LOPPQBIN23MfqjlpJF9R2Cm6D/rCLfoDbt27j9u2buJNaF5OntIOTOBVXNv2EC6pyKCXLZijUzAn7oBNaewsPKbo8vKWReHD7Fnvubdy8k4q6k6egnVNmRRRYtsQ7OBhwAveiYxAVEQPT5lMxs2s5xF7ehv9tPIWnJj7oNHIU/N3yWkmkRMLzXMqeVMx05aE4ffA0QhI0pUZy2Gls2xICqU1VfNTaRxtHj9SI89i6ehvOPjOCV/vhGNXeM0dna5ANyoIUNXp2QbX5N3E17Q1O7TuKVwP7wFa4lHQaW3aFaR3TZ/uw9fiPaNVe13ITjiLwTxHar+iA0nptQhUZiViXruhjvQOrzyQh+dxarLn+Kb7VjiCZj3IRK9a+Qc9pbfHHgAt4Qkzv4t6wejfPtGmFsnXvKbqZinyQ07aeVtp3P8Zt6X+5ztMo6PbK7uRuZkX1P1tFa+f2IW8zEYmMKtLgwMiMqaHkvUO0rzzENuRV04PsbKzJRCxMz4pI5tyFVoVkvk9Shsynhrm98njzFy1o40wmZZrT5GXLaGITexKLZOQ2ZKdBU9KKv6ZSFWFthsicum7Sm5JSPaHf29uSmOXFvP5cupnP3J/i/OfkpVnfIaOq0y5mTBMqzunWfbD8eE8JIlXMQZrZ1ptsdNNcZQYuoSXtnYg5uQSpB004nUzP944nXxsJmXr3oflrV9N3vX3IXCQiU49e9L/b2sk41bM9NL1j1Yx0Stf2p9bN21P39jWptFRYt2FCnkMCKDy9/KrntHe8L9lITMm7z3xau/o76u1jTiKRKXn0+h/pkmXxYujg+OpkIXWmdrNX0W/TWlM5mSV12RCviyCIewG1cTahMs0n07JlE6mJvZhEMjcasjOzTlQRB2lKA3sycmpOk5Zvog0/jaZ6pbTTgwW98shLljlQ3KaV3d3JzKo+fbZqLc3t401mTE5GFQdTYKQuJ8l7aYjmlYeYbLxqkoedDVmbaN9bimTO1GVVSOYUJr2hvxa0IWeTMtR88jJaNrEJ2TNdlLkNoZ3piqQMofkNc77yEOp1fHULkjq3o9mrfqNprcuRzLIL6YktB4rbK6m7uxlZ1f+MVq2dS328zVh9GFHFwYGkyb7qJR2a2Y58dNOqYoeeNH/FKGpY0YFsjNPL4EGfHtN/MaGiiINTqIG9ETk1n0TLN22gn0bXo1IaPcnnlYfyNn1TW1sukWkb+j1GF14QBdVBWjCtnTSMPvI01uRX4lCHegwbRsNHzqG9ujVFBepTyk1a1oHJU+pCnb75Hy0dW49sxRJy7ryK7oUfp5+mfUO7woRaVBnWdgpqg4c3U//Sme/bZXW/p7saJXlFq9oZk9imCrUbNJrGTxpLbSpq44nM69F3wUyyxZLHGwroX5qYr6J5LmR16XvtgxkGlu3lIZrZziejbA4959OKUQ2pooMNGafbVY9PKYvK6JMYkGvZi5tuWvBamjTsI/I0FuJKyKFODxo2bDiNnLOXnqmUFDK/ofaVh8yXBn3RnWqVdyTb9HYqrUDD9sbpUtJiiA3KFeUtjZ4L6Yrt+9B2XftMYP2Qs30ZcjQS8sfK1y+Q0ptufGA/cnIfS8fSX/nrSDk+ljwb/0AX1nRh+ijIRUKuo/7MeE0YF9ifPPyX06MnP1Nz3Rom369vZml/Btu695iScSiUd+jbOsxAie1owC6hJuJpSw8bTeds3HgBpfsJmQ5FGeq6OoxSmHmP2DeCKsu0FVum/46M90q5OxTxdGiUO2uEMqr/w31N56A4PYE8WCWJjBvSvIfpDTJv8nQoWOexuDnrdFmezep9b7hD8fluCvrzD9q/ZSEN/cCaOTcSsq07jY6lr75SnKWJnsK7PBFJHZvTl5u20g9D/KnVoGV05cEa6lyadSDi0tQnXdsV12m2r2CAmPH4YAb9ld75pxyhUS4STTpW/r/SE03+4unUZz5aoyRxpVF/CuqtovA1nYl51yQundmIFNdnk6/QwJlT8cGMvzTvDVXhP1ML4X27rIFOdq/o4AhPavJjqOYeij9Eo9xZg5TVpx/ua6RNpyd4kFSo14bzSHOLIpjmN2F1LbKiNiuf6+rJ8DUUhjYy5Z1vqQ7TB7HdANKq2BbqIXS+ImNqvEDnKOg5FGW6rqYwVkhlxD4aUVlnVMr0px06BYs/NIrcmd7J6v9A2qKdpgkerJ5Yeg3nPdSml6tDweT7cwsyYTKXNdDJ4NVBGuHZhH4M1dyVC0q6820dZkTFZDdgF2mz30NjsEXGjWlBhiOtoHOTPDWLugTD2mHuIQpjKpr2aAW11zhoEnIZfTTjna8ieD41YTIQWbWhlc91+mbIGooMOQmOyyDak8145oVBdcDqfntvG23d+86hW/oZMECf4phcBIdI4vYJaZZZyffQ4DLsGWJ76rk1c82TKrwQbSefNnhNKIc8iD730S2+bbKIHgmiTLtJX9dmA6Ld2gWFr/4cQ56CnWJlrTH1HCtlCciDXQv63Ee3QLEJLdI8uLBlO0eT0stWoQPNPRTGUk2jRyvaax1LiQuNPpoeORdyK7tAsdPdTr1ttHroO+eWnh7qORTMoev7v8sUwwSlDF9P3XRtt/TA3Zo2osEQG5QnSrr3QwMyFuyj2JEG7hJWUr6igD5O5DluB63oJPRRrP5KdadNGtV6Rdt6l6EqUy6wp2QlcXM3smv7O8W+2UtDnQU7zO6z70GbX7KLylBa8mElGiAYl4R11MlUKLf++jot/wWHomRmXSSVMWrlDmzeeRgLOgjrEkzh6uoEQe+UYffwIPtLT5EZnN3KwhgSOLWZgAE1hWkjNV6cPIy/FNoouaGO2o5fNoYhDawVPz+F9WvWYGPQc810IqU9wO3badqIRUHijnHbzmLP1r0I2vsFquY9l5YVkRy3967B2p1XIWr4KRZuOYfbp79HC+3LMtY+LGBhzswJQ+LbD5P79sIXqw/hz7UjYbN3NQ69ZLln8vvgA92Um1FV9OleC4LeJd9Yg1UndRu1RaYwY70Y+wKpnSMcNPmzRoMBXeEjfFc9w5H9l9nfxwhg6WuT/QCZyfZB91qC6UrGjTWroEnWyBxmwjuAtAuY33c0lp9KQItfruHwhIosUI2o7b9gYxiTKetTn59ajzVrNiLouUbaSHtwG4K44/f+gAVn46GWeqFRI8e3No0nqTwKK3dsxs7DC6BVMVe4CtPDpETYvQfZ3quLYObshrLG7D6nNpgwoKZmalT94iQOCwqmjsL2XzZCW7TnOLV+DdZsDIK2aGl4cPs207G8MTI307w6SbswH31HL8ephBb45dphTKiY1xZLCSqPWokdm3fi8IIO0GbfFdrsh+FeRgMRw9zcXDstKq2FnuP84WbGvpariw8qCGmrEffiBbRvNOKx94cFOBuvhtSrERoxT91wlEhLf2RaWr5l1cfQOhC26GlhAxbdN8P0SYW4pxEQZspFMuH1IbskdYQj68Ggfo2Qe891z1DhcUAh2k6ebXAMagrlMHFB+XT5pU9Fix3QbtY6zGpvB3HCSXw9/nc8FLLOZLD4ywaaKfniyUPABC7l09sMcxU0XwpbNnOmM9qySWv1xDh/N5Y3KcrV/QBalYnDixf5vAPLrewCxU2XlSOz2FlLnYHYDY071EJplp6kbB34uWl1/A3T8WRNBMNsUN5IUKl7N9RlHgXUL3F0/ynIX+zH1mOO6DmwPXoN6gAHVmD1q6PYtjea/T2EwJPO6NHPN8er0ZdRLyG1sYWZ5UcY0stda09iD2LV5sdIufw7Vkd1wqh2NkxYVrDSyE2N+Fev2P//W2ToT/EQw65GB/Tp4Ik3p9bgm9G9MSnwqUaYJOy3zUOfNEjKwbmMNhvq168Qn4+Opt24hGBhoYvIBMqY67hy5QquPnWA/8ix+OTTCehWQ1iCU3TEpWuiQ6/2qKH/8qwgJB4Y/MtWbA/YiP/9/A0m9KoLpzyWgoiMjPXef6fhzu0HmrMahMZrZSk0JgEJXCpXgpWQBVUMHt5/oQ3OA2kFF5TVZFeN2BcvWbJ3cPuBcA6BkKwVMpN1QeVKVpoKV8U8xP0Xaua098U3X7eCI3O4Yy/9jk9aVEPtEVsRkirckIYbl4KhFbcSMdevMHlfxVMHf4wc+wk+ndANNWQKXD5+VntwldgWdvbpD3sLiO1Qo0MfdPB8g1NrvsHo3pMQ+FRnWJTKbIZaHwnKOZfRKjrrlF4JCpZ2A5eCk9k9IpgoY3Cd6dGVq0/h4D8SYz/5FBO61dAs5sodMRz7foOvWzlCQrG49PsnaFGtNkZsDYFGbHkgtquBDn06wPPNKaz5ZjR6TwqENvtpUObbQARYZ6O17SC1zkQpLuP4We3BVWJbOxRK9FIXuDprb1AnhuHBk/w6Bj0MrAOVSpfHLBiiTxJUaNES1UxFUEXcwk2mo0iLQqSgYJIy+KC2m8aQC2kVte1kbYP5wBwK33aN4CqRI+j7Cfj1ntCpVcLwn2ajefo69GLJIy9Kxi5kvq8npKtMiWBwusyhKOpzmQOivdUQndFEzBOJW1d0qy9sKlAh+s892L19K8549Eb/mkawbjMY3VyZfOk1TmzbhTv7d+CcZ2/0q6LVskyUiIx8CUtbW5aOMeoN6Y+agrdLSTi9ZikW/7Id1gM/Zo4LiyqyhrWlICFCInMo8hkf/yvR2Nnio0b0qfnoVcsNjWbcQIWBi/Bj34qsCTAkkgIekowUhbbpSZzKo1z2utSDUlKgiSoyg++wRVi6dGnG55efvkRHQTneI4SFORpYRxf3KtOoi8zMwGyqBqksD+9EhzqVjTA14hPDoYwj+5vZ+ahfxyEzWTZqNzPVGQMptMmaoOaEPTi1+TO0KG+qycfN9aPQbfppdo2QkqLQGEWRmS+GLcqU9dKlv+CnLzsyY0uQy5M0cUCpLH5JWi4BNWLu3kC4XPgajVPze6GWWyPMuFEBAxf9iL66GQGJpAAN05VD2LFUXlAwStHpHJOJ7zAs0tOjpb/8hC87ump1Ny9MamLCnlPY/FkLaMV2E+tHdcP007pRYy6oo09hfq9acGs0AzcqDMSiH/tCm30JCsh+7pAc8iRNqZjoWXkKI3ppVXzYTHeIkvI6Du1/xMytARhYB5Q+IiW1Vu4aDNEnljXfaVi/uAPKJh/Bl207oVfHyQiMK43GU37Ht/660TqjJNqOISSe+xZjlwSzjkEG96E/4dtWbBSaTrHkkTd/V9neLsLrdN03tSGlzg3DdCZfxC7o0r0RzJjcVBF78eXcC6jVtw88hPtMmmCwsBNExDr/UysxdlkQqvbqpWuX+qgRFRULy1KlNHZB6jMQgxoLM4nMcbz+E2b+WQPDB3ro+jsr2GhONSSo4mMRZ1DDEtCzde8xBpmyTA9bbxpLn9gAjO8xDQF37NB33nwMrF8uQ/FFYhEyD9rMPuXHSH2Ex89Y+iLWYNt3gV96OxFmNnRflczbF5BVqqSdblNF4UjA0SxHOivDz+DM/fQ78oEVQFsE4SQz/dwITtFijOk/HHP2Pc54dq6wNLSPZkqT8T0v2HPSZca+ZMY1QnXfalo5Ke/iQlDmMcnK16+RKPxDWgkffKBZl5wnabdu4oGQvqQsmn1UiyVbHb7VtI6D8u4FBGUISYnXrxM1z5BW+gBCsi82DUG7uXfh3nMhjt25gIUf2UHMRsyPTp9ksWSoVKmCppGooo4g4Kj+Mc5KhJ85g/tKKSpWdNE2JFUI7tzJZYzOZJyvOdGTX454rw9jeqfR2PhUxVRsPHpMC8Adu76YN38g6pdLd44E/RLrvrM0cioYHj1+xp4hgsy9PboICsZGmpW0ioSoIwE4mlWRcObMfV39C7MHmi8sXKeP6hfYNKQd5t51R8+Fx3DnwkJ8JBw+kvYIp0+GaKLmJBYB43tgWsAd2PWdh/kD66NcZgPRtJF01BnKwkZpGWVhMtIFq9PlJa2Iipr9aYLo7yB30ecleWM0GjUaDYSRFHOugn6ZiwP6MtAj6U4Alu0K0bQZg+sgvSZZATJTNUSfhK/h+OtwMGxHbMDm2f3QZfTPOPEwBKe/b43MtzqFbTt5tcF0WJguy8IMUMb11ycwc+Ri3EhmufcYjl++b4tSYjVe/LUFe2+mFlMeWlSZD9aN+ItRNn2HhdlsbbBwSmT2p+qTR9mLnS67Q3eTmt2vjzB7o0W/P8n8TkJb09xioM7kixjOXXqgqbDPXxWNZ/Im6N+jnK7jk6LWwH6oLSyySL6Gs/from+3XE5kVr9hDkUiLG1stNfE5dFrSGumC+w7K2O5bqPQNeO1kQ2sLLVfEf8KsRmCYxho695ncsguB4k3cP2BboSnCsW1SznfCymf3sG9eBbKjNOb+CSoFc9x//FrTTy1/DVepyTidQITlJIZaM0dqUhO1n5LuboLBx6qYOwxBD9+0UA3HalGXPBNaGdiVXh8Mxhv2DeJVz8MbWHLMq1E2Oo+qO8/FBOnTsG4Qa1Ro8W3uFqQcqlicenAKW26bER9/fBePEofVCpvYvlnX+DXTaswZ8IinM1zrkqBp9duI1qTNzUig6/iWT5z3epX9/FQ2J7HJKh6GoL7GYNYMcoPmIaRVZgRojc48uuvuCZcYx3WnwfOIYHEcGg7ESMzPKx0mFFKSdb+roTqKbb9uhvP1BI4dZiFL1qZa5R9wLSRqMIsEr05gl9/vaaJq37xJw6cSwCJHdB24kjmuIlhbpyC80tm4Pd7rLAWVdHVvwprYmJYVBDWUEjg1W8oWghb/ZRhWN2nPvyHTsTUKeMwqHUNtPj2KqsFKby79YCf8M5Q9Rw7FizHDbkSLy4H4Mg9jYDYqOAubufRWQl68PzGHZ0sVXjx9CnSHfTUqPNYOvwTrHtRHpXKE57euQetir1BfJIaiuf38fi1RsMgZ4Y2JfE1ElSZawNSk5O1upZyFbsOPITK2ANDfvwCDQQFk3ih39AWmm22yrDV6FPfH0MnTsWUcYPQukYLfKtTJHVcMG7qXgeoHt9EsKCEYnMYp5zHkhm/Qyu2rvAXpkjFFqhQ0UkTNwfKp7hzL57llI243sQjSa3A8/uPoc2+nDl6KUh8ncBs9SvcfxilMdjEnOZn4brCvL6He881oUh7yNqjcCyE1BvdevhBK/odWLD8BuTKF7gccARa0asQcfd2nr+jIvH+FCsWdoaLTARV+DqM7LsAF+L0IqvjEbxpItoP2AJUKse0QWlgHYhhZqo9t0YVGYKHb9RQJiYyHTREn9QIXzUeE3c/ReKrNzBy9oC3lxtKy1KRpK0GHYVrO3m3QR1JIQjRvJdnMSJCESKcS6COwx/TRmHpHVbJptUwfuVc+JdiUe+txZg+3+FsYnHlIZCEkBDtGjD2YIRqHlyMskU9Q6bK3INWZdLw8MZ15HmSSG5lZxQ7XbEZTDVrvlSIDHmIN2olEhNZQZhcg28+0eg41E/x8IF2tQQSHuCBLh/qR6ytJQjfDNGZghE7dkT35laCmwfHDgPRUe+VtsSjLwY0tdBcs2/TF51yWYukfH4IR24o8PL5M1ZjAmKU7jQUnctKIDKqgUGjmuttxRdnDKBVMeF4piue4bZOO0h4b9EszcyVNLr8dQOytzAhYxNTMjMzI1NT9t3YjErVmEwn9Rf4ys/SdF9LYYUniWTWVLHxMFowtxeVE44wFUnJyr0VfXUokl6v60RWbg2phZc1GZWuTm26dyTfMuZUtvFntCMsfT1sMu0b4UoWxsZkYmrGnmtKJsYmZF19Cp1mUYQtil+2KKdZZS9knw3vyKJSR5p7Oka3wyB3FKe/oJo2JiSTGWnKI5TFSCYjI4uy1GuDsFT3FR2bVo8cLByo7pQ/cj8yOO0qzWlQikyNhLwxmbCPCcunmV1j+i6XrQyKs19QdUtjnfyEuEZkUqo9/Zaxv1NYwb+HprWuSOZiGZWu2Za6fliZbGS2VK3PYgqK1cuE3kp1kdSOqvp3p051y7G8OFLtYb/T9SxHwabRoz3TqHVFcxLLSlPNtl3pw8o2JLOtRn0WB1F6smk351ETGylJ7atR604tybuUOTk3HkcBoellEbYlfkktyml3bAjyFo6MrdRxLp2OSc+bgh5uGUm+thLNCnSpmR15NB9OQ5vba/RByK/Eug39qldmDWmXaU59lqf0etSkbUo2ZZzIycGGTHXH38r85tAtpaBi08nXUlgFLiKZdUVqPGwBze1VTrP9TyS1IvdWX9GhkDXUycqNGrbwImuj0lS9TXfq6FuGzMs2ps92hGVdua2KoINftqBymh0R2nyKLSpRx7mnSSha8r4R5GqRXndM901YnVtXpymn5XRzXhOykUrJvlpr6tTSm0qZO1PjcQGUIbYcyOnsdF+yFFYpi2RkXbExDVswl3qV08nMyp1aTV1AY6tZsvZlQqaa5xmRkW1XWh+5l4Y5M13VhOt0yKYOzbrIHqZ4SFtG+pKtrp2Z2XlQ8+FDqbm9ICfhWRKybvNr5nbiHKRRxKmfaSTTOVuZiLXJavRhtz7Uu0srqu1RkT7o/g0depIpNYPqIDKNYvaMpMpmglxZmlaOVKnFHDqr2VBVkD6pKHpTD3IQ5KS7nl43IpkFOfm0oDEb7mbscjGk7RTUBtNu/cDagDEZZdQzsw82DWnOuom63WcsjzIrcnBielnGjsxZmNhhIO1OLKY8Xt+iH5rYkLGRtr6Z08Hq2IYafh+szVdRymZkRLZd11Pk3mHkLJRDCBdsNnuGTZ1ZJKiMPnmX/fNipatBFUN7RlbWHlctMiIrx0rUYsY8Gupqoafj7NmWvjTz3BH6rLKZTsfT21o1+vyUoHuG2KCCebmhK9PxijQ2+35QxsstPcleWo6GHci5Dzbt4kzytU5ve6Zk33OjbieigoIme5NN61/pSXo2ErbRwHLWZJred7H+wcrelQZsOFEoW/c+k+PHwYqMIgrB5y7hicQDjRp7sdFfCp5eOonrsTao2rAO3Jg1VcfdxOUYV9TxBJ5cvYSbz+Uwq/ABGtR01qx8N5xUvLh3GVcfvATZecK3rhdK57P24t1HhdePruLy7edIFJeCW00/VC+b7WiX1HOYVK0ZFj1Qo1SvFfhjRBlEpdmiUi0/eDvkscxM9RqPrl7G7eeJEJdyQ02/6sieLJIicev6HTyJTYO1Ww34VXXKWRepL3Dv8lU8eEmw8/RFXa/S2vfveqhi7+LchRCklquNJjXKQHH/FE6Hi1C6TFk4O5dDmVImmqnL4qCICsa5S0/YqKIRGnvZQpzyFJdOXkesTVU0rOMGS8Th5uUYuGoVDJduPofcrAI+aFATznkoWOqLe7h89QFekh08fevCy0BFSoq8het3niA2zRpuNfxQ1akgDVYgKvgcLj2RwKNRY3ixUVfK00s4eT0WNlUboo6bJRvbFAUVYu+ew4WQVJSr3QQ1yihw/9RphItKo0xZZziXK4NSJgVLXhn/BLdvPcSzWDZusiwD96o14ZWLXhVYB7pCyMMv43xwDGSsfdetViarTuWjT+qoA/i09UTcrdUYFYS1LvIExEU/wb2bt/H0NRuPWrTG8nsHMSrjV9oMaDtFRa2Gio2slcI0v1KpeR2lVKqhFpvC2lqrzyUijzx5i2X7W5Aj/PJ5BMfIUOGDuqhWnF/BMsAG5YsyEtcvxsO1njdssjc09QvcPB+FMvWrZTnMqiDUsbcR/MYdNd2KUa5/GSXnUHDeLvoORb9APN/YpZBOGIfzjpN6EwtaN8HUqx9hc+Q29NTvO+OPY1y91vglrDpmXf4Ls6u/1yMIDudfSSH8Mc4/CiUiUa6dMRPWB2hexXE4/yJUzw5jz7l4qNloNFLYMqqPNBlJcsCqbi900xy8wuFw3jUksxm675x3FOW9HZjz1Q/YdC4cgk+hjHqMsNdmqFi/BpxkukgcznuO2By4v30jgiIf4fJfcbBxLsX8iBcIu3YUq776DsecP8G69VNQV/PrfhwO512Dv/J4D1De3YWf9zyEWibVnFkgbB1Uqsvjo096o9b79EqVwymA1KcnsfrXjTh24xFeJKohs3JExeoN0Lp7b3Ss5VC49+YcDudvhTsUHA6Hw+Fwig1fQ8HhcDgcDqfYcIeCw+FwOBxOseEOBYfD4XA4nGLDHQoOh8PhcDjFhjsUHA6Hw+Fwig13KDgcDofD4RQb7lBwOBwOh8MpNtyh4HA4HA6HU2y4Q8HhcDgcDqfYcIeCw+FwOBxOseEOBYfD4XA4nGLDHQoOh8PhcDjFhjsUHA6Hw+Fwig13KDgcDofD4RQb7lBwOBwOh8MpNtyh4HA4HA6HU2y4Q8HhcDgcDqfYcIeCw+FwOBxOseEOBYfD4XA4nGLDHQoOh8PhcDjFhjsUHA6Hw+Fwig13KDgcDofD4RQb7lBwOBwOh8MpNtyh4HA4HA6HU2y4Q8HhcDgcDqfYcIeCw+FwOBxOseEOBYfD4XA4nGIjIobue66IRCLdNw6Hw+FwOCVJAV3we0WBDgWHw+FwOBxOQfBXHhwOh8PhcIoNdyg4HA6Hw+EUG+5QcDjvIso43DsVhBCF7t9FJhVxd04iKLTYCXE47zypcXdwMigUXNv/Gd7uGgpVPB6c/RMnr4bhZYoMVo4VUMWvIepWd4KZLgqH829AGRuKO8+TIJaIISxjJrUKIms3eLtYFs5rVz3ClvGDMH3DeTxStMb/ovZjqI3uWqFQIWTDJxg6ezPOP1LAf1U09g2x1l3jcP4p1HgdfhdPXhMkYpGmnajNnODjXhpSXQwkReBeSCyUQlsidt3CBVVcbfJtR6qQDfhk6GxsPv8ICv9ViN43BFzb/37e0gyFGtEn56Fn3WaYsC8ezvXboP2HH6BMwhnM7VQJpZ1qYvz+BF1cDuf9JznsPHb9bwo6+VZD1eoN0W/OBhy8HolCe+sSN/RZegg/93BkzokRjI104YVGgkoDfsWhJd3hIDaCqZlMF87h/JOoEXkpAN8PaITqVauhdtepWHMiDHLdVQFV7G0cWDoWrWtWR/3uX2L12WfsrvyRVBqAXw8tQXcHMYxMzcC1/R9CmKEoWVQUHjCUKtt408e7npNSF5qO8vkuGuZpRtWnX6Y0XViBqKLp0tYfaMaqq4bfw+H83ShD6ceGMhJZdqVNCbqwIqGgc5Mqk9ScpSPXBRURxdmJ5CmzoV4BxUyIwylBFNdm0gdGYnIcuJsSdWFZiN9E3V38afmj7D1IPijO0kRPGdn0CiCu7f8MJT5DoXq8CqNHb4Rk2O9Y3LksGydlRVK2M+bP7Qblo0dI1YUViPwg5gyajs033hToqXI4/xgSa1hbiiEys4ZlxvxtEeHHv3D+xRhVH4ahTczw8o8AHHqlC8xAjZg9O3HvwzHo75q9B+G8y5SwQ5GKS8sX4/AbXwwcUQ/mutDslGo/FfN6eWV9eGoM7pw5iN17juF6ZIouUIsKUkiZgRbeuaWlpkKpVOmuaFHFP8DZ/buw+/AFhL3OxeWQh+PS4V3Ysec4bkTKEXN5M77/bBQ+W/GXLoIOFu/y0T3YufsILj1JzOK8KOUxeHTzHA7uu4AIdkH+KAgHDl1ChMFeEYejTypi7pzBwd17cOx6JLJqvB6qOIScP4w9e47maBfpFKj/HM67hrgcegxsBavYA1i/KyrrQFEdjm2bHqH10I9gqQvKIJ9+oiTgbal4lKxDoXyAP4+HgMr7oV5+nqWRD9p3qAoTzT/UiDg4A917z8b+h2+QGLYRQ2rWwvDtTzVKpnq8E3M+W4fgVOa1nlyM8WPGYPSU9bihFO5VIGTrWLTq8g1ORCUi6uTX+NC7Eb46FqtTUHbPsVn4sMlIBD5Jgfz+Ogyu7ox6C1PRtl0V2MjS85iK0G2foGWnWTjyNInlYQ8+b+yJBp8EIFTjMCTi7JKR6NKiGdr3mIV1G8agad1W6NSuKfpO/Awt3Mwhk8pgU7kt5p7Wvg1U3vofhtRxhomRLbw6LcZF7nhwdKgjDmJG996Yvf8h3iSGYeOQmqg1fDueZrdfigv4afhsbLsZgecXFqOrTzV0/fky08Z0CtJ/DuddRQyHjgPQwSERRzdsxWO9MaLy7iYEJHfFkHrGuhCB/PuJ3FDeXYvhdZkNlhrBdcxR7c6PpLNY0LUmShtJYVLve9zLeC5vSyWC7tVHyZC8hwY7iEnmN4duGfrqK+U4jXUzoqpfXtKtj0ikPYOdSFZlGl1MXzAh30zdLKTkOfEsKXRBAm9OTKSqds1p8UPdw1RRtMLfjIx8v6Zg4d43+2iosxHVnHldl7aCLn5ZjWS2nWltlEoTIpB8YTrVsqlL393OzHTC6YnkIzOlWtMvULImJI1uzPqAZGIbcu24gK6/ukd7f11HQdEqUgR/S3VNJeQ8bD9lvjpXUczG3tTwkz8pNvNRnH81L2mlvzGJHYfQXq3S5EIKHR/rRkZVv6RLOv1O3DOYnGRVaFqGwivo3OTKJDVuSUsj0pVHThem1SQjmSd9ekz71rlA/WfwNRScd5dkOjrGjSQyX5p9I1P3z0+pTW1/fcIsqB6G9BO5rKFQPf+FWhixvmPSucy+Q3GepnhLyajZT/RE9xBD2hKnYEr4lYcaKsHjUyqhNHR5u/EHGLl0C34bVVO3bcgYFd3KAqE3cStzKJYTdRS2Lfgd90s5QHFiNVb8thzLlm3ApVgR0u5cxbVkwUM9h7+iAXtHR91UjBGq1KoC84RruHg7TRMCJODAz7/hlnNzfFgpc1bFosEIDPBVInjN7ziumVkTwdzclDnWDug8+RPUsKmMDqMGor6wqrjKCIxrZ4uonf/DjiidP6sKw6ZAwtBpLVGqhKXMeZ8xxgcjl2LLb6NQU7fOwriiG8oiFDezK7zUGrbW6cpjBr8BPVCTxdu17SwUBug/h/NuY4LGA3uiMt3A5vV/aWcQ5Mex9pgHBvV0yTp9XsR+QmxjAyuWkESiN2MusYGNlYhdlGjT4m2pxCjZrk5aHi5lJVA9e4RHBk/xW6Na266onvQnlk5jnXi/gZi+9ynU6hSkKPKZbEq7jovXkyBxcoeXc1mUK+cCF1dPdPhqE3Zu/wofmrHCObvA2ZgQFxOTMW2VlpwCpbgMypXVWXPlPVy58RooZY/S+m9pJK6oXqU0KOYubj3Tm48TO6FChWybksSl0XlMb7gm/IEV6+5DiK24tBrHXD5Gr7Lcm+BkxbpaW3StnoQ/l07DiAH9MHD6XjxVq5GSosh3elVSwRXljNR4FRsHlQH6z+G86xj5DUCfWmKEBqzFcbkacfs34Gq9oWhfShchgyL2E4bA21KJUcIORVW0bFoOovggHL9o6Fllclxf1hV+XddC1PlbrNm0AfO6Vyw4YyQoEkEtskdN/3Zo1749OnToiI6dOqFzu9pgfg1zKPpi2sjKeLD1F+x5lARV/GWsWH8JLkO/xFBPnfegToUijYDEN3iTZVZFBGtrC5YP9p8BUjJrPApDPiBcWr0SQSnxOLT6HhqOaJrnwlTOfw01FDqHQX59Gbr6dcVaUWd8u2YTNszrjoqGtERFMlKUYjg4lYHEAP3ncN55JF7o178hjCP2YN2+uwjcHA7/IU1zOfiwiP2EIfC2VGKUrEMBYzQZ8wkamT1GwNIAzW6I3HmNGycuQHg7oLy1BKMmH4bbuJ8xuq5D5mlpuUBsFJeB1B0VXSTMuTyKP9NfM2RH/Rqhj0qhx5CKCPp+LD7+Yisw4gDOLusIx/SSG3mimpcZVA8u4sIL/XQIr18nQuTog2o6jSLdoaK5ni0q9caQEa1gEboFvyxfjk1JHTHIO7/ScP59qHPXDYHEPzC+/QycT7qFJaMm47DbOPw8ui4cCqEiqcHBuK92Qos2tWFsiP5nwDKVV744nH8UCSr0HIAPLWNx4Ieh+D2lKwalvwvUo1D9RBZlF0HEbH2WvkOIIURRK6FZ21+otsTJjxJ2KJh6eI/DqqW9YHHwcwz56QpynIepeIwDs8Zh5dNSmrUFyge38SBVBgtLU11mEvH0aSyrciVSMyY5JJBICLGREUhSx+PWHyfxAD7o1bcBLN78ie8/D8ATjWYwVNE4sXITrgn3yk9h/ykT1B74BRb+vgarVyzAlB41YJul1KXR5ZP+cE89hVW/B2vf4wkk/YUj55LgO2o0mmu2o6jw8mUcU8Q4xL7MTenEKNtzNLqVfYntU36DTd/ucCpx6XLeaZQxiBZ0I02BVH0VUb/A8dkzECCtiEpMc28/SIXMwhKmOv1IfPoUsczAKTMVXgulQZEepI7CrhU7kdxmNqa1tmBG0AD9ZyhjY/FalYJXcVm3QXM47wriMl0woK09km4+RLm+feGWy4yAQf2EMhaxr1VIeRWHxHRll5ZDeScg8u5txGrClIg4uREHH6igDN6NX7efx2OFYW2JYwDatZkljZIiTy2iQfW9qFbH8TRv5QbatPY3WjjjExoy8FNafDIy4wRNVeR2GlzRhCyq9KO5K5fRrJH9aXifBmQrsSLfwTPpl4OPSKm8Q/MbmZNIbEKWtm7U+vszFCeszk0LpW1ja5O9TEala7ShXn27U/vWPeirvU+06afdpMUtS5NZaU+q9UE18nQtT+UqeFC1Bh1p9JLTlLnRI4EuL+1FXnau1GriYlr9v4X0yUe1qOn4HfRIWOGbdofWjvmIqtgbk5GRMdl7t6BeP5zQ29GRjoJOT/Agk2qZK/g5/w1i//yWen/ozfRWRBBbkOeHfWjw4ME0qF83+rCaAxmJdLuUVJG0fXBFMrGoQv3mrqRls0ZS/+F9qIGthKx8B9PMXw7SI6WCTo7zpNLOzuTeYiL9svpXmt2/KTXst4wuv9E9UCBf/VfQxaWDqLmnDdNZIzJ3qUfdvjtG+rdzOO8KiX+MJDeXobQvDwUtqJ9Y/NPXNKC5J9kwXTcyd6F63b6jY5q00ujm4pZUWmpBFZt2oS4dOtCQeYH03YemZOnejPpO+ImOPmcdQUF9Cccg3u6Pg7FR/evH13HtzjO8EdmgrGc11HQvlXO6Sjh4Kuganqfawqt+Q3iVSsajoDO4T+6oW88TtsxjVcXewqnzz2FZrRFqV8i6MkH+9Br+uvEUKZZu+KBeNZRJ3778+jzmfbwcSe1awRUSmJpIoEyIwj3mof4WEAq/JVfwx+iKusjsGfGhuHzpDqIUFqjwQV3ULFvY1TgqhC1og5GSX/HHZ+45TgnlcLTIEX4pCNeep8LWqz4aepVC8qMgnLlPcK9bD562IsTeuoHXlbxhcvcsLoenwb5KfdStZJOrTuWp/xzO+4I6BvceAJ5eDnlPmxvQT+SOEi9un8VfYSqUr90INcrIEH3zBlI8a6FCtrbC21LxeMsOxT+JEpdn1Ebr25MQtrN/tl+eS8TJcb7o83o+Itd10oWVAKpQ/NTza5T+dS36OfD3HRwOh8P57/Av7vVe4+qle1CJc3dbFUobNPmoju5fxUetVuD53vk45v4xunFngsPhcDj/Mf7FPZ8lavh6QHHoe0xcex1xmgU5KiQ+OYd10z/F9grzsbSPkyZm8VAhbLk/7I3NUHGyEkMnNdQdKc7hcDgczn+HAl95iET8Zw85HA6Hw3kb/JtWHfyL11BwOBwOh8P5u+Av+zkcDofD4RQb7lBwOBwOh8MpNvyVRxFQPT6BTUdDoNBJTly6NoZ1rqn9R7FIxf0/NuLMU5Xu8FgJnBv2RlufzPMw/slnczgcDoeTF3/PDEVCGE4dvoSYt3D2ryr+KcLj0s9K/XtIu/I/TBg5FnM2X0FUmglK2VvprhQXCSzt7GEufoMHe3/E+JGjsejEa901Lf/kszlF4C3qfvFQ4/X9U9ixdhkWzP0BC5etw56gULz6e5vSP4cyFqHBwbh56zZu32afWzcRfDscCe9cPXE47xHCDMXbJYEOfuxCEtNmtDi0hA8xVZylz72NyKjal/SXQhf2N5Ac2JdsjZvTkmcZZ3fnJPkxHdt2lB7lVmTFczq3/gf64tPRNHbyHPr9+CNK1l3KIGE79SllTC2XRugCtBT72RkkUMjRVbQ44CblOCU8j2dzCstb1P1i8CZ4PY1v35y6TPiZAk9epuDgS3Rq9280rVNlsrWrRPWnHKJEXdx/LW8u0obZn5J/RWMSQUzW1bvT5Pl76D4/Z5nDKTJvfYZCHb0Ta66awkV5HgEBD6HShRcKdQwub5uHmauvIcsAyqgquo0bhwnjusDbSBf2dyG2hm3WXxnToniKU7+NR+sqVeH//Um8yv5CKfUWlnZujHEXK2HQrHmY3sMWBwbVR9df72eVjcwaVuZ5VE9Rn60j4cYajGnaGEO3JaKKr1vOo9DzezbHYEpE90uY+DOz0KbNj0gduQmBiz9Ft6a+qFbND006jcT3O09jQw8Jgk9dw7MSyawaMZe3Yd7M1bj2rs18WNZG/1mLsWy0H6Qic7T8Yg1+/LwjPPl5+RxOkXnLvYYKDzdsRsqg3/FJQxEuB27DnaIYFvlBzBk0HZtvvMn2i4nWqDvqR8wb7gdLXcjfSY4TOpR3sWbyTOx+aQMrcQogkeT47QXFiV8w74QLBnzOnCA7S5Sp8zHGtpPhxKa9eJzFiItypq9HUZ4tGPjoPyahuf9CpI7diSMrx6FVxay/i6Il/2dzDKGEdL8EUb/Yg4kDf8Sb/iuwoL1TzsYvdkC7775F19QwhKTpwoqFHAfnDML0zTfw5p18lSCBtbUlxCIzWFsW4nfkORxOrrxdh0JxEat2WaFHr/ro1qU+pMGB2JLPUEWdEIbzB3dhx95juBIuz3AeVGwMLWXtXSIWIS01FUqlXs+bEoUbF+8iPrvBkofj8tE92Ln7CC49yfrTzcrEKIReP4V9h65pf9JW9QoPzh3E7j3HcTu2GEMzqTeG/LIGi6d/gc7Vcp8yIZb/NNUj3L4t1waoo/Eg9DVs3SrCrjijIwOenXpzEXr3Ww3LSVuxvKcb/u5Jnf8UBum+EvKYR7jJdG/fhQimo3I8CjqAQ5cikMr+S4gMwbWTe3H4RrxGf1Ojb+L4vn04ee9Vhj4rom7i1IHd2Hvqfs42kAUlbiz9Gpui6+Hj0XWR51LbUh3wxZxOcNX9Mx1V/AOc3b8Luw9fQNjrbA9SxyP0/CHs3nUAJ6+EIS79555ZU5JqGy5EaaxESmWhZmmU8hg8unkOB/ddQAR7pPxREA4cuoSIVF0EAVU8Hpzdj127D+NC2Oss7bzEMeBZ8vBLOLxrB/Ycv4FIlv/Lm7/HZ6M+w4q/EnQxOJx/L2/VoXh96Hcc9+qPzg5SlO/cDQ2N7mHH1r+YqcyOAiFbxrCR8zT8GZmCN9eXoqd3JbT8/gISHu/EnM/WIThVjZiTizF+zBiMnrIeN+Sn8HVLLzjYOqP2iM14lNG6UxG67RO07DQLR54mITFsDz5v7IkGnwQgVHiw+il2ftUTrRq3QKe+87D7xCIM6dAP05auwJyPW6NW7VHY90qbUnHI64RRk+ZDMMArGms/7o6vD99B0MIRWJo8Bmt+7AIbXZzikuuzVWH4fdJ3OFd2FH74tCp3Jt4yBul+4lksGdkFLZq1R49Z67BhTFPUbdUJ7ZoOwoqgbZjSvSUateiKob/sx5/zhqDX6O+w7Iex8K9eHX1XHcHq0W3QZtg3WLHiawz78AO0+jbbK0F9lDeZc30L5NkIjZ3za/bGqNK+PapknB/P2ubWsWjV5RuciEpE1Mmv8aF3I3x1LFbToaqjD2JKk0YYERCGhNgrWNqvKlz7bUGS6jF2zvkM64JToY45icXjx2DM6ClYf+Um1g6vC2cTKYxcx+CoxvlIwtkFXVGztBGkJvXw/T3B7UjE2SUj0aVFM7TvMQvrNoxB07qt0KldUwz6/blwExQhWzG2VRd8cyIKiVEn8fWH3mj01THtIKGEKfBZ6hgcm/UhmowMxJMUOe6vG4zqzvWwMLUt2lWxgUzC5/w4/wF0aylKHlU4rWj/AY0/maL79zP6tbUFSd3G0rFsKxATTk6iqta+NOuabmWl8jbNrW9OpdospzBhkZR8M3WzkJLnxLOUZe2lPIg+95GSrM53dFe3mCr5wnSqZVOXvruduboq4fRE8pGZUq3pF3SLH1Po6JgKJBHbU72JgRSqy0/slp5kJ3WgQXtyLJHMgmZhpGln2iDXBeRATpu6mpPsg1l0I8eKR6K0x3tpanNnkonFZFZtAh2JzWWBZcoRGlXeNPdFmUV4dtq1mVRTJib7ev1p3Nhh1Nu/KTXvMoYWHX2Wc1FmHs/mGEghdJ/SbtCsD2QktnGljguu06t7e+nXdUEULahE8n4a6iT5P3v3AdDE+fcB/JuEhL2HIoqIioii4sJZcWsd4K5b68LxWmtrW6utVf9q3bV1WwfuUQcO3AJVUHEwxIUFRKoMZa8ASX7vJTkgICAKtrZ9Pq2teS5399yTG7977nnuIXH1TvTtGf53yrpAU2xFJLLqQov8E0i158hj6Cc3CYlbLiaN3b649N3koScg7R6bKZFPqoh039nU2LwzrX3CL1geT1t66ZGkxUIKy5fR4x/bkk6tKXSB31TptS/JbdJp/jjLov2DuO12mE3XNA9c+XP6pYuES/+CAgrTc+n6Vw1JS+JGP8UUHA/5FLqgOXecmJBd/1UUkvKITm7yokBl4aT70uzG5tR57RNS50xO8Vt6kZ6kBS0MK+WgK8Orrb1IW1iNxp8s55ivwLrST31KNpJm9H0Iv+7cIPrWWUymHrsovpTDm2H+jd5bDYXs/i5sv20M7Sf7sXPnTuz0Oo8scxvgmTcOXOGr+5UU8Ti4cise1+uPwY35+2aRE775PRkJPlNRp7zHADq2qFWN2wShkH/mn4EzP29GuE1ndKtXNKNBu8kY3UKGsJ3cXaNUmSKAgYEeBOLWmDh/EOz5uzEjxwaoKUjDy5c56oT3QoGM+BjEabfDZ9+ORcMXG+DhOhirrxdVY1c9BRKuXsVDqoMhi9Zj3fpfccB7Jybrn8PXfT/GdwHZ/PeYqlDhfV9JoA99XWXzBQ98OaMpTBr0g+eYtlANWCs0hIGeAHodPfHtxzbqxrPadVDHRghhg48xqr2VuopRaAUbaz0g5SVelvFMQZGdiSwZgRQKcP++TnoNa8aPxMhRozF69GiMGvMtfot+jkOrtuGxmRVyfXdgy+aN2LBhD24lCZD/4C6CcwSQSCSg+MvYeywCyr1Iu/0ynPuld/kD5AlNYGLE5bxYOx8RTEyMuCNTCFFhcwYB9NWFA48vZ6CpSQP08xyDtlZA/KFV2PbYDFa5vtixZTM2btiAPbeSIMh/gLvBVXn8KiqwLhkeBtxEAixQTXk+UpI0gksjfWQEB+F+lbRHYUqVG4kr+3apjzPVn104FPD8rR6tMVWH3/urmhRXtx2F9qhJ6GRTHdWrK/9Yw2n4ZPSrloDThy5yl35efjBuhmRDWM0GNprtorQkr/c+eBPZI9wJTQPMLGCpGYiI7NCkkSUo8SHCNZuvCyTQ1ub/rsSd4JTrlMveX+s56e0f0X/QAdRbuhsrF+9AYNBuDBH64JtP5sDnvb32QYG4+JdQCKxhX9dAnSThgosFU9BKcR97vH5XpzFV4C32fQ1C69qoLeY/FCOASKKtceHlLrnKo5a44ECdoKJ8zKUKFsro2SM0tkZ17iIujwjDvdefOXLBeQfM2rQCI4xu4eD+s8jp/hkG1riHIO7YFFnXhaNNDdSsaQtbOwf0m7cPx47MQzc9IWyHf4FJDROxd2QT1G05BPMOPIBUu4pPK0Jr1C5WOPkICQpBtsgadR1tUKNmTdja2sGh3zzsO3YE87pV5cvYKrIuIWxsbaBNyUgsfOFIPnKkMgir10SNtz6RMRUle/gbli9eiqVL+T/LlmPntcRixwbz13k/AUXSCWw974Ap3wzHx717o3fBn75TMKG3FV75HIBPQTsFykNeHndyzMqofEtwRR5y87ldKTMd6cX2KAGMjQ24jeX+eU8hVMWk4sSKNXjUYSZmuKjv4ST2n2Dtj0NhEXcep24UtGarero6yshJzgVL6s9KopoN0cAUSE9lL7CqMm+z7/+VJO3Rs5Mp6Pkp7LtQ+u8t1LFGkwY1IBQYw6aWCYQkhTSXuEDUAs169UGfvn3Rr19/9Hd3h0efVqjBRTnC6v3wy/Vg+Kz5FI1TzmLZqI7oviAQJephqhhBKs3lAigBLJr1Qp8+fdG3Xz/07+8Od48+aKXMWBVQ5EqRy0Vob14XF1CMmIspDSJw8BdvRGfLkXp7C3bfssWn337KuqK+R1rNvsb5RxF48uSJ+k/EQ5z72uXtb0aZKvEeLq9yRO/7FTdbD0Nfcz6pkD7cPHrCKvUCDp5MVFfxi+uhXm0RZOGBCExVfalMyjuw4hTFI1GJA5wd9bi7sCDceKn5XUJaWiYE1ZzgzJ9sCuYr+eJx5ccSSe+IW0qJu0jIExHzZzaq29uDrydQMXRqCDsu0imq6q2skuvWQm2nBjBCPP58rhFRyLOQkSNEvYYN+QSmct5y31fhfifVD1ViX1EpSNGcwn+/5L6lTFQvqHRCSwz+ZiZa6sbh0MJVuFmRp1xadWFvK0J+yCVciC8l2lck4+LmPQiX2KPnrI24GBaAZR2Bu5u34bLq0SKPFBrbqyYQcKeeEumkyr8CmhWE6rSSm6aFuva2EOWH4NKF+NeW/TYUZZZZJs591hffXVdUaF2KtEhEmw3BePtALJ0+CV8fBCafuYYN/au9p7s2hvnwVP2+nnoFqzaEo617TxjzSZr03fqiq1kGLu85jBjl0weRI4aN6gDDlJNYuvBSYatpedw5LF54RNVdTPl8VSQiJMW9QLYiFeHn/BChPOkoUpCcxp1Y01KQqnqSYYkBM0ahbp4/tm8LQ+H9fvZNXAzIRgvPqeisqhhQICUpnTufpXOBRtEpQpGagnTuJJeWlFS5Z3DyeLxIzIciKREvNZ+eiGqiaWMLPLt5Hc80VpAaGoZY+0EY1kbz+cs7KmPdBj3HYEitF7jicwcF5/qsQH/c1eqET8c04lOYSnnbfV9J/gqvkrl9ODkJr0perfKTkJQmhzQ9DYWtAigV6cpnJsVq4bKRmiaFgkvjvl4m7ZbfYv+WMbCLWIkRYzcj5LVnL4ScnBzuv1KkpXBr1HLCsBHtYJB+AUvncHku2J/kCfDdug/B+ULEnlsDryD+SNNvCDdXG4gMDGHMn1lEIhEoKQ4vshVIDT8HP9WBq4WatayBuIe4zx/wshd+2OsTAbksDCc2HcH1p8o6DjlevUrmgolkJBUrHC04DRuBdgbpuLB0Dg4XZQwJvluxL1iZHzke75qEnn1m4lBUWYUiQ2LCK+5skI/cPM3lK/Dyyg/47rAW7OvpVGBd3LHkfxr+Oq0w5uvV2LZzB7as+gpDmpqyYIL5b1E1zawS+XR7w2hyczAjbYk2mTfsSmN+uVmsV0bO1dU01sOVbPUlJJGYUL2Og+gHn1fcrFF0aGpLshDrUq02HvTJkB7UpuN42vmgoNfHA1rRQZ8EQh0yNK1DPZdepZfRR2jOx03ISptblrYlOfeeTl4PlS2sM+j2+mHkaG5H3WevpR2/rqYZPVyo02dHKVo5Of8B7fLsTA4m2lwe9Mm23WTyepRPWf5LqW8jC9IWS0inugt5/Pi7atWlKbunhYwe7vmMBro1IDOJmN/GgTR7/xN+OpH8T2/6vK0dOfWfQ+t27KBfvhtNndoPp43BJV52/Na9PN687uRrP1IfB0fqPecX2rn5e3Jv2pwm7ItkvTwq7d32/e82r6dpPRqRhWoftqCGXYbRj74Zqu/nP9hFU9zqkYmEm2ZYhzrNOkTROTdo7ZAWZK0jJrGONbUYu5XuSSNp/4yPqI6hchmm1KD7HDpa3mvZSU5JQb/SzJ4NyLpOOxr+5XLatGsf7d3+E303qT917jmelp58QoW7V34kHZreijs2xWTZtDcNGzGY+vYcQvNOxnB7XBYdHm5OJk1G0tLte2nHisnUwaEleR5+yveGkNGDFR1IXyAkHUNTqtNzKV1NVuct/95a6mqpRQb2nWjAgH7Ub/xy+m1JN9I1rEtuI2bRT+f9aNe0HtTIQnmcapNFwy407Edf7ugukE+Rh6ZTKwuuLCybUu9hI2hw3540ZN5JilGtPIcuznQgXYGYGs8NUs1RTNIF+t8n3aihqUj16m0Dh240fNw4Gjd2JA3q5kxWEoFG75Q3ratge/TI0sGFmjs7kF2tmlS7vjO16z+V1v0er+6NwzD/ch/QaKMKZMbcxc17L5BnUh+t2zSEucYjAHlSOPyvP4ehcwe0ql3a2x2Lk6dG4vatB4jPNUDt5q5oVqPqGmpJj45EjdHZ+PnVcYx6p8Vm43nITQQ/zYC4mhNat6oH05KPO3IvYWr9/njydSQuTefu5niVXnduIh7dDcUfKTqo69oWDTULuUAZ62b+XfKSIhAcFomEdDl0TaujrnMz2L+2I6plxQbjZmgspIZ10LyNM6prVKblJtxH0N1IpGnXQlNXF9TSPDzlSQj3v47nhs7o0Ko2NCfJXt7HtZtRkNdqhQ5Nq0OccA+hUge41H6LmrqsWATfDEWs1BB1mreBs2bGuHNK0uFxGHTHE37L2/FplVDOutKuL8ekjdno090OEOlCRyRDRvwj+O3djMORLbHuzhlMtWeNKZh/NzZ8+TtQXdRHpWLlizOYYMonVjWpN8bW+gTPf4h6PaD4m9bNMP8k0pgzWDx9K4wWH8HXLu/xVW6y2/iuVU/c/yIKx0aVeNiV6YeZLYYjbUU0vNzL7UzLMP947BHfu8q/hk3ztuNScCTi0krrh/duZJmJiA7zx4ElG3AxpeRDdd7fuW6G+SeQP8PZA7fRaMnu9xtMKKXdxa1HcghLrYDIhczkI/Rozd5Ny/z7sRqKdyAL2YGvtwQhiy85kZ07NnzTW/2hUrIRuOFr7LmXz7fg10LD4UvwWaeiu56/c90Mw5Qi7ybmtXTDTzQCG/asxJhmZhDKMxFz4yi2/XoVhuOWYU4nS3b3xvzrsYCCYRiGYZhKY0EzwzAMwzCVxgIKhmEYhmEqjQUUDMMwDMNUGgsoGIZhGIapNNYok2HeCwXSHl/FpevhiI7LgMDIGvVcOuCj1nVff4nZv5U0DS+z5NASCSFQ5CErLRWpGTkgHUvUtq8Bw390OUjxLPAkzgT8gWSFHqrZN0Wbj9qicTX2rgnmv4vVUDBMFcu4twez+nXD+M1hQJ026Nm3G1rVlOLmij6oW70+2n197j2PxvlhSL21B4tm9EFjKzOYWtijy2cb8duZUzi4dio+qt8QPT8/gIeag4j9U+Q+xK7RbdF/bTSsO/RG92bGiNg8Cs2bz4DP+xswmGE+fMoaCoZhqkbK799TextnmnrqxevjN8gT6LRnA9J3XUqP+DEgKo1b5q2DP9J32+++PibLh0D2mJa1EZPQdDj9pjFcTWbAV+QsllDD2X5UYhSbD5yM/vipM5k0/IKu5fBJSqlnaUqDrrTuGf+rf+i/C8O8B6yGgmGqiOKlN2aPWYn0UVuwqq/169V/Qiv0WfI/DMyLwh/5fFplZflg0dj52B+ajg/y3aYic5iZcCUh0YFE402S+i37o3sdBSIO78e1f9RdfQ4C/W4ip1Z9OGg+3TDuhpkLPFCH//jB/y4M8x6wgIJhqoQMoesXYl9CG0ya6ooyx20z64evF7nDjv9YQJ4agWunj+PE+RuI0hhSX02B1MjrOHviOM743UFUctEVWA4taGlx122hAPl5eZDJ3mbgfRmyEqNxL8AHp2684NaShejAMzh76wU0X+heft7eTMD/vxihPvR1uSliMYpeSp2HxAdX4XPCG5dD4gqH2X97ZZdXgXffJiEMDfUgC9yFTbez+TQlLTgNn4F+tdSn1Df9LqWvX4bMhCiEXj2N00EJ3FbIkfL4d5w64YPAqAwWmDAfPBZQMExVkN3DsRPhIIcO6GhT3mGljUZ9+6JR4d1tLv44OB3dByyGb3wm4v0WolvDDph3OUl9AVEkwOerj9Bh8mFEZSThzvqRaGw3Ege4a5n86TEs+twLYXkKJPqtxWfTpmHqV7tx594uTHS1gY6WBHbTLnFr4GRfw6qBzWAp0YJOm6V4pLy+ZV7DuikD0MWtL4Ys8MKeaZ3g2t0dfTqNxbbnyrW/IW+VoEgJw70YoHYvD7TW5j6/8MF3gz/BD6efID0zCnvHN4PLxCOIVa5I9hC7JrrCRkcLErtpuKTeIFxbNRDNLCXQ0mmDpaoN4pRTXmqV3SY9dJs4Dg3zb2JRz48wbtUZPC4RkJT1u4TKlFPLXr/s5QWsmNAPbm79MfSHLfBa8AXWnItGYvhuTGrRAN1+8ENSZQueYd4n/tEHwzCVkb6bPPQEpN1jMyXySRWR7jubGpt3prVP+EYV8nja0kuPJC0WUli+sgnCj9RWpxZNuSBVT5deoy/dJtHpguf3WftpkIEWOcy+Rrl8kpL8+S/URcKlfxFQlJ57nb5qqEUSt58opqCBR34oLWguJqGJHfVfFUIpj07SJq9ASuCmvylvFfOKtvbSJmG1cXRSlWc5ZUZfplUe9mTZcg6dS1RmREpXptchSeNv6Ra/3EzvcWQtbkRzg/gE+XP6pYuEtBy+oICiDaLrXzUkLYkb/cRv0JvKq2q2KZf+OPI5dbLRJgEEpGXiQD3+byvdeFVQqJwyfpc3rj/3Kn3uoEVCs+70031+GyifHqzsSAZatWj8iSQ+jWE+PKyGgmGqgCI7E1kyAikU4P59nfQa1owfiZGjRmP06NEYNeZb/Bb9HIdWbcNjMyvk+u7Als0bsWHDHtxKEiD/wV0E5wACiQQSisflvccQobzL1m6PZed+Qe839E4UmpjAiDu6RSKNhgsiE5gYCbiJIhT22BQoHz1wSVYe+HJGU5g06AfPMW1hhfg35u1tUNZd7Jw1GRM/nYCZKy4CQ/ciJGAFeloqT0HaaD5lPQ5s9kQzPmPa9nVQA5G4F56pThAq867aIBRtkQgmJkYQQAgRP1+55aWoqm2SoO7gNfB7FA6fnz9Dn5ovcWX9FHRpPxGHYsp55FSR9SsfBekIoNViIIY7aqvn436tBtw+01H7OY7uOs2nMcyHhwUUDFMFhMbWqM5d8OQRYbhX2ojyOh0wa9MKjDC6hYP7zyKn+2cYWOMegkKyIbKuC0ebGqhZ0xa2dg7oN28fjh2Zh2563HJth+OLSQ2RuHckmtRtiSHzDuCBVLvKD1yhdW3UFvMflPJD3pi3tyHQb4HxP23Frzt2YvvGZfhieFvU0BjR29j5Ywxsko0L6+di8uiRGDP/JGK5yEwqzX2rxyvlllcVbxMM6qHX/63FieB7ODG9CShiN7760bfsth9vsX6BMnDS+JGFpg3gYC1Ezp8xfArDfHhYQMEwVUHSHj07mYKen8K+C2l8YnFCHWs0aVADQoExbGqZQEhSSHMJCoEFmvXqgz59+6Jfv/7o7+4Ojz6tUEN5Ky6sjn6/XEewzxp82jgFZ5eNQsfuCxD4vl9kUZG8VaGskA0Y2HIgdgk88L+d+7Bn+WDYv8vZqbzyqpJtykW2tEQthJYN+iyai35mhLj7YYgvKwKq1PqFEHLlITA04T8zzIeHBRQMUxWElhj8zUy01I3DoYWrcFOzA0BZtOrC3lbE3bhewoVSr0IKJF/cjD3hEtj3nIWNF8MQsKwjcHcztl0ufh+sfNRSnAAC7ugunk5QvRdXIYOqfaAKn6b8v+oz7415q7iC5ZdJFo51nl/ifJ2Z+HmqK6wKn8cUJ1BvULEaC1JvEGSqDXpDeVXBNskf/4RPPI8jlf9cSL82aluKYFijJsw1zqrFyr8y6894gj/iBHDqyG0Pw3ygWEDBMFVEu+W32L9lDOwiVmLE2M0IyeAnFCLk5ORw/5UiLSWHu8A4YdiIdjBIv4Clcw4jpuAqL0+A79Z9CM7l7kpjz2GNV5C6pwb00dDNFTYiAxgaFxy6IohEhKS4F8hWpCL8nB8ilMvRqola1kDcw/t8zwAZXvjthU+EHLKwE9h05DqeKu/a5a/wKpkLJpKT8ErzGvfGvCkvrrswqWcfzDwUxU8sBff9RC4DlJGIhPQyLqKyCNyPyIPYwBC6/GZlxsYiiYsVZHkFXT61UFO9QbjPd3WQvfDDXp8IyGVhOLHpCK4/zSm/vKpgm0TVqkFwZiXW3ij+48pjr+P2y8aY8n99YKhKKeV3wZvXX4ByspBZWFxyPN69B1eNBuKrKU3UKRUpe4b5q6nbZjIMUzXklBT0K83s2YCs67Sj4V8up0279tHe7T/Rd5P6U+ee42npySeUxX+b8iPp0PRWZCEWk2XT3jRsxGDq23MIzTsZQ8p+AFmHh5O5SRMauXQ77d2xgiZ3cKCWnofpKd9JgGQPaEUHfRIIdcjQtA71XHqVklWdDfLp3tquZKllQPadBtCAfv1o/PLfaEk3XTKs60YjZv1E5/120LQejchCW0ISbQtq2GUY/eiboZxZ7Q15y7k4kxx0BSRuPFf9/RKSLiyhkb2aUjXl8iU6ZOXUmQZM3kLBJXtTyOPoyDh70jFoRCOXbaUNC6bQqInDqZ2piIxajKPvf/GhaG6F+ffWUldLLTKw70QDBvSjfuOX029LupGuYV1yGzGLfrr0/M3lVcltUvaUmddMn8QmjWngl6vo130HaPcv82h4l940+2hkUY+Osn6XN6yf8u/S/CZiEohrUOeZq2nH7h20enYfcnEZSutupiq/ofLGfDLM34ANDsYw70leUgSCwyK5O3M5dE2ro65zM9iXMTJYVmwwbobGQmpYB83bOKN6QQN/pdwE3A+6i8g0bdRq6gqXWvr8BDV5Ujj8rz+HoXMHtKqtOU2Gl/ev4WaUHLVadUDT6mIk3AuF1MEFtTWX/wbl5U2RdBjjBt3Bbr/lfMq7ysKzW4EIfp4HU8e2aO9ohpzoQFx9TKjr2gYOpuoGBrKX93HtZhTktVqhQ9PqECfcQ6jUAS6aG/SG8lKq3DYpkJ0YhYeP/sDzJClE5vXQ0rUxqpUo07J/l3LWLwvGdy1csbLaCgQta4rYPzMgsnKCa+t64IugUNWVPcNUDRZQMAzzbqQxOLN4OrYaLYb31y584j/c371NBQFFjQ14fnYSzPnk1/wby575x2NtKBiGeQdyPDt7ALcbLcHuf80F7QPYJkUucvMJlJ+HvDKanPw7y575N2A1FAzDMB+C7BcIufQTpg5fhVtGH+N/2xfgk/YtYFfYAJdhPmwsoGAYhmEYptJY6MswDMMwTKWxgIJhGIZhmEpjAQXD/Mdkv7gNvztxxd44+d8kR/KDSzi8Zw+OXAxHUjnjejEM82asDQXDVIGM2Pt4msZF6AL165Z1azREXXMt5QQ8eJoKhVDIHWwKyBX6qNnIHmb8OwWk8Y8R8TIfIm5G5XwGNRvBzrQCcb48FbHPFbC2NSsaOfQN8q6vwrDpa3Au9CVqTL+Ehz93gsb4XO9AgTj/3TgWqQ3rapYwNzGArkRLVQZKpJAhLycTqUkJeBGnj3ZTPNCoopl93xTJuLrkU6x41Rfjmz/E6lm/4Fmfvbi9eyiqsdsshnkn7NBhmEqTIyH4JNZO7IQmjZui1+xdCIhWj4UtT7yL31ZMQNdmznB26Ysvva4hunAYDgVSHl3B/sUj0a5pB4xecgDX/8znp5UnDwFz26FefTcsCCptaNPSSdp+iaOnvkFb7qIu0SnxFqZ3kofbu77BnO/X4+jlqwgM8MfpNZ/CrXUrtO40HqtP++F3Xx/sX/U1ZnyxBQGlj5n2t8i48C3GbzXD5KUTMXDsMmxdPRk9m1pDm50RGebdKWsoGIapvPzg76mZWIvqf3616BXMKil0YpwNiQz70vYE1Xuxi8nymUQNuv1MUQWvh66A1Bub6MuvttGtdD6horL2kIeOmJy+vlkijyXIE+jWwR/pu+13qeSbsgvJ7tP/uvWh9X8UZVyesIl6SECSzj/T84JNzX9C63q50Q9hZS7pL5ZBR4abk7bbT/Ts9Z+DYZh3xOJxhqkiWo0HY0ATAaLPnMDtYhUHJujm0Q0W2ddw+nwKn1YgC75HA+A0cihqV2j4bDVjV0+sXD4RLdUjUb01gVBQfvVklg8WjZ2P/aHpZbe1EFjC/cd1GF+3KONCA1MY6wggMjGFScEKtOphwuaNGGP3gTzvkD3Fg4h0wMgEFXm6xDBMxbDDiWGqilZDDOzfBIKoMzhxt/ijCJLLoaB0+HmfRzKfppJ5Cb/dcMbQ/tVeOxjlqRG4dvo4Tpy/gai0kpd1KeJDg/AwtWS6ckyM8zh+1BtXQuOQlXgb+5d+Ds/Pt+CmxgCZfDMH5CaEw59bx0m/R0jRWJQcWtDirv/Kth35eXmQyUppsSi0ROMWdaHHf1QTqJat/m8R/doNUcdQxuUnGvcCfHDqxgsuUMlCdOAZnL31AkWllYfEB1fhc8Ibl0PiuK0sIsuMR2SIP06dDVaPoCpPQQS3rBPeV3D/tRaVCqRGXsfZE8dxxu8OopKLhvKU56UjM5sg4LIoV26bvHgZll7uFcl7WfO+bd7VFBlRuO5zHEdPXsadZ1nFAzt5KiKuncbxE+dxIyqt7KCPYf5CLKBgmCqjBceB7mgq+ANnTgRrXGhS4HP0BrStDZDuewIXNCop0s7/hjstP0EfMz5BJRd/HJyO7gMWwzc+E/F+C9GtYQfMu5zEXThy4b+wKxytTGHTajL2RxddShSJl7Gg20eY8lsMpFmP4TWuCWzarEbex33QyEQMkcY1XiCLxdFvBqH/hEXYvOUHjO/WFG1mnocy5pA/PYZFn3shLE+BRL+1+GzaNEz9ajdCC4bbfleZ17BuygB0ceuLIQu8sGdaJ7h2d0efTmOx7bkCihc++G7wJ/jh9BOkZ0Zh7/hmcJl4BLHKTVTE4ti8oejesQvcRyzHCd81GN9vJOau34JFk3rCpZUnThWUqyIBPl99hA6TDyMqIwl31o9EY7uROJDNbVvEQXz/2SpcildAFrYbn0+bjumLjiNadU0vp9zfkPdy532bvKtwyzowDZ17zcWFOCnSQ9ZjaMN66Lr0BrhNQO4fBzG9+wAs9o1HZrwfFnZriA7zLvPD1DPM34h/9MEwTFWQhdPilmISN/6WbvFNBuRx28mj6TTyPjiGqmuZ0yeHUtQTKJkODm9Gk30y+c9q6b6zqbF5Z1r7hG+bII+nLb30SNJiIambIWRR4Bwn0hK3piUPC9ovpNOpT21I0ux7CuHXmxv0LTmLTcljVzwVNhVQtaEQkJ69Oy2/mqhOl8fRr30MSavmZDonVX2L+95+GmSgRQ6zr5Xf1qKkrEM01Ihb/oC9XC5LkR9KC5qLSWhiR/1XhVDKo5O0ySuQEuRSujK9Dkk0yi3TexxZixvR3KCCthdSujStNomEFtRm9m8UmaNOTTowlMy1rGistzpB9vhHaqtTi6Zc4DdGeo2+dJtEp/nvU+4N+qqhFul47CmWxzeWe5l5r8hvVrG8K2X4fUGNjVvQgmC+5GX3aVlbfTLrvZGiUnxpdmNz6rz2iXq4c+4XjN/Si/QkLWjhB9NGhfmvYjUUDFOVRI4Y6N4MeHwa3qpbejliDh/En73HolefgehhkYbL3peg6vCQ5IOjER3xSWeNoa0V8Ti0ahsem1kh13cHtmzeiA0b9uBWkgD5D+4iWNV5RAe2tZSPSLh/CmodZA8RcDMBsKhW2O1R0sgFjfQzEBx0H8X7johQo/8XmNXBUl1FKTRDA4fqXH5e4mVlayHeRKAPfV1ulVYe+HJGU5g06AfPMW1hJdRG8ynrcWCzJ5rxTS207eugBiJxLzxTnQABDAz0IBC3xsT5g2Cvo041cmyAmoI0vHyp7lkjkEggoXhc3nsMEcpbeu32WHbuF/Tmv1+qipR7WXlHRX6ziuVdmY+DK7ficb3+GNyY79QrcsI3vycjwWcKdH9bhW2PzWCV64sdWzZj44YN2HMrCYL8B7irXhHD/G1YQMEwVUqEBgPd4SJ4iNMnwyGTP8L+I1IMGN0CEoMuGNDDAimXT+JKhgKJp47hWZfhaK95ocsPQVBINkTWdeFoUwM1a9rC1s4B/ebtw7Ej89CteIOFIkIb2Npog5ITkVhQ9Z2fA6lMiOo1a7z2rgoxd9HVpKUl4i5mcsj/orfSCK1ro7aY/8Azdv4YA5tk48L6uZg8eiTGzD+JWIUCUmlu8TYCAgm0NXu9ikSq7ZPL1NGQ0HY4vpjUEIl7R6JJ3ZYYMu8AHki1yz/ZvUW5v5b3t/nN3pB35AfjJrcsYTUb2Gj+aFoS7nv5CAkKQbbIGnUdbVCjZk3Y2trBod887Dt2BPPK3DkY5q/BAgqGqWKiBgPRv5kA90+fQGjQPpzUH4IRjsqeEIboOqAHLJIuwvtyNE56J6LH8FbFXy5FUkhzCQqBBZr16oM+ffuiX7/+6O/uDo8+rVCjrJ4gXEAxYu4UNIg4iF+8o5EtT8XtLbtxy/ZTfPupAxfmfPiyQjZgYMuB2CXwwP927sOe5YNh/y5nKGF19PvlOoJ91uDTxik4u2wUOnZfgMAsfnpp3rXclSozb0mUh7w8AmVlIP21NhGkCq5IIYBFs17o06cv+vbrh/793eHu0Qet3mpFDFP1WEDBMFVN5ICB7i4Q3DuG7xefRc0Rw2DLH2mGXQegh8UrnN8+F4fSeuGTJiXqDrTqwt5WxN30XsKF+LJb2Sleq0lQIC0yGmZDxsM+cCmmT/oaBzEZZ65tQP8KvPpR/b7c16snlG/vfDvcxZBbDPffUpampJ6u/oYGWTjWeX6J83Vm4ueprrAqWaXCK5in5Pt9lR/VSQokX9yMPeES2PechY0XwxCwrCNwdzO2XS7oM1K4lMK/Vazcy8h7BX+zwrUWm1mdXpgkrod6tUVccQQiMJVPK6SFuva2EOWH4NKFeNazg/ngsICCYaqcCA4D3dFcEI5zwc4Y5W5VdKAZdsWA7uZIPHMKuX2GoUHJm0otJwwb0Q4G6RewdM5hxBS0aZAnwHfrPgSrej8qkJKcxl2Y0pCSWtDlMAv+p/2h02oMvl69DTt3bMGqr4agaYkXLSgyMpDFRSOZaekaF0VCamoGt7x0JBd2FRBBJCIkxb1AtiIV4ef8EFGB9hWKl3FI5O7WZYlxiC+tN6T8FV4lcxfk5CS80rwiyiJwPyIPYgND6PJZzoyNRRKXSVleQZdPbruTuHwr0pGm0SVTkZqCdOICqqQkyLmSFsaewxqvIKjn0kdDN1fYiAxgaMwvmFKRkk5QJHN5KVhMRcq9rLxX9Dd7Y945IkcMG9UBhiknsXThpcKeG/K4c1i88DhMhoxAO4N0XFg6B4eLVoQE363Yp84kHu+ahJ59ZuJQVGk/AMO8R3zjTIZhqpLsIf3YVo/sp1+movb7ahknxpK1YTdaH1PGaxrzI+nQ9FZkIRaTZdPeNGzEYOrbcwjNOxlDMlkMHZnzMTWx0iaJRJssnXvTdK+Hypno3tquZKlnSQ4uzcnZwY5q1axN9Z3bUf+p6+j3eDll+v1Ig1rZkJ5ETBLzxtR3mT9lyVPo4g89ydFUQmKJHtm0HEJrrudy+X9AKzrok0CoQ4amdajn0quUXN5bJWV/0IE5Q6lHk2qkI5GQRMeKGncbTDO9HhS+aTP/wS6a1qMRWWhz07UtqGGXYfSjb4Z6ojyOjoyzJx2DRjRy2VbasGAKjZo4nNqZisioxTj6/qfNtHJyZ3IwUW63Ptm2m0xej/Ipy38p9W1kQdpiCelUdyGPH3+nrMPDydykCY1cup327lhBkzs4UEvPw/RUxmXz6WH6oocjmSnzoFuDXPr8H+1+xPfMKKfcpeXlXam83yz/Ae3yrFje1cuKokNTW3LL0qVabTzokyE9qE3H8bTzgbLXRz5FHppOrSzEJLZsSr2HjaDBfXvSkHknKUa1GTl0caYD6QrE1HhukDKBYf4ybHAwhnlPMiODEWvaFA3NitcSKN+TcC80B/Vd7FBex4Os2GDcDI2F1LAOmrdxRvVyh99Iw/Xlk7Axuw+623E3uro6EMkyEP/ID3s3H0Zky3W4c2Yq7N/iMbs8KRz+15/D0LkDWtXW6Iny3ihfyhWI4Od5MHVsi/aOZsiJDsTVx4S6rm3gYPoWmc9NwP2gu4hM00atpq5wqVXx/L9duRdXmXmLUyAz5i5u3nuBPJP6aN2mIZRjzRXKikXwzVDESg1Rp3kbOBdbkQJJh8dh0B1P+C1vx6cxzPvHAgqG+ReQ3f4OrXrexxdRxzDKmE/kZfrNRIvhaVgR7QX38iIY5l9BGnMGi6dvhdHiI/japXLjyTLM2yhx68QwzD9R2t1beCQXlt6bI1cGk496oDW7tvz7yZ/h7IHbaLRkNwsmmL8cq6FgmH+BvJvz0NLtJ9CIDdizcgyamQkhz4zBjaPb8OtVQ4xbNgedLNn9A8Mw7w8LKBiGYRiGqTR2y8IwDMMwTKWxgIJhGIZhmEpjAQXDMAzDMJXGAgqGYRiGYSqNNcpkmCqQ/fw+HsblaLzOWhNBrmWJRs3sYMB9kqfG4rnCGrZmZQxYUaVykRDxCPFSIUQiQ9RwtINZme+HkiH56WM8T5dBIamGBo7Vy33x1l/l/ZeXAmmPr+LS9XBEx2VAYGSNei4d8FHrujD9K34ihvmXYDUUDFNpCqQ89sexDf+HPm1awbX7dGw+6wtf38s4d+xXLBrfEx0/Xgx/5dhUeQGY264e6rstQFCeeu73SpGGJ/6/YfWETmjapA3+73gKP+F1isSDmNSyKdoOX4j9Vx4hRXO8ir/Ley6vjHt7MKtfN4zfHAbUaYOefbuhVU0pbq7og7rV66Pd1+dQ3iClDMNoUNZQMAxTBaRXaLqdiMQtF9N9fngIlczrNLdVN1oTrRwMI5VubPqSvtp2i9LVU/8CMvpjRXsSQ0BGvTfTn6WOySGjJ6vdSF8opuYLQgvH36gweQLdOvgjfbf97tvPW673V14pv39P7W2caeqpF/RakXDbc9qzAem7LqWCoT4Yhikfq6FgmKoiMoSJYSmHlH5r/N/yyWiienGhMVw9V2L5xJYwVE38KxCS0nTRolUtZF/Zhd2PSxmFMu82dt80RSd7ATLT0/HWlRNZPlg0dj72h77DvOV6P+WleOmN2WNWIn3UFqzqa/16Va3QCn2W/A8D86LwRz6fxjBMuVhAwTDvnRDWnYegaw3+cJPGIzToIVJVV14ZMuMjEeJ/CmeDk1QXY3lKBAJ8TsD7yn0klToEeCoirp3G8RPncSMqrQIXcBkSEiTo+cUYOCu4wGFHEEo+Pci4cADPP5qC1iZAWkpKqcvMenYbl7yP4cTFW4jJLP4NObSgpcXFVEIB8vPyIJOVyHjWM9y+5I1jJy7iVkymxvJlyEqMxr0AH5y68YJLz0J04BmcvfWiKI/FyquIIiMK132O4+jJy7jzLKsC5VBAhtD1C7EvoQ0mTXWFHp/6GrN++HqRO+xUHyqQT6Uyt7OIIjUS18+ewPEzfrgTlcwPs65W3jSG+dCxgIJh3if5Y6wY9hkuKa8Muf5Y2NURVqY2aDV5P6K5q40i9hjmDe2Ojl3cMWL5CfiuGY9+I+di/ZZFmNTTBa08T0Gz1UPuHwcxvfsALPaN5wIRPyzs1hAd5l1GUrlX02zEvxKjRufxGNdBG08ObsfFTH6SkiKOuyjL0Xe4E8wMgfTUVO7yqSEvEodmdIX7gouIzc5ElPccdHRohxmHI1UXU/nTY1j0uRfC8hRI9FuLz6ZNw9SvdiNUtZA8RB6aga7uC3AxNhuZUd6Y09EB7WYcRqRy5sxrWDdlALq49cWQBV7YM60TXLu7o0+nsdgW5ftaeanl4o8D09C511xciJMiPWQ9hjash65Lb3BbWgGye9wFPxzk0AEdbco7BWqjUd++aKRsmVpePp8rM/aG7VRRIMHnK3zUYTIOR2Ug6c56jGxsh5EHlLkubxrD/EPwjz4Yhqms/Fs0z1lMIuuONG7mZ/TZZ/9HU0a0J9v60+mKlP9OViDNcdIicesl9LDg2bz0Ek2rLSKhRRua/Vsk5agSk+jAUHPSshpL3uoEonRfmt3YnDqvfULqWeUUv6UX6Ula0MKwclou5IfT4l4T6ESOnBJ2DyAzkSkN8EoobDcge7CSPp0fQFLKIC93XZK4/UTPChsV5NCN+S5k4rpEo11IBv0+24nEui40/wafuaz9NMhAixxmX6NcdYpKzo355GLiSks0GpVk/D6bnMS65DL/hnpb80NpQXMxCU3sqP+qEEp5dJI2eQVSgjIPpZRXht8X1Ni4BS0I5tcku0/L2uqTWe+NFFW0mrKl7yYPPQFp99hMiXxShZSTzwptp+wx/dhWh2pNucCVtZKUrn3pRpNOc1PLm8Yw/xCshoJhqpjQ+iNM/nYe5s2biy+nDISLmfKRAE/HFrWqcYedUAgBnwSBAQz0BBC3noj5g+z5rppGcGxQE4K0l3iZo/ysQPyhVdj22AxWub7YsWUzNm7YgD23kiDIf4C7waovlU4ej0SyRDVunVYDJmCAdTrO79yPp6pM5eL6vkdwHu3K3Y9rwchIH0hLRnJBbUDGGfy8ORw2nbuhXmF3UwO0mzwaLWRh2LntCpSdV0qXgTM/b0a4TWd0K5oZBu0mY3QLGcJ2bsMV5cwCfejrckVi5YEvZzSFSYN+8BzTFlbKs1PJ8lLE4+DKrXhcrz8GN+ZH0xQ54Zvfk7k7/KmoU2aX2CKK7ExkyQikUID793XSa1gzfiRGjhqN0aNHY9SYb/FbDFdYZeazotspgURCiL+8F8cilDUP2mi/7Bx+6c394uVNY5h/CBZQMExVE+rA2MISlpbWqPfRBMyZ3QN1KvA+A4FEm7uMFBGJlDPJIVM9OshHSFAIskXWqOtogxo1a8LW1g4O/eZh37EjmNetzJYA3KxcQCHgAgrltc6gOyYMr4+8AC/sCuMWnOqDo2ldMUJ1IRTA2NgQlJaCFD4Ckj26g9A0wIzbHs1rtciuCRpZEhIfhuPPwmipBNkj3FHPDMviM6NJI0tQ4kOEa8wstK6N2mL+Q1nyg3EzJBvCajaw0SxTLQkXDlWM0Nga1Y2EkEeE4V6xBhA8nQ6YtWkFRhjdwsH9Z5HT/TMMrF20Aa/ls6LbKbTF8C8moWHiXoxsUhcth8zDgQdSaCvPwuVNY5h/CLa7Msx7ZYz2Q/ujruaF5p0QpNJc7q5aAItmvdCnT1/07dcP/fu7w92jD1rVKHsF8pfxSDWuxl/sJGg9fgxaCsOxb7sfIg5fhM4Ad3VtABcyGJkYckEGF1Dwb+hS5OUin/u7sudHsZd2CYxhbMDNJBSWfRJR5CFXPTPSi8/MBS4G3HzcP297BqI85OURKCsD6eW2GymHpD16djIFPT+FfRe4QKAUQh1rNGlQA0JuO21qmZR/oqzwdgpRvd8vuB7sgzWfNkbK2WUY1bE7FgQq33RR3jSG+Wd428OZYZhyqN87y13wVJ9KoyhlWkFKyfmUnwpStFDX3hai/BBcuhBfau+BssjjEiAzt0LBTbWowRiM66KHmIPfYKK/LUZ8VFC7IYCJERdQZHEBBf8cQ+LgDEc9OSKCbuCl5kopDWmZAlRzcoZmLKN8jFBI4gBnRz3II4Jwo/jMSEvLhKCaE5xVM3PbrdrM0sqtRHmJ66FebRFk4YEITOXT3pbQEoO/mYmWunE4tHAVbla43WMZ+azgdiqSL2LznnBI7Hti1saLCAtYho64i83bLiO7nGllP1JimA8LCygYpqrkJSAhWcFdOBLxslg3CQ2KFCSncRektBSkFtT2c2lJ3K2tIp27SBdejxRITUnnLtBpSFL1HdWC07ARaGeQjgtL5+BwTMEK5Ejw3Yp9wWV1MFTgVeg9REtzi9pxCG0wdHwfmKf+ASO30WhU+KxAAF1dbQgUiXjxgv+25QDMGFUXef7bsS2saB3ZNy8iILsFPKd25tt8iCASEZLiXiBbkYrwc36IkFliwIxRqJvnj+3bwoq6QGbfxMWAbLTwnIrOypnlr/AqmSuT5CS80rweK5UsL5Ejho3qAMOUk1i68FJh7xZ53DksXngELxRyPN41CT37zMShqMItfo12y2+xf8sY2EWsxIixmxGSwU8oRMjJUb5KXYq0FL59Spn5rNh2CoWxOLfGC0H8F/QbusHVRgQDQ2NolTONnaSZfwy+cSbDMO9MRk/2f0EDO9YlY4mEJBITqt9pEH15MJLvjaEmizlCcz5uQlba3He0Lcm593TacXo7eXZ2IBNlmr4ttZvsRY/ys8h/aV9qZKFNYokOVXfxoB9/V7b2z6fIQ9OplYWYxJZNqfewETS4b08aMu8kxZTauyGXAlZ6UBMrHdI2tqePZuynyILvZV2hz7tOozOFr5/MoatrRlFnBxMu/3pk02oAzdr9QP3Wy4zbtH6YI5nbdafZa3fQr6tnUA+XTvTZ0eiit2LKHtCKDvokEOqQoWkd6rn0KiWreopk0O31w8jR3I66z15LO35dTTN6uFCnz45SNDdz/oNdNK1HI7JQlYkFNewyjH70zVDOWGp5eT1UzhRFh6a2JAuxLtVq40GfDOlBbTqOp50PlL0+cujiTAfSFYip8dwg1XLKJqekoF9pZs8GZF2nHQ3/cjlt2rWP9m7/ib6b1J869xxPS08+oSzum+XlU6387VTJOkzDzU2oyciltH3vDloxuQM5tPSkw0+5H6W8aQzzD8EGB2OYf5qsWATfDEWs1BB1mreBc3XNppzvixypkbdx60E8cg1qo7lrM9Qo0Q5UnhQO/+vPYejcAa1q6/OpavLUSNy+9QDxuQao3dwVzUrO/NYUyIy5i5v3XiDPpD5at2kI88KaFgWSDo/DoDue8Fvejk8rX15SBILDIpGQLoeuaXXUdW4G+3cYGezN25mLhPtBuBuZBu1aTeHqUgtFJVXeNIb58LGAgmGYfxVpzBksnr4VRouP4GsXvmspwzDvHQsoGIb595A/w/GVO5HTexZGNDXmExmG+SuwgIJhGIZhmEpjDYgZhmEYhqk0FlAwDMMwDFNpLKBgGIZhGKbSWEDBMMw/Vl7yA/gFRha9TIphmL8Na5TJMFUkNyECj+KlEIpEMKzhCDuzssfXkCU/xePn6ZApJKjWwBHVP5BBJeWpsXiusIat2du/g6E08uQo3P8ziysT9WihpJCDDGuhkZ1ppe5m5H/swYxPf8D+69HI7bUdCafGo9J9OuSpiH2ugLWtWYUHGmMYpgiroWCYKqFA2hN//LZ6Ajo1bYI2/3ccKfyU1ygScXBSSzRtOxwL91/Bo5SS75v+m+QFYG67eqjvtgBBpY3C+Q5yn92E9455GNTaGY2dXTH0+104eSeOK63KEdUbjU1n12GwlRASXb3CcUreXR4C5rZDvfpuWFBVG88w/zEsoGCYKiGEVYdJ+GHBUDiJFEg8vQOHubvd0sij9mL7+RQIGwzBD0umwc36bQ5Dbtm3D2H59zsQXNZ4Ie9K0hiDZs7ErJkD0LCK3gel12w4vluzDbPaiyHQdsOXO9Zg3iCnqqkBEJvCxEAI0VsNWVpW+UnQeNBMzJw1EwOqauMZ5j+GBRQMU4UoKQ26LVqhVvYV7Nr9uGhArkJ5uL37Jkw72UOgHO76rW/Vs+CzaCzm7w999+G7y2QMV8+VWD6xJQz5lCohNISxIRdQ6BjB6K94S3i5yi4/Y1dPrFw+ES2rdOMZ5r+DBRQMU4VkCQmQ9PwCY5wVXOCw4/VHBxkXcOD5R5jS2gRIS0GpTzuynuH2JW8cO3ERt2Iyiz8e4CIULS3u/l7ZJiE/D3ky2WtBS9az27jkfQwnLt5CTKbm3DJkJUbjXoAPTt14wS03C9GBZ3D21gsuzOFJ4xEa9BCpJfKlyIjCdZ/jOHryMu48y6r0Iws1BVIjr+PsieM443cHUcklm1Zm4dntS/A+dgIXb8Wg2KaUKw+JD67C54Q3LofEFR/+u9zykyI+NAgPS258ufmQITM+EiH+p3A2OElVLvKUCAT4nID3lftQDRTLMP8RLKBgmCqUHf8K4hqdMX5cB2g/OYjtFzP5KUoKxB09CXnf4XAy426D01ORWqzaPQ+Rh2agq/sCXIzNRmaUN+Z0dEC7GYcRqbziy5/i2KLP4RWWB0WiH9Z+Ng3Tpn6F3aH8QvIicWhGV7gvuIjY7ExEec9BR4d2mHE4Uh0wZF7DuikD0MWtL4Ys8MKeaZ3g2t0dfTqNxbYoXyzs6ggrUxu0mrwf0YUXzVz8cWAaOveaiwtxUqSHrMfQhvXQdekNZPPfeCeKBPh89RE6TD6MqIwk3Fk/Eo3tRuIAv9C8yEOY0dUdCy7GIjszCt5zOsKh3QwcVhVE2RQvfPDd4E/ww+knSOfm2zu+GVwmHkGs6kpfVvllwX9hVzhamcKm1WTsL9r4N+ZDEXsM84Z2R8cu7hix/AR814xHv5FzsX7LIkzq6YJWnqfKbkvDMP82yl4eDMNUhXwKX9yLJpzIIXnCbhpgJiLTAV6UoBrGmyN7QCs/nU8BUqIML3fSlbjRT88KJhLl3JhPLiautOR+0ZDVGb/PJiexLrnMv0HKAcyJsmj/IAPScphN15SjdRfKoRvzXcjEdQkVzZ5Bv892IrGuC82/oZ6b8kNpQXMxCU3sqP+qEEp5dJI2eQWq85gVSHOctEjcegk95JeR4fcFNTZuQQuC+ZXJ7tOytvpk1nsjRVV4ZO0s2jdQn1vncDqiHAucI3v8I7XVqUVTLnCFoSS9Rl+6TaLTymzm3KD5LibkuuR+0fDvGb/TbCcx6brMp4JNodxrNNtBTCbDDquGGOcWQlem1yFJ42/pFj9keKb3OLIWN6K5QYVjiJdRflkUOMeJtMStaUnBxlc0H9JLNK22iIQWbWj2b5H875REB4aak5bVWPIu+B7D/MuxGgqGqTJyxCcSLKsJIbQagAkDrJF+fif2P1XXe+de34dHzqPhqg1oGRlBH2lITi64G87AmZ83I9ymM7rVK+puatBuMka3kCFs5zZcKVZ3X0LGGfy8ORw2nbuhaHYDtJs8Gi1kYdi57Yq66l+gD31dcPnzwJczmsKkQT94jmkLK+WZQMcWtbi8Q6ju4glFPA6u3IrH9fpjcGO+oaLICd/8nowEn6moU3av2DcSSCSQUDwu7z2GCGWthHZ7LDv3C3rrKDflZ2wOt0HnbvVQtCntMHl0C8jCdmJbmQWhjeZT1uPAZk8041t9atvXQQ1E4l64Zk1RaXRgW6sauF8OQtXGv0U+BAYw0BNA3Hoi5g+y55akZATHBjUhSHuJlzmqBIb512MBBcNUmXwuoBBwAYXy8mOA7hOGo35eALx2hUGGVPgcTUPXEeqLk8DYGIaUhpQU/iG77BHuhKYBZhaw1LxQi+zQpJElKPEhwv8s+4G87NEdqGe3LLr4cUR2TdDIkpD4MByaswuta6P2m/pa5gfjZkg2hNVsYKPZLUNLUuleGkLb4fhiUkMk7h2JJnVbYsi8A3gg1eZOSDI8uhPKhVpmsCheELBr0giWlIiH4X/yaa8zdv4YA5tk48L6udyFfyTGzD+JWIUCUmnuW7b7ePt8CCTaXEhTRCRSlpIcsmKPtRjm34sFFAxTVeQvEZ9qjGr8BUjSejzGtBQifN92+EUcxkWdAXBXVQVwFxsjExhyQUZKCv9eOUUecvO5vyt7fhR71ZwAxsYG6jvnco5WRV4u1LOno/jsxjA2UNc6vPXBTnnIyyNQVkbV9ygRVke/X64j2GcNPm2cgrPLRqFj9wUIzFIgLzef24ZMpBcvCFUQpt6UsrckK2QDBrYciF0CD/xv5z7sWT4Y9m+94UqVywfD/BexI4Jhqoo8Dgkyc1gV3PmLGmDMuC7QizmIbyb6w3bER9DjJwlMjLiAIosLKPhqc4kDnB31II8Iwo2XmldvQlpaJgTVnOBcQ+NOmRTF7rglDs5w1JMjIugGis+ehrRMAao5OUM9OxcgqK6P3P+V/ytGUTxNXA/1aosgCw9EYCqf9q5UKy1YugLJFzdjT7gE9j1nYePFMAQs6wjc3YxtlxVwcHaEnjwCQTdeFttGSktDpqAanJxr8ClqhVsiC8c6zy9xvs5M/DzVFVblVaOUKD8lRbGNl7xFPgpmLFmmyk/FUxjm34wFFAxTRRSvQnEvWorcwkcLQtgMHY8+5qn4w8gNoxsVXeEEurrQFiiQ+OIF323REgNmjELdPH9s3xZWNDZF9k1cDMhGC8+p6My/nlskEoGS4vAiW4HU8HPwi5Bxsw/AjFF1kee/HdvCirpfZt+8iIDsFvCc2ln9bF/+Cq+SuQtfchJevXZFTUFyGjctLQWpykyJHDFsVAcYppzE0oWXkMR/Xx53DosXHsELhRyPd01Czz4zcSiq7McxyjeDxifJQNkvkZCmXIgQwthzWOMVxG+nPhq6ucJGZABDYyG3KTMwqm4e/LdvQ9GmZOPmxQBkt/DE1IKCkCUhKU0OaUqyuiunLAL3I/IgNjCELn9my4yNRRJ3TZflFZVJqeXHhQwpyWlc3JOGFNXGK4u0gvngyi0pnaBI54K3wjLllp2SzsUtaUji+47KH+/CpJ59MPNQlOozw/zr8I0zGYaphNyAleTRxIp0tI3J/qMZtD+yoF9AFl35vCtNO5POfybKubqGRnV2IBOJhPRsWtGAWbvpgaoTQgbdXj+MHM3tqPvstbTj19U0o4cLdfrsKEUXdFIgGT1Y0YH0BULSMTSlOj2X0tVkvqdIxm1aP8yRzO260+y1O+jX1TOoh0sn+uxoNClnz3+wi6b1aEQW2hKSaFtQwy7D6EffDNWsspgjNOfjJmSlmmZJzr2nk9dDbq78KDo0tSVZiHWpVhsP+mRID2rTcTztfKDsIpFDF2c6kK5ATI3nBqmWU1L6leU0snczqq7DLVeiS9YuvWn0T4GUcng4mZs0oZFLt9PeHStocgcHaul5mJ7yxZZxez0NczQnu+6zae2OX2n1jB7k0ukzOsoXRG7QehrLl6FE35baDFpCl1Pj6Mg4e9IxaEQjl22lDQum0KiJw6mdqYiMWoyj73/xoWhZKeX3MpqOzPmYmlhpc3nUJkvn3jTd66FqPW/Kh7JMPZX5UJYbl492k73oUX4W+S/tS40stEks0aHqLh704+85lHNxJjnoCkjceK5qXob5t2GDgzHMB0aeGonbtx4gPtcAtZu7olmNggclPHkSwv2v47mhMzq0qs3d32uSIzXyNm49iEeuQW00d22GkrO/PQUyY+7i5r0XyDOpj9ZtGsK8sLJFgaTD4zDojif8lrfj0yooNwH3g+4iMk0btZq6wqVW8S1RDtYVefsWHsTnwqB2c7g2q1H4yKhsWXh2KxDBz/Ng6tgW7R3NkBMdiKuPCXVd28DBVPSG8ivFO+WjdIqkwxg36A52+y3nUxjm34MFFAzDvDNpzBksnr4VRouP4GsXNgZGuaQxOLN4OrYaLYb31y58IsP8e7CAgmGYdyN/huMrdyKn9yyMaFrpwcP/5eR4dnwldub0xqwRTSs/1DrDfIBYQMEwDMMwTKWxXh4MwzAMw1QaCygYhmEYhqk0FlAwDMMwDFNpLKBgGIZhGKbSWKNMhqkSWXjxMBKvZEKIlMNVkgJyhRhWDo6ozr9Q8cOnQJz/bhyL1IZ1NUuYmxhAV6JVOPomKWTIy8lEalICXsTpo90UD2i8/JNhmP84FlAwTFWQx+LS5l9x4vQ+bD8fiVy9hvCYNgMzP/eEm/U/pSJQilPj7TDsYl0MGNoNjavrISd4H9Ycuods3cYY+sVINBUmIvzCYfx21xm/PD+Lyeb8rAzD/OexgIJhqpAifiN61p6Bq1234oXPRJjx6f8I8gdY0usrmGz2xvS66oHIFImb0bvWVPi1/xnRl/4PNZSxkewP/NxvElJWXMQCZ1ZFwTCMGmtDwTBVSGhkCmOJALpGxurBuP5JBJZw/3EdxvPBhJLQgNseHQFEJqYwKThbaNXDhM0bMcaOBRMMwxRhAQXDfBDykBH3B4L9TuJ8aCqUg1bmJdzDlVOn4PcoRfVZKTf+HvzPnMBJ/8dILUiUZSIhKhRXT59GUAKXKE/B499P4YRPIKIyCoe/fDOhJRq3qFtinAoB90/Bf4vo126IOob8hzeSISsxGvcCfHDqxgtuW7IQHXgGZ2+9QB6X9/jIEPifOotg1XCmcqREBMDnhDeu3E/iR2JlGOafgAUUDPMeyR7uwkRXG+hoSWA37ZJ6uO7sa1g1sBksJVrQabMUj7irpjzqCL4a3BUdugzEp7+cxoXl4zFs6hJs+HE6ejVpghHbL2LH1N7oPWExtmxZiAndmqP7/4K5S7UCLy+swIR+bnDrPxQ/bPHCgi/W4Fx0IsJ3T0KLBt3wg19SYUBSlSq6bci8hnVTBqCLW18MWeCFPdM6wbW7O/p0GoMVv36Lod07oov7CCw/4Ys14/th5Nz12LJoEnq6tILnqRTlUhmG+SdQtqFgGKaKZO2nQQZCMhl2mLL4JPnzX6iLRIscvggg5aDfKrnX6auGWiRx+4li+NHHKec0fWotInH1TvTtmT9VQ45T1gWaYisikVUXWuSfQKqvymPoJzcJiVsupvv8cN+5Vz8nBy0hmXX/ie5L1WmU/4BWdjQgrVrj6UQSn/a2sg7RUCMB6Q3YW7g9miq8bfmhtKC5mIQmdtR/VQilPDpJm7wCKYGbLr00jWqLhGTRZjb9Fpmj/n7SARpqrkVWY72JT2EY5gPHaigY5j0TmpjAiDvSRKKitgkQmcDESMBNFKGwJYLQEAZ6Auh19MS3H9uo07XroI6NEMIGH2NUeyt1laLQCjbWekDKS7zknwkI9fWhI9BCi4HD4aitToNWA4we3RHaz49i1+lkPrFqVXjbBPrQ11Vm3QNfzmgKkwb94DmmLay4eQUGBtATiNF64nwMsudbnhg5okFNAdJevkSOOoVhmA8cCygY5oMigEiijaLLswBC5VFKBM3uWAKBAKRQQFGsjxY3L3dhLzqohTBt4ABrYQ7+jInj0/5eQuvaqC3mPxQjgES7IBJSEkGkjEbkMsjUCQzDfOBYQMEw/2ZcNCLkLtaGJiZ8AsMwzPvBAgqGee8EEHBHmrJGoQgpKx0AheYdeEF1g2a1A/+9EjUUqkTVhPJlPPkDcQIndOxYjU95W+r1K9de+toqvm3q7JaynIKEktuj/PjalxmG+VCxgIJhqhp3ERRqaTx60KqJWtZA3MP7UPWM5C6zL/z2widCDlnYCWw6ch1Ps7jk/CQkpckhTU8rajdAqUjP4P6fmY70wotrNlLTpFBwadzXNRBysjKLenTIH2P3nqswGvgVpjRRPT/A412T0LPPTByKqliHTMXLOCTmEmSJcYgvbZaKbpv8FV4lc8FEchJeacYeHEVKErdtCqSnpRXlXZGKFG6DFWlcmVQsqwzD/M1EP3D4vzMMU1mZQfBaeQbSzjMwvaetui2EiLvoKq5h76bt2Od7G/7HDiBQ3Buu0pMIktZEdX1D1DJ6iJWTF+D4HxnI/TMYAYnWcHPLxK5R07D+egKykx4jKMoI7Xqb4vLnw/HDyVhk5TzFnetJqNGlKxpk+WHrr34IDglFkkCBV498sfv7BfA2+Rx7tk6Eo64yI3kI2TkXy/ddQrjex5jW1UaZWDp5JA5+MxVf/m8fAl/lA/F3cfH3IDyGM7o3tSwKliq4bWumzcW+kBTkJYXDz/8uMmv3Qgc7IR56TcfIeUfwOD0fcWEBeGbeAb3rP8DyIdOwNThZ9S6Oq3flcPLogNqFLTwZhvkQsVdvM0wVkt1bCNdWO9DS+wG29NTnU5VkeHn/Gm5GyVGrVQc0rS5Gwr1QSB1cUFuzLeI7kgV/hxauK1FtRRCWNY3FnxkiWDm5onU9U40GnkoKJB0eh0F3POG3vB2fVlnvd9sYhvlnYAEFw1RKFsIPb8VNm1EY394cset7o7v/SFw8OAa1i1/J36uCgKLGhuc4O6nsEbukMWewePpWGC0+gq9dJHwqwzBM5bE2FAxTGXmh2P3DN5g6ciJ+WLsKvyaPxG87/9pgQkmRm4t87t4gPy+v7Ldiyp/h7IHbaLRkNwsmGIapcqyGgmEqSZEWiZvB8TCo3xSNbAz+8ig9+0UILv00FcNX3YLRx//D9gWfoH0LOxiz2wWGYf5CLKBgGIZhGKbS2D0MwzAMwzCVxgIKhmEYhmEqjQUUDMMwDMNUGgsomA9GXvID+AVGIpf//F/xT9pueVokrl29jzT+M8MwTIEqDyhyEyIQGhqGe+H38TS5/HfmypKf4v69MO77jxAv5ROZMkiR9jIJySmpSE1NRuLzaETc58ouPAIvMt5uPEZ5aiyeJb+nMRzlqYh9lqwxhsObyf/Yg6kf1YVltcbotex3bkv/RTKi4H/+FhJL6ctZ3na/19/oHSgSvPF1t4awtKyPLt+cKRw2nWEYpkAVBxQKpD3xx2+rJ6BT0yZo83/HkcJPeY0iEQcntUTTtsOxcP8VPEops/c8o5R6C3sWzUCfxlYwM7WAfZfPsPG3Mzh1cC13UaqPhj0/x4GHFbgU5wVgbrt6qO+2AEF5fFqVyUPA3HaoV98NC95i4aJ6o7Hp7DoMthJCoquHUke3/kfKxNkvOqPrgK+w/+nrV+Ayt/u9/kbvRljNHct9dmJSfREEOnrQE/ATGIZheFUcUAhh1WESflgwFE4iBRJP78Dh56UHCvKovdh+PgXCBkPww5JpcLP+rz594crp9iEs/34Hgsu7ITXpiBm/7IXX/7WAltAE/ZcewE8L5mL+/zbB+9o+9I/bgHGD5sFfORBTeSSNMWjmTMyaOQANq/zdRhI0HjQTM2fNxIC3XbjYFCYGQoiE/579QJFwDDvv6sJWdh2HDz9BqTf1pW33e/2NKkFkClMjLpIQikq8zpthGKbKAwo1SkqDbotWqJV9Bbt2Py7lRJqH27tvwrSTPQTKURT/05UTWfBZNBbz94dWoBxEMDcz4X40CXQkGqd0/Zbo370OFBGHsf/am57EG8PVcyWWT2wJQz6lKhm7emLl8olo+T4W/o8ix5M9+yEduw0z2gtw+7dDeFDhJxjv9zdiGIZ5H95LQCFLSICk5xcY46zgAocdr1fbZlzAgecfYUprEyAtBaU+7ch6htuXvHHsxEXcitEYkvkdyFMjcO30cZw4fwNRaQVLykNG3B8I9juJ86GpquUrRza8cuoU/B6lFK4vN/4e/M+cwEn/x0gtJROlL1uGzPhIhPifwtngJNWy5CkRCPA5Ae8r94sPx8z9XUtLi4sVhBDk5yFPJiv9TrZAqVXNQujr63KTxBBLZMhKjMa9AB+cuvGCW3cWogPP4OytF9wW86TxCA16yG/PW+S1gCIDUdd9cPzoSVy+8wxZxcpFivjQIDxULZxbdkIUQq+exumgBG7ZcqQ8/h2nTvggMCqjsIzfpPQy/sDlBmH7cSMMGdYWgwa0hVbYbzhQbhVUCcV+oyJZz27h/PGj3G8TirisRNzevxSfe36OLTczIMuMR2SIP06dDVYPJS5PQQS3H5zwvoL7ZYwB/uaylSIu1Benjp+Cb0gcsj+cZh0Mw3xg3ktAkR3/CuIanTF+XAdoPzmI7Rcz+SlKCsRxFyJ53+FwMuPuv9JTkVrsJJWHyEMz0NV9AS7GZiMzyhtzOjqg3YzDiOSuiPLIA/i/TnVgINaCxNIFn2y4rbpQyh56YUq7mtDRro4WQ37CDdXVMxd/HJyO7gMWwzc+E/F+C9GtYQfMu5yE/Kgj+GpwV3ToMhCf/nIaF5aPx7CpS7Dhx+no1aQJRmy/iB1Te6P3hMXYsmUhJnRrju7/C9ZobFj2smWxxzBvaHd07OKOEctPwHfNePQbORfrtyzCpJ4uaOV5St22RP4UxxZ9Dq+wPCgS/bD2s2mYNvUr7A59y7O2IgVh92KA2r3g4XQL66YMQBe3vhiywAt7pnWCa3d39Ok0FtuifLGwqyOsTG3QavJ+RHPXD0VF88rL/eMApnXuhbkX4iBND8H6oQ1Rr+tS3MjOhf/CrnC0MoVNq8nYzy1c8fICVkzoBze3/hj6wxZ4LfgCa85FIzF8Nya1aIBuP/ipL3xlKruMy53tA5B2dhuuOI6Ch5UWankMQnvJIxw9eLMoqCtLrv9rv5GKIhGXF3TDR1N+Q4w0C4+9xqGJTRuszvsYfRqZQCx4jmPzhqJ7xy5wH7EcJ3zXYHy/kZi7fgsWTeoJl1aeOFWsQdObyzYv6jd83qMnPjvyGBnSBPgv88TqO/n8VIZhmBKUr96uWvkUvrgXTTiRQ/KE3TTATESmA7woQc5Plj2glZ/OpwApUYaXO+lK3OinZwUTiXJuzCcXE1dacl/Gp3Df+302OYl1yWX+DcpRJuQG04IWEhI7fU03clVfUUnaO4zafu5PGfzndN/Z1Ni8M619wi9LHk9beumRpMVCCsvnPuecpk+tRSSu3om+PfMnl3NO1gWaYisikVUXWuSfQKqcyWPoJzdufS0XU0G23rhs6SWaVltEQos2NPu3SHW+KYkODDUnLaux5K1O4GTR/kEGpOUwm65pbEtZXm3tRdrCajTupHoB8sxourzKg+wtW9Kcc4nq/OaH0oLmYhKa2FH/VSGU8ugkbfIKVP8GWYE0x0mLxK2X0MOCIq5oXjP86IvGxtRiQTCpsyqj+8vakr5Zb9oYpVxYFgXOcSItcWtaUrDw3Kv0uYMWCc2600/3uR9dJZ8erOxIBlq1aPyJJHVS7jWa7SAmk2GHuaWovbGMP1TyZ7Slb3P6zI/fXvmftKkn9xvXmU6XC393XinbXdpvlH7qU7KRNKPvQ/gNzw2ib53FZOqxi+ILDx8pXZpWm0RCC2oz+zeK5NeVdGAomWtZ0diine7NZZsVQHObmVDrhaH8b83JDaAvHbVI0m2jxjoZhmHU3kMNhRzxiQTLakIIrQZgwgBrpJ/fWdjKPff6PjxyHg1XbUDLyAj6SENycsE9UQbO/LwZ4Tad0a1eURsBg3aTMbqFDGE7ubs+ZUcGSRN8OsENOhFHsDeA79mgiMWRY1J8MqM9DFSf43Fo1TY8NrNCru8ObNm8ERs27MGtJAHyH9xFcA73HaEhDPQE0OvoiW8/toGWcj7tOqhjw+W9wccY1d5KXYUjtIKNtR6Q8lLdXa4iyxYYqJYtbj0R8wfZQ0e5HBjBsUFNCNK45Si/864oC3d3zsLkiZ9iwswVuIih2BsSgBU9LdX5FehDX1eZbQ98OaMpTBr0g+eYtrBSTtSxRS3ut4FQWPT0pEJ5VSD+4EpsfVwP/Qc3hrqtoAhO3/yO5AQfTK2j/L10YFurGpcH7p+ChQu5vOgIoNViIIY7cj+6ihYajB6NjtrPcXTXaT6thIqU8QdKdn8Xtt82hvaT/di5cyd2ep1HlrkN8MwbB668qdUs57XfSIaHATeRAAtUU6YrSRrBpZE+MoKDcL+w0kAAAwM9CMStMXH+INirf0gYOTZATUEaXhbsdBUo2+Tjq7Hpvh16uTvxvzVHZA5zk1KfuTHM3yM3Elf27VIfZ6o/u3Ao4Hn5j42Z94Y/O1WlfC6gEHABhfICY4DuE4ajfl4AvHaFcafFVPgcTUPXEfVUrcQFxsYwpDSkpPA/v+wR7oSmAWYWsNRocwiRHZo0sgQlPkT4n8rvCmE7bAL6mD3D8T0XoXygInuwB6cMR2CkPT9jfgiCQrIhsq4LR5saqFnTFrZ2Dug3bx+OHZmHblx8oCaASKKt0WpdoDyPK6tuoDlqmkAgACkUUCgTK7xsbj5u2QWXUSWRSBm2yCGrzLNoLmBoMf4nbP11B3Zu34hlXwxH2xqvdwcQWtdG7bfog1l+XvMRfDME2cJqsLFRhV48LUg0P5ZBIBIpm4kUEpo2gIO1EDl/xvApJbxFGX9YpLi67Si0R01CJ5vqqF5d+ccaTsMno1+1BJw+dJELm9+WEDa2NtCmZCQWvtAiHzlSGYTVa6JGyfIXSKBd/IdUBcvygp3ujWWbh/BbYcgUmMNKFYUyzIdJ9vA3LF+8FEuX8n+WLcfOa4nFzt3MX6fqzxbyl4hPNUY1PiKQtB6PMS2FCN+3HX4Rh3FRZwDc+ZOUyMgEhlyQkZLC//yKPOTmc39X9vwotkcIYGysHBaa+6cgx2Z9MXFwLSSe2ovTyVJc9wpAg/H9Yc5PBkkhzSUoBBZo1qsP+vTti379+qO/uzs8+rRCDc2A5W29z2V/sAh5eXlcnJWFjCrplqP+LQWGJvznEv6pZZx0AlvPO2DKN8Pxce/e6F3wp+8UTOhthVc+B+BT5stZysIFFCPmYkqDCBz8xRvR2XKk3t6C3bds8em3n8LhbcvijWVLyM/L537rXOTksFMz8+HSavY1zj+KwJMnT9R/Ih7i3Ncu6tpm5i/3HgKKOCTIuDubgjtjUQOMGdcFejEH8c1Ef9iO+AgFN5cCEyMuoMjiAgr+sYXEAc6OepBHBOHGS82LFiEtLROCak5wLryS6KHTxFFwSj8Prx07sCvyI0zowNfxKmnVhb2tiLsZu4QL8WVdAAtOlponTVJWTnD/K15DoUosGOn9LZddbDmqT8VTVEhRsYaGfB5KWYIGfhuU/1d91qQoJa0gpby8ilGvXm2IZOEIDEzl016nqsGpiIwn+CNOAKeOHfkEtcIcVKiMPzRyRO/7FTdbD0Pfwsi2gD7cPHrCKvUCDp5MfO23Ll7yr/9GirRIRJsNwXj7QCydPglfHwQmn7mGDf2Vj5iKFMxXsKsWUH4sTHpj2WqhTt1aEMmfIPye5svSuCBEuRC5TKNxMsMwjFqVBxSKV6G4Fy1FbuFDLO7uauh49DFPxR9GbhjdqCh2FOjqQlugQOKLF/wzL0sMmDEKdfP8sX1bWNHYBtk3cTEgGy08p6KzZszQZBzGtcvH+W++Q1K/MXDUvFPTcsKwEe1gkH4BS+ccRkzBGVCeAN+t+xCsXHh+EpLS5JCmp6HwkTylIl1ZJ12sliQbqWlSKLg07usVW7YiBUncAhTcsot64ymQmpLOxQ5pSNLoxicSiUBJcXiRzU0PPwe/iLJO13IkJCZxJ/UMJCaklx2AyF/hVTJ3iUpOwquSX+LylZzGTUtLQWpBFiqUVxEch41CB8MUnFy6EJcKumdwAeS5xQtx5IXyswIpyWncxSwNKYULV6OcLGQWLluOx7v34KrRQHw1pYk6Scb/FinJ6u9VpIw/NKlXsGpDONq694Qxn6RJ360vuppl4PIebnsKiqfkdiuV8htl+Z+Gv04rjPl6Nbbt3IEtq77CkKamJQ5grvyTlL8Zt59qdAFVpKZw+7ICaUlJ6uPsjWUrQm33QWiv/wre6zYiTBVTyPDi0k6ceiyHLOQI1h0MxNMs7nfcNQk9+8zEoajivzfDMP9BfOPMKpEbsJI8mliRjrYx2X80g/ZH8i3IKYuufN6Vpp1J5z8T5VxdQ6M6O5CJREJ6Nq1owKzd9EDVgD2Dbq8fRo7mdtR99lra8etqmtHDhTp9dpSiX2vZL6eE3QPIovZEOlPQtUNTfiQdmt6KLMRismzam4aNGEx9ew6heSdjSPpgF01xq6dav8SwDnWadYiic27Q2iEtyFpHTGIda2oxdivdk0bS/hkfUR1D7nvaptSg+xw6+qf8jcv2VG6bNjePvi21m+xFj/KzyH9pX2pkoU1iiQ5Vd/GgH39XtrqX0YMVHUhfICQdQ1Oq03MpXU0upQl90gVaMrIXNa2mTRIuzzpWTtR5wGTaEly8UPK5dU/r0YgslOvWtqCGXYbRj77qwpHFHKE5HzchK9U0S3LuPZ12nN7+FnnNp6hDU6mlhZh0a7Uhj0+GUI82HWn8zgeUK4uhI3M+piZWyvxpk6Vzb5ru9ZCb5S7NbyImgbgGdZ65mnbs3kGrZ/chF5ehtO5mqipfuUHraSy/Lyjz0GbQErqs3FXKKeOCPevDkE+3N4wmNwcz0ua23bxhVxrzy82i3hGcnKuraayHK9nqc9soMaF6HQfR/J9+fG27L9x//TfyephP+ffWUldLPbJ0cKHmzg5kV6sm1a7vTO36T6V1v8eTPP8B7fLsTA4myvLXJ9t2k8nrUT5l+S+lvo0sSFvM7TPVXcjjx9/VGXpj2ebQvY0DyI47Fiwad6f+/fvRpyuP0dJuumRUrzON/HwdXX6RRRdnOpCuQEyN5wap5mIY5r9LoPwPH1t8UOSpkbh96wHicw1Qu7krmtUooxWe7DnuP5GgYUO+h0MpsmKDcTM0FlLDOmjexhnVNRusVVKVLFuehHD/63hu6IwOrWpDn0/+UCkyY3D35j28yDNB/dZt0NC8nCeWsmB818IVK6utQNCypoj9MwMiKye4tq4H0wo++3+fv98/Rdr15Zi0MRt9utsBIl3oiGTIiH8Ev72bcTiyJdbdOYOpBQ2S38KbyjY79g4CQ1/BuGlHtKqlg/iwUOQ2cEHtwu8pkHR4HAbd8YTf8nZ8GsMw/0UfbEDB/EsUBBQ1NuD52UlFjWaZipPdxneteuL+F1E4NqrEw5RMP8xsMRxpK6Lh5a7xPPAvIo05g8XTt8Jo8RF87fIhDTzCMMxfreobZTKMJkWuqucOKV8rXvRYn3kbaXdx65FcOSZXKXIhM/kIPVr/DRdz+TOcPXAbjZbsZsEEwzAsoGDeo+wXCDl3DFdj5JDfPwuvc7fw9J8yFseHxLApWtTPxdmls7ErJFndGFeeiZgAL8z/vyOovWI9hv8do/WKbDHgmwUY0bS0JqgMw/zXsEceDMMwDMNUGquhYBiGYRim0lhAwTAMwzBMpf1FjzzkSIu8jjCpMzo2Ys9bK0aOp777cOmPXP4Nh0JYthoEj2ZlvKpaQ97jc9h7NRZy/pcV2bTHJx87Fb6hlGH+i/KSHyDwkTbatqtbbMwahmGqxnuuoVAgwftrdGtoCcv6XfDNmZfqN/X93eSpiH2W/IG/Pjgfd36dhSnTF2H/nXjk65jBwqhiLelFhuaw0BciPeIkVn42BVPX+Gq8AZP5S2VEwf/8LRSO6cW8WRUfn/I/9mDqR3VhWa0xei37HZovE2cYpuq854BCiGruy+GzcxLqiwTQ0dPjh2P+O+UhYG471KvvhgVBeXzah0vcYQ72bvwO00YPQAd7jTqGvBcI3LMc38ychhlzFuNX36eFJ0pRjVboP3wCvlh5AEs9TD+AMv+vysTZLzqj64CvCofvZ96k6o9PUb3R2HR2HQZbCSHR1cNbDMDLMMxb+EvaUIhMTWHEXdWEord/k1/Vk6DxoJmYOWsmBjR8277zCiTePoTl3+9A8F9UvSE0NoVpyV8pLxzrPTpiZlA9jF2wHPOHmOLM2LYYuOlxiRogMYyN9P+aH5l5jSLhGHbe1YWt7DoOH37yYdTO/aXe5XipzPFZDrEpTAyEEBUOV8wwTFX7Tx5dxq6eWLl8Iloa8gkVlgWfRWMxf38oqmQE7wp5vX4h1/cXLPe1xeg5A9DQ3BDVW0/C9D5i+O47iZI3wgJWPfE3kePJnv2Qjt2GGe0FuP3bITz4sJ+xvQfvdry8+/HJMMzf6f0FFNI4hPqewvFTvgiJyy7jeagcqRHXcPr4CZy/EfX6c35FKiKvn8WJ42fgdycKySVHmFRkIOq6D44fPYnLd54hi59flpWI6HsB8Dl1A8pBMLOiA3Hm7C28KKxBlSI+NAgPU5UzyJCZEIXQq6dxOiiBu6eSI+Xx7zh1wgeBURnqlwgV4C7WWlpa4G5zIFC++VEmK3HXmYVnty/B+9gJXLwVozG6ppIMWYnRuBfgg1M3XnDLzUJ04BmcvfUCb1uxS3l5yJdH4/79LHWCIgERkWkwrWMP8w+hEojhor4gbD9uhCHD2mLQgLbQCvsNB8q6TX/Tfv4GeRlx+CPYDyfPh0K1S+cl4N6VUzjl9wgpBftgbjzu+Z/BiZP+eKz6klIeMuL+QLDfSZwPTVXt63kJ93Dl1Cn4PUop3Pdz4+/B/8wJnPR/rF5+CfLUCFw7fRwnzt9AlOZBXMbx8nbHp4YyjvcCeYkPcNXnBLwvhyCONZRgmL+espdH1cqlyCOzqPtHQ2jepn20f9sCGtRAjwSQULeN8VQ4jqb0CR2Y1pncRi2ibbs30Te96pB122/p0iv1N+TxZ2hO+0bUZdZ62r1tIbcMXTIctJ+yVFOVs++nqR+1o6E//Er7dywkD3s9qu62hK5nZZDvEg9qaqFFAu0etHTXVGphqUcigS51Wx9Jfj90oQaWOiQUN6X5d/NJnniGvuvjRCZCAen2Xkg7vv+M5v+0i35dPIycTKyp8wJfUmVJFk1Hv59A3eqKSWjSjDwmTKAJEz+nHSHq0T5z/zhI07t0pXFLd9B+r9U0vVMtsnadTof+4MeczPClJR5NyUJLQNo9ltKuqS3IUk9EAt1utF45eulrcui3Eaak67GncJsLZfjTl846JLbpQT+cu08BK3pSww7f0Lm4ksuR0kXPWqTbdT29KG0VzHuTenw8tfjUm5SDpspj1lM3fS1ymH2t2AikSmXv5yl04fvOZKenRSItY3LovZT8M5Vz5NO9beOoVQ1tEps0oP6rjtEuz3ZkqycgUY0JtOfsjzTOYwANG9iOammLqeawX+nCdk/q1fljGjK8HzXjjgu9lguJ2/VJFrmXPNvZkp5ARDUm7KGzP44jjwHDaGC7WqQtrknDfr1A2z17UeePh9Dwfs24fVePWi68y+WggJSeHJhGnd1G0aJtu2nTN72ojnVb+vbSK5KXebykvNXxWaDs452bKH9OZ+YPogFTl9P2A3tozbhmZOU4gQ4/09jpc6/RbAcxmQw7/PrxxDBMlajygCIrYC41M2lNC0OLTp25AV+So5ZmQJFOvrMbk3nntfSEH4daHr+FeulJqMXCMO6EJaPHP7YlnVpT6IJUPV167Utym3Sau8xyMvzoi8bG1GJBMH+CltH9ZW1J36w3bYxSLjCfQhc0J7HQhOz6r6KQlEd0cpMXBSYo155FgXOcSEvcmpY85Feee5U+d9AioVl3+uk+v0JuGQ9WdiQDrVo0/kQSn5ZF+wcZkJbDbLpWbGzqGzTfxYRcl9wvGlY743ea7SQmXZf5dEOVaU5+KC1orjzB2nEXghBKeXSSNnkFkipbryknoODkPz1J33S24bZRSHrOs+hiUmkLYQHF30L+jLb0bU6f+fH7kvxP2tST22/qTKfLBfuCyhv2c27vDvufK+mKbGjCaY3x+eWJtPeT9jTjQhJ/POXQ6U+tSSSuTp2+PUN/qq7DWXRhii2JRFbUZZE/v4/JKeYnN5KIW9Li+/yemnOaPrUWkbh6J/r2zJ/qYCHrAk2xFZHIqgst8k9Qr0MeQz+5SUjccjEVzJruO5sam3emtUUHMW3ppUeSFgspjM9DqcfL2x6fbzjepVemUx1JY/r2Fh+AZHrTOGsxNZobpN4eJRZQMMx7V8WPPJJxfPUm3LfrBXenogZVInNzmGg8y1fEH8KqbY9hZpUL3x1bsHnjBmzYcwtJgnw8uBuMHAggkUhA8Zex91gEsrl5tNsvw7lfekMHCsQfXImtj+uh/+DGUK9FBKdvfkdygg+m1lHW+Qugr68LCK3g8eUMNDVpgH6eY9DWSrm5OrCtVQ1C5T8FeRLqQ19HAK0WAzHcsaCHuhYajB6NjtrPcXTXaT6tdBlnfsbmcBt07laPywnPoB0mj24BWdhObLvC178KuPWosuWBL2c0hUmDfvAc0xaqbL0VBTLiYxCn3Q6ffTsWDV9sgIfrYKy+XlRNzfx9ZPd3YfttY2g/2Y+dO3dip9d5ZJnbAM+8ceAK/5hKpbz9XEmCRpNnoo9pPI79ehTx/I8rj9qH3+hTzO1qxj+zFMLQQA8CvY7w/PZj2KhGk9dGnTo2EAob4ONR7fl9TAgrG2voIQUvX/IP64SGMNATQK+jJ7792Ibb6znadVDHhjs+GnyMUe2t1OvgjiUbaz0g5SVUsyricWjVNjw2s0Ku7w5s2bwRGzbswa0kAfIf3EVwjnKmsrzN8fnm4127+RSsP7AZns34YfS17VGnBhB5LxyZ6hSGYf4Cb30pK1deOG6FZUJgblXuRTI/JAgh2SJY13WETY2aqGlrCzuHfpi37xiOzOvGnfCEsB3+BSY1TMTekU1Qt+UQzDvwAFJt5ULzEXwzBNnCarBRnzl5WpBoflQSWqN27Yp3EhOIRMrHvYWEpg3gYC1Ezp8xfEppZHh0JxRpMIOFpWYDBhHsmjSCJSXiYfiffJqa0Lo23iJbr5He/hH9Bx1AvaW7sXLxDgQG7cYQoQ+++WQOfNL4LzF/EymubjsK7VGT0MmmOqpXV/6xhtPwyehXLQGnD11EBv9N5eFX9n6uJrT0wLRP7JBxbgu8Hiuv5Lm4teMybCcNQ40Sx5hAJIG2xi4oUPVoUNZCqj+rCAQQkAIKRbFEiCTaRcEw91k9KzevOkFFwM1LCm5eZWJ+CIJCsiGyrgtHmxqoWdMWtnYO6DdvH44dmYduFXmLWoWOzwoc78bO+HhgE2RfWI+5k0dj5Jj5OBnL5VMqRS6LsBnmL1PilFRJlI885VDVuTnI0TwTlUDKA507qQksmqFXnz7o27cf+vXvD3d3D/RpVUN1YhNW74dfrgfDZ82naJxyFstGdUT3BYHI4k5xeXl53LkuCxnvvasFd5fElZDAsLy3UyqQl5vP5SoT6enFN1pgbAwDbn5hlXZVS8WJFWvwqMNMzHDh72PtP8HaH4fCIu48Tt14yxZ9TNVKOoGt5x0w5Zvh+Lh3b/Qu+NN3Cib0tsIrnwPwSeG/yyl7Py+gh46e49GcbmHH1kBIU89ix6P2mNxJn5/+NyEppLkEhcACzXr1QZ++fdGvX3/0d3eHR59WqKEZW1dKBY73rBBsGNgSA3cJ4PG/ndi3ZzkG21ftqY1hmDer2qNOqw7q1hJB/iQc9zRbWXPBg/JSK5epW7lr1bWHrSgfIZcuFFbjFqNIxsXNexAusUfPWRtxMSwAyzoCdzdvw2WpGPXq1YZIFo7AwFR+htcRf1tW2ovFi92clSfjCf6IE8CpI7dyTco7PP6vymppB2dH6MkjEHTjZbFHDpSWhkxBNTg51yhI4fNT/M7vrcgTEfNnNqrb28OAT1IydGoIOy5wEZWspWH+QnJE7/sVN1sPQ19zPqmQPtw8esIq9QIOnkxU7yfl7ueqmVS0Go7H5O4GiDzwCzZu3Ifs/mPRsMTvXLA/ae5X6mOgRA2Fat/T3P9KnVM9D/ef4rNynwoWplUX9rYi5IdcwoVSD2INxY4XtYofn2863mUIX+eJL8/Xwcyfp8LVqvwDoMQWMQxThao2oBDVhvug9tB/5Y11G8PUb26UvcClnafwWC5DyJF1OBj4FLlOwzCinQHSLyzFnMMxhV1K5Qm+2LovGLnchTH23Bp4BfF32/oN4eZqA5GBIYyFIjgOG4UOhik4uXQhLiXxpyp5HM4tXogjyn5o3In91atk7mSVjKRXJU9lCqQkp3HT0pCSyj9H5lFOlkZXTzke796Dq0YD8dWUJnwat4kiESgpDi+yFUgNPwe/CBksB8zAqLp58N++DWGFFQTZuHkxANktPDG1s7omAfJXeJXMndKSk/BatipKVBNNG1vg2c3reKaR/dTQMMTaD8KwNmyUgr9N6hWs2hCOtu49UdqINfpufdHVLAOX9xxGjPK3K3c/VyepCGtg6NRBqPHqCL7abIIRg61LHLj5SEpKg1yajrTCtguE1HTlw5XiNWfZqWmQKri0NH7nyU9CEvd3aXoaimZNhXrWdBTNmo3UNCkUXJpqVi0nDBvRDgbpF7B0Drc9RQcxfLfuQzC/SaUdL293fL7peM9DxP0I5IkNYKjLl0pmLGKTuIzL8lB4OMr47UxJ5o9x7vjeNQk9+8zEoV1ntQoAAJmoSURBVCiNA4lhmHenbJlZpXLu0cYBdqQjtqDG3ftT/36f0spjS6mbrhHV6zySPl93WdXjID/yEE1vZUFisSU17T2MRgzuSz2HzKOTMcqW3Vl0eLg5mTQZSUu376UdKyZTB4eW5Hn4Kd+LIp+iDk2llhZi0q3Vhjw+GUI92nSk8TsfUG7+A9o1rQc1stAmiUSbLBp2oWE/+pKqjbwsho7M+ZiaWKmnWTr3puleD7nF3aX5TcQkENegzjNX047dO2j17D7k4jKU1t1MVa1RTUYPVnQgfYGQdAxNqU7PpXQ1Wd3OPuP2ehrmaE523WfT2h2/0uoZPcil02d0NFrdzjz/wS6a1qMRWWhLSKJtQQ27DKMffTVa7r+m7F4e8j+96fO2duTUfw6t27GDfvluNHVqP5w2Bqv6FWpgvTz+Gvl0e8NocnMwI21uvzJv2JXG/HKzWBfRnKuraayHK9nqc7+/xITqdRxEP/g8e8N+riH3d5pVX4ecv71V1HNBSbm/T3GjeibK5RpSnU6z6FB0Dt1YO4RaWOtwx5cOWbcYS1vvSSly/wz6qI6hat83bdCdvli3lqa41SMTCTevYR3qNOsQRefcoLVDWpC1jpjEOtbUYuxWuieNpP0zPqI6hsp915QadJ9DR5VdnfMj6dD0VmQhFpNl0940bMRg6ttzCM07GcPnv5TjJTH87Y/P8o53klPckXFkr2NAjUYuo60bFtCUURNpeDtTEhm1oHHf/0LeJ36msZ0d1Nupb0ttBi2hy+k5dHGmA+kKxNR4bpBy7QzDVNJ7Gm00G7F3AhH6yhhNO7ZCLZ14hIXmooFL7RKj/GUhNvgmQmOlMKzTHG2cqxebnptwH0F3I5GmXQtNXV1Qq8RjY0VmDO7evIcXeSao37oNGpq/Y32/LBjftXDFymorELSsKWL/zIDIygmurevBtOSzYHkSwv2v47mhMzq0qo1iWZKnIvL2LTyIz4VB7eZwbVajEiN8SnF0ZA2Mzv4Zr46PKmU52XgechPBTzMgruaE1q24vL62+bm4NLU++j/5GpEXpsO6auujmCrypv1cRR6FVb2nQLTpHD6vW2UNFKpEVmwwbobGQmpYB83bOKO65kFc3vHylso73rOe3UJg8HPkmTqibXtHmOVEI/DqY1BdV7RxMNVocKpJgaTD4zDojif8lrfj0xiGeVd/0fDlH7iCgKLGBjw/OwmvPf7+W6gDilGpK/HizASY8qlvRwrvsbXwyfMfEMUCin80eeRPGLrQEpt2jXyHbsZMaaQxZ7B4+lYYLT6Cr12qcNwQhvmPYqcmJUUucpW9U5SvB37Xtg3vSf61TZi3/RKCI+OQVtF3dMsykRgdBv8DS7DhIns3xT+bgts9n+PkisuoO2kQCyaqivwZzh64jUZLdrNggmGqCKuhyH6BkEs/YerwVbhl9DH+t30BPmnfAnbFWsX9HWQI2fE1tgQpO8oqiWDn/h2+6V1d9ak82YEb8PWee+BiJBWthsOx5LNOpTYUZD5g8ihs7NMSn13Mgu24gwjcNgDVWEDBMMwH6j8fUMifnsOmAyHIEokg5O4G5TIB6rnPxuBG79geg2EYhmH+g1gNBcMwDMMwlcYqUBmGYRiGqTQWUDDMf5Q8LRLXrt7HP3P4FznSIq/h6n02eA3DfChYQMEw74M8FRH+h7F17Y9Yumw11u/4Db5hcaoRRf9uigRvfN2tISwt66PLN2fUo4fy5KmxeJZc8NrLD5ECCd5fo1tDS1jW74JvzrzkQguGYT4ELKBgmCrFXfD8lmOoqxtmnUqFTdve6NutOapnXMUy93qwtG6Gz04XjTf6dxBWc8dyn52YVF8EgY4e9AqG8c8LwNx29VDfbQGCKtpF+S8nRDX35fDZOQn1RQLo6OmhIPsMw/y9WEDBMFVGgdgjk9BpgBdM5vvg1KrJ6NOmKZq06ozBn63D2YB9GG70BH43IwrHr/nbiExhasRdioWiordIShpj0MyZmDVzABpW+asZFEi8fQjLv9+B4CrYeJGpKdTZ/7DeGsow/2UsoGCYKiJ/uh1Tp+6FaMI2rPVQD8OvSVTDAyuWDYIsOhofZgWAMVw9V2L5xJYw5FOqThZ8Fo3F/P2hKGsUcoZh/tlYQMEwVSIPtzauxfn0FhgzuU2ZY1aY9f0Gy4c5vnbgZT27jUvex3Di4i3EFA15W1zWM9y+5I1jJy7iVkwmd8+vQZaFxOh7CPA5hRvKEXezohF45ixuvdAMXaSIC/XFqeOn4BsSh+zSagqk8QgNeohUbhGyzHhEhvjj1NlgqAb5lKcgIsAHJ7yv4H5SaS0X8pD44Cp8TnjjMrd8jRHYlW0ooaWlxUVVQgiUb6SVyUq0fZAjNeIaTh8/gfM3opBWWhFI4xDqewrHT/kiJC7776/lYRimGBZQMExVkEXgwpU/QLVaoo1dOdXwEif07dcY/ID23DU4EodmdIX7gouIzc5ElPccdHRohxmHIzVqMfIQeWgGurovwMXYbGRGeWNORwe0m3EYkfyXMq+tw5QBXeDWdwgWeO3BtE6u6O7eB53GbsNz7uKcF/UbPu/RE58deYwMaQL8l3li9Z189cxKuf5Y2NURVqY2aDV5P6JlsTg2byi6d+wC9xHLccJ3Dcb3G4m567dg0aSecGnliVMp/LwcxQsffDf4E/xw+gnSM6Owd3wzuEw8glhVIPIUxxZ9Dq+wPCgS/bD2s2mYNvUr7A7lQ4LcP3BwencMWOyLeC6I8VvYDQ07zMPlgqHKue2P+u1z9Oj5GY48zoA0wR/LPFdDM/sMw3wAlC+2YhimknK8aZyVkMQtF1H4a2OPlyWHbsx3IRPXJXS/cJ4M+n22E4l1XWj+jRxVSs6N+eRi4kpLir5EGb/PJiexLrnMv8EtRS0/dAE1FwvJxK4/rQpJoUcnN5FXYALJswJobjMTar0wtGhI9dwA+tJRiyTdNlJ8wdD2WYE0x0mLxK2X0EPVqqR0aVptEgktqM3s3yiSX1HSgaFkrmVFY70L1iylK9PrkKTxt3SLH1s903scWYsb0dyggsHWs2j/IAPScphN1zTHdad08p3dmMw7r6Un/ObJ47dQLz0JtVgYphqqPStgLjUzaU0LQ4tmzA34khy1JNRtYzyxkfkZ5sPAaigYpkooIFfW4ctkkFX03bMZZ/Dz5nDYdO6GeoWVGgZoN3k0WsjCsHPbFUiRgTM/b0a4TWd0K/oSDNpNxugWMoTt3IYr/LMFgb4+dCGElceXmNHUBA36eWJMWyukHl+NTfft0MvdCYVtLUXmMDcp0T9Cxxa1lIOFCIV8zwkBDAz0IBC3xsT5g2DPV6sYOTZATUEaXr7MUSdAG82nrMeBzZ5oxr+xXtu+DmogEvfCM9UJZVDEH8KqbY9hZpUL3x1bsHnjBmzYcwtJgnw8uBuMHCTj+OpNuG/XC+5ORS1FRebmKJl9hmH+XiygYJiqoFULtjVEkP8ZjegKtriUPbqD0DTAzMKyWANOkV0TNLIkJD4Mx5+5j3BH/SVYFv8SmjSyBCU+RPifmq0RhLCuXRti/pPycUH4rTBkCsxh9a5DlQok0Nbm/64kEkEZN8i54KmAsfPHGNgkGxfWz8Xk0SMxZv5JxCoUkEpzi7f1KCE/JAgh2SJY13WETY2aqGlrCzuHfpi37xiOzOsGvbxw3ArLhMDcio20yjAfOHaIMkxV0GqMrp1qQpAaiCtBuXxi+RR5uaoRYTPT0/kRZXkCYxgbqGsKhIo81dD63JeQXvxLMDY24A5g7p9yj2JCfl4+iHKRk1PRqpO3lxWyAQNbDsQugQf+t3Mf9iwfDPsKnF1IKkUuKSCwaIZeffqgb99+6Ne/P9zdPdCnVQ2IKB953PZTbg7eY/YZhqkCLKBgmCqhjY+mzUAHvac4vP4wlB0tSpeGUN8biOemSxyc4agnR0TQDbzU/D6lIS1TgGpOzqih6wBnRz3II4Jwo/iXkJbG3blXc4JzDb7qgrgLL///IlqoU7cWRPInCL+n2e+CoFB+TS7T6C2hKB7YcAo+lxxCUPmxMEkWjnWeX+J8nZn4eaorrMobqJcLHjS3QquuPWxF+Qi5dEFVJq/RqoO6tUSQPwlH8eyr86pZS8IwzN+LBRQMU0VEDWdi+/phMPCZg/E/3cFr78PMfYozC2Zia6wZzJRHnuUAzBhVF3n+27EtrKhWI/vmRQRkt4Dn1M7QgSUGzBiFunn+2L4tDIXfyr6JiwHZaOE5FZ35tg3yV6+QzF35k5NeaVy0RajtPgjt9V/Be91GhKkuyjK8uLQTpx7LIQs5gnUHA/E0i0tWpCA5jQtK0lKQqnqKokBKUjp37U7ngpeiJSpSU5DOXdDTkpLUXT9lEbgfkQexgSF0+TNKZmwskrgrviyvaLtEIhEoKQ4vshVIDT8HvwgZtJyGYUQ7A6RfWIo5h2MKgxt5gi+27gtGrqg23Ae1h/4rb6zbGKbuiip7gUs7T+ExFwyFHFmHg4FPkf54Fyb17IOZh6JU8zMM89cT/cDh/84wTKUIYdbUA0M7inHz53lYfvIPpGW+Qkz4dVw85oVte29APHARfnAvaOOgg7qd2sHs8UEsX30GCdzl9M/AHfh+RSjarN6LRZ3NVRG/Tt1OaGf2GAeXr8aZBO56+mcgdny/AqFtVmPvos4wF8rw0Ov/MPabfQhJyUNSuB/872aidq8OsJNwuTJrhhYm4Ti+fTN+PXoVAeeP4qZOP7TN8UZQni1qGBqhVvUYbPH8HL/eTEJuykMEXg9G8OlN2HIqAun5cQgLeAbzDr1R/8FyDJm2FcHJeUi4dxV35U745KNmoMfHcOTUDUQLxYi/tA1br6chLzIcobHJyM3TRp0WDWAWcxY7T53H8Q0/Y/9Dewwa0xG2elZo/VFdJAWcwJ5N23D8+h1cPeGFX89mo8ukT+BkLIJZsxYwCT+O7Zt/xdGrATh/9CZ0+rVFjncQ8mxrwNDIDs5iPyxZsQ+XwvXw3bSuqtJlGOavJVB29eD/zjBMlZEj7WkIgh/8iXSBCWo4OKNZXTNVY8bXyZEaeRu3HsQj16A2mrs2Qw09fpIGeWokbt96gPhcA9Ru7opmpX2pHNmxdxAY+grGTTuiVS0dxIeFIreBC2prNrh8Z1l4disQwc/zYOrYFu0dzZATHYirjwl1XdvAwVTEbUASwv2v47mhMzq0ql3i5V9ZiA2+yQUgUhjWaY42ztVRPFvZiL0TiNBXxmjasRVq6cQjLDQXDVxqF35PkXQY4wbdwW6/5XwKwzB/JRZQMAzzzyeNwZnF07HVaDG8v3bhExmG+SuxNhQMw/zDyfHs7AHcbrQEu1kwwTB/G1ZDwTAMwzBMpbEaCoZhGIZhKo0FFAzDMAzDVBoLKBiGYRiGqTQWUDAMwzAMU2ksoGCYf7m85AfwC4wsesvmB0uOtMhruHo/jf/MMMw/CQsoGKaK5CZEIDQ0DPfC7+NpsuYIoK+TJT/F/Xth3PcfIV5jjAp5aiyeJVfN+BTyP/Zg6kd1YVmtMXot+1392mpeVa6n8hRI8P4a3RpawrJ+F3xz5iUXWlSAPBlRYeryvn+f+xN+D2H3niKltDFBGIZ571hAwTBVQoG0J/74bfUEdGraBG3+7zhS+CmvUSTi4KSWaNp2OBbuv4JHBVfAvADMbVcP9d0WIKiCQ6CXR1RvNDadXYfBVkJIdPWKhjSv4vVUnhDV3JfDZ+ck1BcJoKOnBwE/pVy5z3DTewfmDWoN58bOcB36PXadvIM4FlAwzN+CBRQMUyWEsOowCT8sGAonkQKJp3fg8PPSr2zyqL3Yfj4FwgZD8MOSaXCz5g9DSWMMmjkTs2YOQEOJOqnSxKYwMRBCpDnG+ftYTxUQmZrCiIskhCJ+9NQ30WuG4d+twbZZ7SEWaMPtyx1YM28QnMob7ZRhmPeGBRQMU4UoKQ26LVqhVvYV7Nr9uJSq+zzc3n0Tpp3sIchMR3qxmMMYrp4rsXxiSxjyKe/HX7Wev4IQhsaGXEChAyOjKhmUhGGYd8QCCoapQrKEBEh6foExzgoucNjx+iOFjAs48PwjTGltAqSlvP68XxqP0KCHSNVMV6Qi8vpZnDh+Bn53opBcsnVlXiIeXPXBCe/LCInTbClRjtLWw8l6dgvnjx+F95VQxGUl4vb+pfjc83NsuZmCzPhIhPifwtngJNXw6PKUCAT4nOC+ex9JpTZ6kCM14hpOHz+B8zeioDECehFpHEJ9T+H4KV8u79mFw5dXhiwzHpEh/jh1NhhJ6owiIkBZPldwv/SMMgxTBVhAwTBVKDv+FcQ1OmP8uA7QfnIQ2y9m8lOUFIg7ehLyvsPhZGYIpKciteAKmuuPhV0dYWVqg1aT9yOav/gqEnzw1UcdMPlwFDKS7mD9yMawG3kA2eqpeOHzHQZ/8gNOP0lHZtRejG/mgolHYlUX/FKVsR5lu47LC7rhoym/IUaahcde49DEpg1W532MPo1MIHp5CvOGdkfHLu4YsfwEfNeMR7+Rc7F+yyJM6umCVp6nircZyf0DB6d3x4DFvojnLvB+C7uhYYd5uKy6wivlIeq3z9Gj52c48jgD0gR/LPNcjTv5/OR3pYjFsXlD0b1jF7iPWI4Tvmswvt9IzF2/BYsm9YRLK0+cKrNxC8MwlaIcy4NhmKqQT+GLe9GEEzkkT9hNA8xEZDrAixLk/GTZA1r56XwKkBJleLmTrsSNfnpWMJGTFUhznLRI3HoJPZQpE2T0+Me2pFNrCl3g5lGSXvuS3CadphzVhys0vY6EGn97i1uzUiZ5j7MmcaO5FKROIMq9RrMdxGQy7DBl8Umvr4co/dSnZCNpRt+H8DPmBtG3zmIy9dhF8QVZlF6iabVFJLRoQ7N/i1TngZLowFBz0rIaS97qBE46+c5uTOad19ITfvny+C3US09CLRaGqfKaFTCXmpm0poWhueovcHIDviRHLQl12xhPGqXyRln7BpK+0ISGHynYQildmlabREILajP7N4rk85V0YCiZa1nR2KKMMgxThVgNBcNUGTniEwmW1YQQWg3AhAHWSD+/E/ufqqvZc6/vwyPn0XDVBrSMjKCPNCQna9Ql6NiiFjcvhEK+l4MAEokEFH8Ze49FqGoltNsvw7lfekNHOVm7OaasP4DNns2gboeoDfs6NYDIewjXrBgp6bX1yPAw4CYSYIFqynQlSSO4NNJHRnAQ7hfUGggMYKAngLj1RMwfZK/OA4zg2KAmBGkv8TJHlQBF/CGs2vYYZla58N2xBZs3bsCGPbeQJMjHg7vByEEyjq/ehPt2veDuVNQqVGRuDpMKde94EwEMDPQgELfGxPmDYK/OKIwcG6CmIA0vCzLKMEyVYgEFw1SZfC6gEHABhbKXggG6TxiO+nkB8NoVxl2yU+FzNA1dR9SDcqrA2BiGlIaUlPKe6QthO/wLTGqYiL0jm6BuyyGYd+ABpNoFh60xnD8eiCbZF7B+7mSMHjkG80/GQqGQQppb5kOPUghhY2sDbUpGYmLBfPnIkcogrF4TNUr0mhBItLnQpYhIpPyCHDL+8U1+SBBCskWwrusImxo1UdPWFnYO/TBv3zEcmdcNennhuBWWCYG5Faze5xlIIIF28YyqAi95QUYZhqlSLKBgmKoif4n4VGNUs1R3e5S0Ho8xLYUI37cdfhGHcVFnANz5K6jIyASGXJCRkkKqz2URVu+HX64Hw2fNp2icchbLRnVE9wWByFJNzULIhoFoOXAXBB7/w859e7B8sP07HNRcQDFiLqY0iMDBX7wRnS1H6u0t2H3LFp9++ykcKtiLswBJpcglBQQWzdCrTx/07dsP/fr3h7u7B/q0qgER5SMvn0C5Ocgpf/MZhvkHYQEFw1QVeRwSZOawKniDlKgBxozrAr2Yg/hmoj9sR3wEPX6SwMSICyiyuIBCs1eGAsWur4pkXNy8B+ESe/SctREXwwKwrCNwd/M2XOZmk4Wvg+eX51Fn5s+Y6mrFP/YoHXf55v+mVGI9HEVaJKLNhmC8fSCWTp+Erw8Ck89cw4b+1TROEgVzFV+aOr0oRauuPWxF+Qi5dAHxpVWUaNVB3VoiyJ+E457m5nNBiHIpb1+DoM6PZp4K/k6aiZyS32MYpuqwgIJhqojiVSjuRXN354VPMbg7/6Hj0cc8FX8YuWF0o6JLvkBXF9oCBRJfvCh6V4UiBclp3MUxLQWpykShELHn1sAriO8nqt8Qbq42EBkYwpg7cmUR9xGRJ4aBoS5/IGciNjaJu2DKkFfQtVSWhKQ0OaQpycgsuLiXXA8ny/80/HVaYczXq7Ft5w5sWfUVhjQ1LX6C4OZLSico0tM0uoAqkJqSzsUCaUjiu2RqOQ3DiHYGSL+wFHMOxxR2BZUn+GLrvmDkimrDfVB76L/yxrqNYepXgste4NLOU3gslyHkyDocDHyK9Me7MKlnH8w8FKWav3RcGcYnQUbZeJmQxvduUSAlSZmndKRp9FVVpKYgnQta0pKSSnk/CMMwlcY3zmQYphJyA1aSRxMr0tE2JvuPZtD+SL57A2XRlc+70rQz6fxnopyra2hUZwcykUhIz6YVDZi1m+5FHqE5HzchK20JSbQtybn3dPJ6mEaHh5uTSZORtHT7XtqxYjJ1cGhJnoefknLp8rgjNM5ehwwajaRlWzfQgimjaOLwdmQqMqIW476ntT8tpNH8eiT6ttRm0BK6cL+09eRT/r211NVSjywdXKi5swPZ1apJtes7U7v+U2nd7/GU+2AXeSqXpZyPW1a7yV70KD+L/Jf2pUYW2iSW6FB1Fw/68Xd1D4r8yEM0vZUFicWW1LT3MBoxuC/1HDKPTsbw5ZJzjzYOsCMdsQU17t6f+vf7lFYeW0rddI2oXueR9Pm6yxR1fiY56ApI3Hiuep6S0q/Q8pG9qVl1HZJw26hr7UK9R35D8yd1JgcTbS5Nn2zbTSavR/mU5b+U+jayIG2xhHSqu5DHj7/zC2EYpqoIlP/hYwuGYT5AuQn3EXQ3EmnatdDU1QW19PkJSlnPcCswGM/zTOHYtj0czXIQHXgVj6kuXNs4wLSC7R/Sri/HpI3Z6NPdDhDpQkckQ0b8I/jt3YzDkS2x7s4ZTLV/y8YUyEJs8E2ExkphWKc52jhXL9aYE8hG7J1AhL4yRtOOrVBLJx5hoblo4FK78HuKpMMYN+gOdvst51MYhvlQsYCCYf7rZLfxXaueuP9FFI6NMuYTeZl+mNliONJWRMPLne9/+VeRxuDM4unYarQY3l+78IkMw3yoWBsKhvmvS7uLW4/kEJZaAZELmclH6NH6rx5FTI5nZw/gdqMl2M2CCYb5R2A1FAzzX5d3E/NauuEnGoENe1ZiTDMzCOWZiLlxFNt+vQrDccswp5Mlu/tgGKZcLKBgmP9v7zzAojq6MPztLrsgRYqCIoIgiKigoiL23rHXWJLYxRJbLFFMjPqLGk2Mid3Yu8Su2AWiooJKEQsoWIhSlN52l909/91ClaZiombePEnYuXPnzpxpZ+phMBgMxnvDBh0MBoPBYDDeG6ZQMBgMBoPBeG+YQsFgfKxIE3Hf1x+ROZdUMRgMxkcM20PBYJQD8sQo3Ps7A3yB0oInQSGXQ67gQ9uoKmysTKHzNqq7/DF2TxmNH/ddxxNJN2yNO4lRhU5zfgoUlAlACjnIwBL1rAvdwFlmMvHi3gPEFGcAhOTQMq2Hhtb6GgcGg/FPwmYoGIxyQBJ9C6d3/YBBTZ3g2KAHZmw5ijPef2KLR1/UsXLGgP9dRExRdi2KQmCHLzecwZqBZuCLKkA3xzbIJ4bk+U0c3+aBAUqZOLli8A87cOJ2jOZ67HdAkYRwvyNY940bmrm4ovPkjTjj4wOfS2dx5I/FGNW1NXos8VNf5c1gMP5x2AwFg1FeKOKxsbslJgX0x8EX+zFIZQlMgeg9g+E6yg8ttofh0Ij8xrZKQopr3zqh/TZn7H1xQBPWJ4giDhu6WWHylc744+UpjDbWuL8HEp8pcOi8GZV/DMaNBXVV5uCVZNyYj/bfm+LQuRmwZkMlBuMfh1U7BqO84Oujor4QPNU/OfBh2XcAWuom4+aVYGRrXP8z8A1gaMDJRKciKha8d/udERgYwaCIlkuv6TdYMb4+/ukruBgMhhqmUDAYH5psKbIVQljZ1ihkYlyK+PtX4H3sOC4Fx5R5ql4afx9XvI/h+KVgxBR4SYb02EgE+53EmaAE1dKCPCkC15R+L9+DxhhoQRRpiLrujaOHT+DS7efIKLweIU9GxNVTOHrsHG5E5VjzfB/eIY5lhW+O9oM6olpOq5bxHLcuHseRYxcQ+Cy9mLgrkBZ1Hd5HD+PEpdt4/oYAyoICyZHXcebYUZz2vY2oRLaLlvHfhCkUDMaHRPwExxeuRUjTH7B6kkPu9LzipTe+H/gFfjz1CKnpUdgzqiGcx3ohuqT+TPES3t8PxBc/nsKj1HRE7RmFhs5j4aV5SRF9BB6DO6N1hz4YtuIYfH4ZhV7D52HtpsUY19UZLu4nkaTyqUbyeD8mte+Geec5ZSY1GGsH14FdR0/cyMx5fgCTO/fDEp9YTgnwxaJOddDK4xIS3qXP1fC2cSwr8vCfMGTaRai7cikiD05Bxz4LcSE6E+lRxzG7tT1aTDmESKnKgxrJY+yf1B7d5p3nFLNUBK8djDp2HeF5IxUPdoyFq4UOtETWmHRRHWrm1VXo39AUIi0dNPN8qDaBroiD95w2aDX+EKLSEnB77XA4Wg/Hfo0MGYz/FMo9FAwGozzIoL399YgnsqOOX42kr4f2oZa2FUlLpxb1WXiI7iZrvJGYLk+2IZHjfArMVrukHx9J5sJ6NC9A40ASujrTnoRGQ+hQhtpFfHky2YgcaX7eSzTSXEj15gVQzlskvkiTagiIX7kZzfwzktTGxBNo/+BKpGX2NR1XOxCl+dK3jobUeGEQ9yUlMrq3rDnpmXSn9VEyolQfmulYidqvfqQylU4kp9hN3UhX1JgWheZ+rQyoZcI3GkpemnSUOY7FkB3oQU5CAZm3HklTp02jad9MoGEtrajW5MucZImybiwgZyNXWnovx4Q8l9y/ZlJdYQVyXnBD87008v3WkQwbL6QgtQBIdm8ZNdczoe7ro7g0y+nF7x1IpGVP317TeOCQXJ9DdbRE1O7XZ5wP7p3w5dRcx5ImnFd+mUN8lWa1G0enSkkDg/E5wmYoGIxyhqfrAvcN27Fj3zFcjfgbd/f0xqvfh8K1+XgceaEc3muj0YS12L/RHQ01ayDaNW1QDZG4G5audigC7UYTsHb/RrjnvQSbakDk3TDkvsXTh74uD8KmY7FgQE2o7YNWhEPt6uClvMKrLOVvBWIPrMTmcDv0Huio2XMgQN3v/kJinDcm2vAQe3AVtoSbwEzig22bNmL9unXYHZgAXvZ93AlSBfLulCmOpcGHeZvxmO/hAY95szChvzNMVHMGaTj920aEWbRHJ7s8a2f6Lcbjy8YyhG7fgstiTgKxB7Byczjseg+Eo2bThaDud/grMQ7eE204afBhZFSR+68AgnxG0wRGRqjI474uUOcBTySCiGJxac8RRChnJbRbYtnZ39H9HzbMymB8DDCFgsH4kPAN4DDgJ+z37AxR+HbMXXkVyll3Q6ce6F8/E+fXzsP4L4fjqwUnEK1QQCyWFLPWz2HohB796yPz/FrMG/8lhn+1ACeiFVCIxZAUeokn0ubUljwEqg5QDplM+SsbQTeDkcmvAguL/Ls6tCBS/cxGcAD3XGAOWwcLVKteHVZW1rDv5YG9R7zg0al8jpyUHMfS4esYorKpKUzN7dBmzGzM7GIDLdlD3A5JAUwqwzS/9VSBNerXMwXFP0DY33JkB91EcCYfVSwsCuxr0VILoMzwrYbi23F1EL9nOOrbNsEgj/24L9ZmDSvjPwkr9wzGB4eP6l07w0kgQ/TDh9wYGsgIXof+TfpjB68v/rd9L3avGIiapdXGjGCs698E/Xfw0Pd/27F39woMLPWloiBIpVIQZSAttSj1hVSKDSl4qNywG9zceqJnr17o3bsP+vR1g0u1/D31R4JhSwzubQuBQgpJNgHpqUgtcCCeB0NDfS4nuH84kRGXfikRMtJSi1fgygK/Knr9fh1B3r9gtGMSziwbgdadF8I/Q/OcwfgPwRQKBqM8KeZaF8rMRBYEqGJTE/qyMKxxn4VzNlPx20RXmJU0KOaCU4coQ9gad8w6Z4Opv02Ea7Ev5Xyfcv9So/yV4yKEnV0NCLh4+Psna9zyowXbmlYQZAfj4vnY9+twlahkkj82OX+XFMeS0LxXlKxF9nBy0IU8IgA3XuWPOSElJR28KnXhxClEQjs71OAUvDB/fxQlARU8HtdAEhQFglF/W6GaRlEg8cJG7A4ToWbX6Vh/IRTXlrUG7mzElkvsei3Gfw+mUDAY5YUiHrEJMm70m4iE/CN/2Quc+GUXQg07Ys60dtCWReBehBRCfQNU0NTA9OhoJHA9lUyac+RQhoSEFMjFSUhMV4YlQ8S9CEiF+jDIewnR6pc0pxs4FEnct7lOMDUFKblRUCA5KRWkSOHCVO4zEMBhyAi0MkjCCc9FuJhzbEMeg7NLFsHrJR91hwxDC/1UnPecjUPPctYg5Ijz2Yy9QcqvyRG+Yxy6uk3FwagSznrmyCTzFeJyIlSmOBaPNC4OiVwvnxj/ipNKYUzRb8oI2Er9sHVLaJ5cMm/iwrVMNHafiPY6nAQchmBEKwMknfDEoovq46vKNMWcXYJFXi9Vv7WqW8IcMXhwT/Nc9hK+e7wRIZch9NgGeF1/jqzos/hlZ4DmO3qo084VFgIujwyVeVRGGTEYnwuazZkMBuM9SL28goZ3b0hVdUQkEorIpE4nGvzlVzR8cD/q1rYVdf7yBzoUlqr2LI8hr5E1SUe/Hg1ftpnWLZxAI8YOpRbGAqrYeCT9sPpXWvRle7I34sIS6ZFVswG09FIyxXiNpJo6+lRv+DLavG4hTRgxloa2MCZBxcY08off6eSFbeTe3p6MtLn39Kyoxfid9DA7g/w8e1K9ytokFOlQVee+tPwv5RGEbIo6OJGaVBZSBctm1PeLQdSlWWsatf2+5tRHNkUenEwu3HOhaQPqPmQYDezZlQZ5nKBnqsMTWXRhqj1V4AnJcV6A6o3CFJCJqAKZO3en4d8toHFljmMhZI9o37f9qbWtIRce975RLWo7YBYdiMw7zaEmjW6tHUIOlayp88zVtO2Pn2lKF2dqO+0wPcl3QCU76iBNbFKZhBUsqVnfL2hQl2bUetR2up9zqCP7Lq3uaEpa+jWpbb9+1KvXKFrx51LqVMGAbNsNo+m/XqTHB4ZSJaP6NNxzK+3Z9hONb2VPTdwP0dMyyojB+JxgV28zGP8KGXge6I+gF1IYOzRHSwcTZD3xx5Vwgq1rM9gbF71PIeN5IPyDXkBq7IDmLR1gkvUE/lfCQbauaGZvjLfd3aBIf4Y7N+/ipdQItZo2Q51KhZZSMqIRdDME0WID2DRqBqeq+bdRKpBwaCQG3HaH74oWGrePB3lyJG4F3kesRB81GrmiYbUiNpMq0vHszk3cfSmFUa2maFanUsHLx2SvcO/qTUTJLeHSqgGqCuNwN0QMe+caeRtKJXG4F3AHkSnasGzgCmdLPc0DJR+3jBiM8oQpFAwG450QPzuNJZM3o+ISL8x1ZhdeFwWTEeO/BFMoGAzG2yN/jqMrtyOr+3QMa/AJ2lb/J2AyYvzHYAoFg8FgMBiM94ad8mAwGAwGg/HeMIWCwWAwGAzGe8MUCgaDwWAwGO8NUygYDAaDwWC8N2xTJoPxH0eeeB8+F28jhlcVzh06wLHSR2irg8HyifHRwxQKBuNDII1D0PmzuP7wJVL5Rqju0Awd2jmjqLuV/j0USLyyFKN/eo2eoxrhwc/T8ftzN+y5tQuDq6gnLzNf3MODmCy17Yw3IMi1TFGvoTX0NS6fHlLEBZ3H2esP8TKVD6PqDmjWoR2cP6qMKj2fGIyPAVYaGYxyJRMP9k1FB9cvsPGxIRp26oF29fTwdP84NLFvgQlbg1XWRj8K0s5j/qjNMBnvibH9v8ayzT9jfNcGMNfOaRYUSAr3w5F138CtmQtcO0/GxjM+8PG5hLNH/sDiUV3RuscS+H2idrAyH+zD1A6u+GLjYxg27IQe7epB7+l+jGtijxYTtiL4Y8moUvOJwfhIUM5QMBiM8iCbHmzsRRaV2tHyoHSNWw5ZdHddT6qmZUSu3/9FSRrXt0EeF0gHln9PW+/kM0jxHqR5DaVK2u3o1+dyjUsxiC/TZGsBCZssoXv5zWakX6d5Lp3olyelvP8Rkv1gI/WyqETtlgfRGzl1dx31rKZFRq7f019vnVFyigs8QMu/30rllE1lzycG41+GqbgMRjkhj9yEad+dhfH4nzCjYX57Dkp04Oi+Cct7ixC4fBwW+WVo3MtOhvdifL1gH0LyWzJ9Z2R4ej8CqagII+NSmgGBAYwMivCj1xTfrBiP+p/ajdLySGya9h3OGo/HTzMa4o2ccnTHpuW9IQpcjnGL/PB2OZUB78VfY8G+EJRLNr1NPjEY/zKshDIY5YIUt7asx+UMB/QZ4Iwi+1h+NQxw7w9LxSPs3nAKyRrnsiEHtLSgBQH4vGxIpTLISrOInfEcty4ex5FjFxD4LB0F+je5FKnpmSAeT/W3lAvs7fs/PszbD0LHavmakZK+mYMiDVHXvXH08Alcuv0cGe/Y8SqSI3H9zDEcPe2L21GJeabKS0F6awvWX86AQ58BKNq8Bh/VBrijv6UCj3ZvwKm3yShVNmlxShgfvGylXGVKp1LIwPNbF3H8yDFcCHwGlbX6HMolnxiMfwamUDAY5QE36r3o8whyvXpo4FDIYmc+dJu2RCM9QnLgNQRnPMCOsa6w0NGCyHoSLqp6xExcXdUfDU1F0NJpBs+Hyu5IjqdHFmPGzlBIFfHwXT0NkyZNxJxdIdz4tSikiDw4BR37LMSF6EykRx3H7Nb2aDHlECKl3GN5BA78MA2rLsZCIQvFrhmTMHnyYhx9UnrXl4s8HD8NmaaJs5JSvqlB8ng/JrXvhnnnYyBODcbawXVg19ETNzJleLBjLFwtdKAlssYkTcCZV1ehf0NTiLR00MzzoaZzViDOew7atBqPQ1FpSLi9FsMdrTF8f6bqacnIEXnRB4/keqjXwKGgZdH86DZFy0Z6oORAXLsdUrZ8kj/FkcUzsDNUCkW8L1ZPm4RJE+dgV0jRuaREGnkQUzr2wcIL0chMj8Lx2a1h32IKDimFVh75xGD8k2iWPhgMxvuQdYrGmPNJUGMSXRJr3IpCfJmm2AiIZzCIDmRwv+Uv6PcOItKy/5auSdReiCR0fU4d0hK1o1+f5a2bZ+wbQPpa9jTzaq7HIsm6sYCcjVxpab4ND2l/zaS6wgrkvOAGZalcJHRD+Q2dvrRbGY+SyA4kDychCcxb08ip02jatG9owrCWZFVrMl3WpLVM30zzpW8dDanxwiDu60pkdG9Zc9Iz6U7ro5TvyenF7x1IxKXx2zxhkOT6HKqjJaJ2vz7jfHDIwml5cx2ynHCe1J8X09VZ7WjcKXXKSiaLTo0xJ76gBk0qOaPo8hQbEvAMaJAyo8qcTxm0b4A+528mlZJNSqHRAmcjcl16j5OEhrS/aGZdIVVwXkA3VMl5i3xiMP5l2AwFg1EuSCFWjlxl2dxfJcATQijkgSfShkhZ+/hGMKrI/SEQIO9WAQGMjCqCBz4ExU92FEMaTv+2EWEW7dHJLi9E/Rbj8WVjGUK3b8HldzyVwTdvg/HzPeDhMQ+zJvSHs4lyvK+kLN9UIPbASmwOt0PvgY6aJSEB6n73FxLjvDHRRvkeX5VuLtVKceQiMDJCRR73NEcYPBFEIkLspT04EqGcldBGy2Vn8Xt3HfXzUpCqMwrZJWcUl09C8LhvaSszqtzziZPa6d+wMcwC7TvZ5YWp3wLjv2wMWeh2bHnXjGIw/iWYQsFglAd8c1Qz40ORGI3nKSWscisSkZikgKCGLWzfoRMqFdlD3A5JAUwqwzRfpwyBNerXMwXFP0DY3+84Zc7XgWFlU5iamsOuzRjMntkFNso0lOmbYgTdDEYmvwosLPInXAuit5UD3wpDvx2HOvF7MLy+LZoM8sD++2KU7RQlH+bVzMDn8iH6eUoJ+xEUSExMgkJQA7YfJqPw8HYIUmCCygWFBuv69WBK8XgQ9rfGjcH4NGAKBYNRHoic0K5lFfAlt3DpcvG7+GQRtxGazIdtx64oYavFu6OQQpJNQHoqUgvcRsWDoaE+V+G5f8ql1hui5eDesFX2hWX6JkEqlYIoA2nvffyBj6q9fsf1IG/8MtoRSWeWYUTrzljoX5bzGCI4tWuJKnwJbl26XPzGWFkEbocmg2/bEV0/TEZBKskGIR2pBYUGnqEh9Lk84pdPRjEY/xisxDIY5YIeunwzEU0qJOL0r+sQlLtZMT9iBOz+E2EGXTBjYtPckyA8HlcNSVFgtEyqC2wVkL2xn4+gKKk/FtnDyUEX8ogA3HhVIESkpKSDV6UunKqpR8Q53VhZ7spV+6HcdwpQpm/qwM6uBgSyMPj7l3BsgqdcQCiURu7jKmlohKFIvICNu8MgqtkV09dfQOi1ZWiNO9i45RIn4dLR6/INJjapgMTTv2Jd0RkFccBu/BlmgC4zJqKpJqPeKp8K+XsTEeydHKArj0DAjVcFw0xJQTqvCuo6VVP/Vv1X+S3NHwzGRwpTKBiMckKrwWxsX90XlYOXY8SUP/G0wBq9Akl+P2Lqtmx8sXYdxqj2DCjRQnVLcyDmAe4lqLsV2Utf7PGOgFwWimMbvHD9qWbkrVy/pwTEvMyEIjkMZ30jijjlYYp+U0bAVuqHrVtC845SZt7EhWuZaOw+Ee1VWw0IyUmpXL+XiNevS+76lNeIxyVyHWRiPF69+UGOsnxTAIchI9DKIAknPBfhoiatkMfg7JJF8Hqp/q1V3RLmiMGDewnqTlb2Er57vBEhlyH02AZ4XX+KLH40zv6yEwGaD+nVaQdXCwH0DQy5Bk2O8B3j0NVtKg5GFbO0o9UAs7evRt/KwVg+Ygr+LJhRUCT54cep25D9xVqsG2Oj2d9Q9nwScPlECTF4malActhZ+EYUKTSY9puCEbZS+G3dgtA8oeHmhWvIbOyOiaqMeot8YjD+bVRbMxkMRjmRTX9fWE7DmliQhfNAmrVyC+3atYVWzBhEHTp+RT9dfpm3o19D9t3V1NFUi/RrtqV+/XpRr1Er6M+lnaiCgS21Gzadfr34QuVPdv8naqXHI76OARnbdCXPK4nqUw9vkEa31g4hh0rW1Hnmatr2x880pYsztZ12mJ4ob2+UPaVD33YhBxNtEokqUDVnN/pm18M34qU8hfFo37fUv7UtGYpEnF8jqtV2AM06EFmE31K+qSKbog5OpCaVhVTBshn1/WIQdWnWmkZtv6859cGRfZdWdzQlLf2a1LZfP+rVaxSt+HMpdapgQLbthtH0Xy/Si7RDNLSSEdUf7klb92yjn8a3Ivsm7nToqTJWWXRhqj1V4AnJcV6AOsxiyP77Ai0f1oQsLJxp4KyVtGXXLtqyYgYN6tCRvvrpMr0slMiy5ZOM7v/UivR4fNIxMCabrp50JbH4Gy7Tbq2lIQ6VyLrzTFq97Q/6eUoXcm47jQ4rhVbmfGIwPg6YcTAG44MgR3LUHQQ9jEG60ASWtZzgZG2Y74RAQWSv7uHqzSjILV3QqkFVCOPuIkRsD+ca2hofSuRICPPD9RcGcGrlghqFr3gshDw5ErcC7yNWoo8ajVzR8B8weFWWbyrSn+HOzbt4KTVCrabNUKdSoT0Ksle4d/UmouSWcGnVAFWFcbgbIoa9cw3kSUOCuHsBuBOZAm3LBnB1tsx346UCCYdGYsBtd/iuaKFxKx55chTuBD1ETLoQJpa14ORkDcNiMqpM+SRPQJjfdbwwcEIrlxpv3MT5BvJkRN4KxP1YCfRrNIJrw2r4qGzIMRhlhCkUDAbjs0L87DSWTN6Miku8MLfoqzAZDMYHgCkUDAbj80H+HEdXbkdW9+kY1sBQ48hgMP4JmELBYDAYDAbjvWGnPBgMBoPBYLw3TKFgMBgMBoPx3jCFgsFgMBgMxnvDFAoG42NFmoj7vv6ILPoyRwaDwfioYJsyGYxyQJ4YhXt/Z4Av4IOnvDpaLodcwYe2UVXYWJlC521Ud/lj7J4yGj/uu44nkm7YGncSoz7BAwsFZQKQQg4ysEQ9a+PPcyQjT0b0CwXMrUzwIax/MBgfO2yGgsEoByTRt3B61w8Y1NQJjg16YMaWozjj/Se2ePRFHStnDPjfRcSU9eZkgR2+3HAGawaagS+qAF2hxv0TQ/L8Jo5v88AApUycXDH4hx04cTumFBsXnypSXJvXAna12mFhQIl20RmMzxY2Q8FglBeKeGzsbolJAf1x8MV+DFJdd6hA9J7BcB3lhxbbw3BoRJUyavFcB/WtE9pvc8beFwc0YX2CKOKwoZsVJl/pjD9ensJoY437R40C8be8sP1EBrr8MBrOZZxuSLm5Ef87ooUhC8aiiYHGkcH4D8FmKBiM8oKvj4r6QvBU/+TAh2XfAWipm4ybV4KRrXH9z8A3gKEBJxOdiqiY/xbxj5oMeC/+Ggv2heBtLK0burpj5QqmTDD+uzCFgsH40GRLka0Qwsq2RqG1dSni71+B97HjuBQcUybT20qk8fdxxfsYjl8KRkyBl2RIj41EsN9JnAlSW+uUJ0XgmtLv5XtIKMr4piINUde9cfTwCVy6/RwZhTtQeTIirp7C0WPncCMqpVyXKxTJkbh+5hiOnvbF7ajEPCulOWQ8x62Lx3Hk2AUEPkvP920p0mIeI8j3BM6FJKvcpXF3cfnkSfg+TMr1J4m9C7/Tx3DCLxzJRURcnhyBq6eO4ti5G4hKyeeBk5OWFpdTyr0fXN5JZTKlE2QZ8Xhy9xq8T96A0jhqxhN/nD4TiJe5KxxixIYE4EHhj5UmYwbjM4EpFAzGh0T8BMcXrkVI0x+wepJDrnEwxUtvfD/wC/x46hFS06OwZ1RDOI/1QnRJnY3iJby/H4gvfjyFR6npiNozCg2dx8JL85Ii+gg8BndG6w59MGzFMfj8Mgq9hs/D2k2LMa6rM1zcTyJJ5VON5PF+TGrfDfPOc8pMajDWDq4Du46euJGZ8/wAJnfuhyU+sZyi4otFneqglccl5Fgef3cUiPOegzatxuNQVBoSbq/FcEdrDN+v+TCnMEQenIKOfRbiQnQm0qOOY3Zre7SYcgiRXOctj/LCnIEd0apDf4z+/RTOrxiFIROXYt3yyehWvz6Gbb2AbRO7o/uYJdi0aRHGdGqEzv8LymfqXYLHByajc78l8IlNR6zvInSq0woelzglTP4URxbPwM5QKRTxvlg9bRImTZyDXZzicnXNBPTr0A49By3Ezt2T0Na1M/q4tcXXW6Lgt6gjHMyMYeEyHvue5AmoNBkzGJ8Vyj0UDAajPMigvf31iCeyo45fjaSvh/ahlrYVSUunFvVZeIjuJmu8kZguT7YhkeN8CtSY9k4/PpLMhfVoXkCOrW8JXZ1pT0KjIXQoQ+0ivjyZbESOND/vJRppLqR68wIo10K4+CJNqiEgfuVmNPPPSMpSOSbQ/sGVSMvsazqudiBK86VvHQ2p8cIgjelwGd1b1pz0TLrT+igZUaoPzXSsRO1XP9KYy5ZT7KZupCtqTItCc79WBtQy4RsNJS9NOkgWTsub65DlhPOcJJSI6eqsdjTulDpyWTcWkLORKy29l2eoO+2vmVRXWIGcF9xQpynrFI02F5Cwaluaf/pvdfozztMEKwEJzDrQYr84tWl3+TP6tZ2IhE2WUE5wqT4zybFSe1r9SOMgj6VN3XRJ1HgRqZOWQfsG6JOW/Uy6mmtXXUk2hSxsREK+EVn3XkXBSQ/pxIad5B+n/FIG+c+uS1rCprT0gSbc0mTMYHxmsBkKBqOc4em6wH3DduzYdwxXI/7G3T298er3oXBtPh5HXihHr9poNGEt9m90R0PNGoh2TRtUQyTuhqWrHYpAu9EErN2/Ee55L8GmGhB5Nwy5b/H0oa/Lg7DpWCwYUBM6KseKcKhdHbyUV3iVpfytQOyBldgcbofeAx2htscpQN3v/kJinDcm2vAQe3AVtoSbwEzig22bNmL9unXYHZgAXvZ93AlSBfLu8EQQiQixl/bgSIRyqK6NlsvO4vfuytim4fRvGxFm0R6d7PJsiOu3GI8vG8sQun0LLiuXefgGqnTqtnbH/B4W6qUkbRvYWPDBr90DI1qaqadf+WawMNcFkri0K9ctFLE4uGoLwk3MIPHZhk0b12Pdut0ITOAh+/4dlJw0HvT0KqjC7DtrChoY1UYv96/Q3Ez5JR1YWSo33HL/qDbQlCbj4gzZMxifLkyhYDA+JFzH5zDgJ+z37AxR+HbMXXkVyiV3Q6ce6F8/E+fXzsP4L4fjqwUnEK1QQCyW5O4BeANDJ/ToXx+Z59di3vgvMfyrBTgRrYBCLIak0Es8kTbXTechECi7XDlkqnn/bATdDEYmvwosLDTKiQotiFQ/sxEcwD0XmMPWwQLVqleHlZU17Ht5YO8RL3h0es8jJ3wrDP12HOrE78Hw+rZoMsgD+++Loa1sjWQPcTskBTCpDNP8fa7AGvXrmYLiHyDs75zNIDwIuHTmeeOBrwyDCPmPrvF4PBAnW4XSMTsYAcGZEJjbwsGiGqpXt4KVtT16eezFES8PlClpfHPUqFHaWd7SZMxgfH4whYLB+ODwUb1rZzgJZIh++JAbgwMZwevQv0l/7OD1xf+278XuFQNRs7TamBGMdf2boP8OHvr+bzv27l6BgaW+VBQEqVTK9bsZSCvyGAOpFBtS8FC5YTe4ufVEz1690Lt3H/Tp6waXau87uuajaq/fcT3IG7+MdkTSmWUY0bozFvpncAN7KSTZXM+fnorUAgfaeTA01FeO/9VKw7tCYoglBAWvMhp2c4Nbz57o1as3evfpg75uLnjvpOVSmowZjM8PplAwGOVJMde6UGYmsrixdBWbmtCXhWGN+yycs5mK3ya6wqykESsXnDpEGcLWuGPWORtM/W0iXIt9Kef7BUfpavccFyHs7GpAwMXD3z9Z45YfLdjWtIKAG81fPB9b/IxJWVHJJC82isQL2Lg7DKKaXTF9/QWEXluG1riDjVsuQSyyh5ODLuQRAbjxKv+XCSkp6eBVqQsnVa+fE15euMq/1Z8qlHalY06+aNmippUA2cEXcT62lJSR4o20kyacnODyo5oByaU0GTMYnx9MoWAwygtFPGITZCBpIhLyj0plL3Dil10INeyIOdPaQVsWgXsRUgj1DVBBUwPTo6ORwHVIMmnO4UkZEhJSIBcnITFdGZYMEfciIBXqwyDvJUSrX8o7cqlI4r7NjcBTU5B3ElKB5KRUrn9M4cJULhcI4DBkBFoZJOGE5yJczDm2IY/B2SWL4PWSj7pDhqGFfirOe87GoWc55yPkiPPZjL1Byq/JEb5jHLq6TcXBqJwliCLIkUnmK8RpIsTnR+PsLzsRoIm0Xp12cLUQQN/AkGuQTNFvygjYSv2wdUtoXroyb+LCtUw0dp+I9sqtFtkJSEiRQ8ylM3fbAyUjVTn9U2B2IxPJKWIoODfOO6dQ1MWQYS2gn3oenrMPIS9pcfDZvBeqpHEIBAJQQgxeZnKyCzsL3wilRzlev07klAkuf1/ny18VCiQlpnDPUpCUXBYZKyAP34FxXd0w9WCU+hmD8amj3pvJYDDeh9TLK2h494ZUVUdEIqGITOp0osFffkXDB/ejbm1bUecvf6BDYalqz/IY8hpZk3T069HwZZtp3cIJNGLsUGphLKCKjUfSD6t/pUVftid7Iy4skR5ZNRtASy8lU4zXSKqpo0/1hi+jzesW0oQRY2loC2MSVGxMI3/4nU5e2Ebu7e3JSJt7T8+KWozfSQ+zM8jPsyfVq6xNQpEOVXXuS8v/Up6TyKaogxOpSWUhVbBsRn2/GERdmrWmUdvva04kZFPkwcnkwj0Xmjag7kOG0cCeXWmQxwl6pjqgkEUXptpTBZ6QHOcFqN4oTAGZiCqQuXN3+vJXf5JkHKKhlYyo/nBP2rpnG/00vhXZN3GnQ09zTj6k0a21Q8ihkjV1nrmatv3xM03p4kxtpx2mJ9lczO7voAnt7MhIxIVrYENtpx+kJ1k3aPWgxmSuw8VXx5waf72Z7oojad+UNmRjwPnTNqbanWfT4b/lXACRdHCyC1UWCsm0QXcaMmwg9ew6iDxOPNOcaJHR/Z9akR6PTzoGxmTT1ZOuxIfRjkldVHIUibSpcp0ONGS5DxdTpfdn5DW7B9U3Uz8zdepOk3c+4B6ULOOsC1PJvgKPhI7zlKEwGJ887OptBuNfIQPPA/0R9EIKY4fmaOlggqwn/rgSTrB1bQZ746IX8zOeB8I/6AWkxg5o3tIBJllP4H8lHGTrimb2xvk2KJYNRfoz3Ll5Fy+lRqjVtBnqVCq0lJIRjaCbIYgWG8CmUTM4Vc2/1VOBhEMjMeC2O3xXtNC4lRUJ4u4F4E5kCrQtG8DV2RJ6mic5yJMjcSvwPmIl+qjRyBUNq5Xv/eMZ0UG4GRINsYENGjVzQoGkyRMQ5ncdLwyc0MqlxhtxextKkrEi4RBGDriNXb4rNC4MxqcLUygYDMY7IX52Gksmb0bFJV6Y66w+GMl4C8TPcHrJZGyuuATH5zprHBmMTxemUDAYjLdH/hxHV25HVvfpGNbgE7St/q8jx/OjK7E9qzumD2sAJkHG5wBTKBgMBoPBYLw37JQHg8FgMBiM94YpFAwGg8FgMN4bplAwGAwGg8F4b5hCwWB8xEgT78PXPzLvgieOotwYHxtSJN73hX8kyyXGfwemUDAY5YoYz/0PYcNKTyxd8Sv+8PJBWJzSPGbpyJOj8TxRfXWj/PFuTGxjC9Mqjui27C8u1KLd3o53j9vnTH65vz9yPN49EW1sTVHFsRuW/cXky/jvwBQKBqO8kDzAji+bo/fqJzBv1R2dGxoiYuMINGo0Bd6lDVSl1zCvhR1qtVuIACkgsPsSG86swUAzPkQVdKG0bVmUW5l5n7h9zhSS+/sjgN2XG3BmzUCY8UWooPtWucRgfNIwhYLBKBfkiNw4GTNud8S63XPRt7kzmnYdhZ+ObMVog6d4HK+x5aCIx62DK/DDtiAUGBOLHDFg6lRMn9oPdXLuiBIaw0ifD0F+85pFuZVKGeP2qVOcbEuiKLmXA0JjI+jzBe9nGZXB+MRgxZ3BKBey4O97E1mWtWCvNF6Vg2EnTF3YFzaan8jwxuKvF2BfSGohS5aGcHVfiRVjm8BA41J+lDFunzrFyrYkPqTcGYz/FkyhYDDKBT4MDHQh89+BDbcyNW5KtFB36BT0slRXNTn3W0sLEPB5yJZKIZPls9QpjkVIwAMkl/uEQdniVjakSIt5jCDfEzgXkqzquKVxd3H55En4PkzK7cglsXfhd/oYTviF56VHmoaYx0HwPXEOISpHKeLuXsbJk754mJT7JmLv+uH0sRPwC1eHXxA5kiOu4tTRYzh3IyqfRdXiZCtDRvwT3L3mjZM3XnLhZeCJ/2mcCXzJfV1DMXJXpEXhuvdRHD5xCbefZxSKixTx96/A+9hxXAqOeYf9LAzGZ4jypkwGg/H+pPnNIkdtHglMGtPXK0/Rw2S55oka2ZPD9MOYTmQr5JNRw740ZswYGjtjGwWn+9KPHWqTqQ6fhA0W0J1szQuSqzTTXkhGQw5RhsapSLcyUFrcks7/QO2tdUlLoEWG9t3J0y9d5Z59dwuNdKlG2kIjqt37F/J/sIfcW1iRLk9A1cbspjPLR1LffkOofwtLzk91GvLHedrq3o3a9xhEQ3s1pMpautRk0R3KJhlF7nGnFla6xBNUozG7z9DykX2p35D+1MJSm4TVh9Af57eSe7f21GPQUOrVsDJp6TahRbnC4BA/ov2T2lO7EYtpy64N9F03GzJvPp8uvpYXL9skH1ratwEXDx5pd/GkHRMbk6mugHgVOtHayMtFy53E9GjfRGrTYjD9+Mc+2raoL9XUrUrtll5XyVz+4jQtGNCPJq7YSvt3/0IjG5qRw5hD9DyfSCVXZ5I9J7Mhh94mlxiMTxumUDAY5YaEHnvNoLYW2sQDj7SM7KnLN5vpBtfh5ZKxjwboa5H9zKsaM+EaMvxpdl0tEjZdSg9yrHiXo0JRlrhJQv9HrhUEZDHmlNostwo5xe/5glpOOU8JOV6zTtFocwEJq7al+af/5pQFjozzNMFKQAKzDrTYL457i0P+jH5tJyJhkyV0T5OmrFOjyVwgpKpt59Ppv9U9eMb5CWQlEJBZh8XkF6f+iPzZr9ROJKQmS+5pTIqnks9MR6rUfjU90oQlj91E3XRF1HhRqCYOxcg2O4QWNhIS38iaeq8KpqSHJ2jDTn9SfaoIuaf5fkuOho1pYZAmFNk9WtZcj0y6r6comZguT7YhkeN8CtQoIOnHR5K5sB7NC8jVSJhCwfhPwpY8GIxyQwTbgb/A92EYvH+bBrfqr3B57QR0aDkWB5/lW9ooCh0rWFbhqiOfD57GqXwpPW6ieuMx1c0YsUf+wOFYzQS/PAp7/ySMntcRJjmtBd8A+ro86LZ2x/weFlAZ49a2gY0FH/zaPTCipZl6LZVvBgtzXSDpFV5pks830IcuTxet3eejh4XajLe2jQ0suHTX7jECLc3UH+GbWUD96isoX1XEHsSqLeEwMZPAZ9smbFy/Dut2ByKBl437d4KQpXqrGHh60KugDLMvZk1pAKPaveD+VXOoPlVY7opYHFi5GeF2vTHQUbNLU1AX3/2ViDjvibARaKPRhLXYv9EdDTVWyLVr2qAaInE3LF3twGD8R8lpIhgMRnmhb4du36zGsaC7ODa5PihiF+Ys9/k41tlLihvfFH0nfQHrtLPYtDNc1ZFLArfhktU4DKlWuKngQSDShkDzS/lbdaJBOeupdlDB4/FACgUUBRwFEGnnvQkep4hw/+MGOOrfKnjcuwQF967SNTs4AMGZApjbOsCiWnVUt7KCtX0veOw9Ai+PTuB0j1Lhm9dAjdJOcWYH4WZwJvhVLKDRd9RoidSKE4ehUw/0r5+J82vnYfyXw/HVghOI5uIpFkuK2PPBYPx3YAoFg1EuSJApLjQLoWUBt8Xz0MuEEHMvFDmD/n+essdNOeswqhEhcNtm+IuTcWbbQ7Qc3xZ66sf/GiQWQ0IK8Co3RDc3N/Ts2Qu9evdGnz594eZSLZ9i856QFFIppxRlpCG1mPzKCF6H/k36YwevL/63fS92rxiImqwlZTCYQsFglAfy8F/xhftRJGt+56LHjYpNBTDgRtWV8tU25ai9IOqReFEUHPOrKcqtON4qblp1MGp8Z+hH7sfv69djb2ZvfF0n/1BdSc6388dBuR9L+b9CMVM65p95yPkzvyfNOwVnKNSv5Thp2daElSAbwRfPl6qYvSlbTdyU/1f9zk8huQvtYFdDAFmYP/zfEBiHLAxr3GfhnM1U/DbRFWaFRVMAZQI0fzIY/wGYQsFglAOCKlXAO70Sq2+kaVzUyKOv49YrR0z4xk1zz4EAAgEhIeYlMhXJCDvriwjlLUyKJCSmcB1eShKScyYTZAlISJFDnJSI9Jw+8g03OcJ3jENXt6k4GFVoFkJD2eOmhI9qgydiQLXX8JqzEUbDBsK8cCuRrYlDakre3gVKRqoy+PRUpOZ2oplIThFDwblx3lVkJyRwf4uRmpK364GSU6F+NTWv/81MRopYwbmlqJZetOoOwbAW+kg974nZh57lXlwlj/PB5r1BGrsmxchW/hqvEznZJibg9Rt6XCG5CxwwZEQrGCSdgOeii0jQ+JfHnMWSRV54KY3AvQgphPoGqKCRS3p0NBK4iMukeVeOyjTpTEpMZ8sgjP8Oqq2ZDAbj/ZBcJ4+GeiQ0cqT+s1bRH3v3067fPWhoh+4083Bk3qkD2X36qZUe8fg6ZGBsQ109r9CrJ140u0d9MtMWkUjblJy6T6ath9bQ1+3tyUjEuelZUbMBS+msz9o33C6lZtGFqfZUgSckx3kBmo8Uoqxxy0VCf02vRTpOeScZcsi+v4MmtLNTx8HAhtpOP0hPsm7Q6kGNyVxHSEIdc2r89Wa6K46kfVPakI2BMk3GVLvzt7Rm9XhqZ2dEIu5dA5u2NP3gE8q6sZoGNTYnHaGQdMwb09eb75I4ch9NaWNDBpw/bePa1Hn2Yfpbzn078iBNdqlMQqEpNeg+hIYN7EldB3nQiWea4xlFyDY+bAdN6lKPKqtkW5nqdBhCy33UZ1hkz96U+84HXIKzo+jgxCZUWViBLJv1pS8GdaFmrUfR9vucpOQx5DWyJuno16PhyzbTuoUTaMTYodTCWEAVG4+kH34/Tsd++5ra26vTqWfVjAYsvUSpqi8yGJ83POV/NLoFg8F4LxTIjI/Cg4eP8SJBDEElOzRxdUQVbc1jDfKEMPhdfwEDp1ZwqVEeuxMUSDg0EgNuu8N3RQuNW2HKFjc1ckSt6o4Jgg04O8O2/PYnlAsZiA66iZBoMQxsGqGZU1XkT0L5yVaB9Gd3cPPuS0iNaqFpszqolLu8kYHngf4IeiGFsUNztHQwQdYTf1wJJ9i6NoO98cclMQbjn4IpFAzGJ4742WksmbwZFZd4Ya5zORikkEfi18GLYLphB4ZrjnEyGAxGabDWgsH4lJE/x5n9t1Bv6a5yUSYUCglenPgJl2zHYQBTJhgMxlvAZigYDAaHHFHr3dBk2gVkWI3EAf8t6Ke88InBYDDKCFMoGAwGg8FgvDdsCMJgMBgMBuO9YQoFg8FgMBiM94YpFAwGg8FgMN4bplAw3g5pIu77+iMy71JABuP9kKcg8uoV3EvR/P4MkSbeh69/pOZGzw+DPCUSV6/cw2csRsZHTrlvypTEReBhrBh8gdJGgAOsTYq/5EWW+BThL1IhU4hQpbYDqupoHjBKRxqHoPNncf3hS6TyjVC9TnN0bN8Q5h9KhvLH2D1lNH7cdx1PJN2wNe4kRhnmPEtG9AsFzK1Mci0yFsvb+P2EkCdG4d7fGVy5V5rBJijkcsiVNiW0DGBqYQkL4yJvkFLzicikYBoBUshBBpaoZ238biMTRRyOzxuO77b8hfB0Fyy//xfm2KnbC3lyNF4ozGFl8vFKJPPFPTyIySrGXAdBrmUKB/0r+G70j9h3/Qkk3bYi7uQo5FSbMlNK+VDEHce84d9hy1/hSHdZjvt/zYFGjAzGP0o5z1AokPLID3/+PAZtG9RHs2+OIknz5A0U8TgwrgkaNB+KRfsu42ESu/G+bIjx8MB0dHAdgg2PDdGwU3e0q6uLqD2j0ahWa0zaeRfpGp/lisAOX244gzUDzcAXVYBurhloKa7NawG7Wu2wMECqcSuOt/H7aSGJvoXTu37AoKZOcKzfGl/+bw9Onj2L43t/wbcDXFGvaX/M3Xkr1zZEHp+OTCTPb+L4Ng8MUKbRyRWDf9iBE7djuFr/jvCroM8Kb2wfVwsCng50dZVqCof0Gua1sEOtdgvx8YpEgaRwPxxZ9w3cmrnAtfNkbDzjAx+fSzh75A8sHtUVrXsswdXqX2LDmTUYaMaHqIIuSrOe/iallw9+lT5Y4b0d42oJwNPRRY4YP3XEzy7j0KWnKlsub434GS4fuoSnRb0sjYbflh8xc+psLD8QhETW9ZQfyhmK8kb2+CdqKQTxKnanjcpL+ItA9uhnaqfHJ2GjhRRSyF7Afws5xQUeoOXfb6U7pcohmx5t7UeWJq1ocYDaHkEeGRT8azeqomVCrZdc/0C2AyR0daY9CY2G0KEMjRNH8o0NNGvOFgrM/WjxaXrT72eEPI42dBERz3AIHcwnH2W+xfgtJzerilRr8CYKLfDsX5AJF8/AA8vp+613uJi9JfJYWt+ZS6OOG21N1Li9FzJ6uKwZCUWdaH1sTluRTDc2zKI5WwL/MRsY8rhAOrD8e9paeiUsiPgyTbYWkLDJErqnMSmiIv06zXPpRL884dIkuUoz7YVkNOQQV0vfnjKVD9lDWtZMSKJO6ylXjJ8o4ue+tGFqF6qpL6QGC96yjIqfk++GqdSlpj4JGyx4s03Nfkib+9mT6/Rj9PDvENoyuDY1/OYMxX/iMvtY+CB7KCghBRUau8Ay8zJ27AovQsOU4taumzBuWxM8pXXC/7SGmAHvxV9jwb6QUuUgf7oN02afgv6YnzDHRV/jmoMuGnyzCZ49+Li2ZCz+5y/WuH94DF3dsXLFWDTJNVlZfJre9PsZwddHRX0heDx+oak/LVRtMxcHD0yG3okp6DPxT8Tkk8s/LpMMbyz+egH2haS+/ewC3wCGBlwadSqiYgmrOO+HIVzdV2LF2Cb5rKB+WDK8F+PrBfsQ8raNkcAARgZFNKN6TfHNivGoXw43oX/WdaYQsgfbMeuHY3htVBF8rgkTCN5i7Ub2ANtn/YBjr41QUf1yITs0cjzZPBVzA1vj+yV9UNuiPkZ5jkfF7dOw9K9MjR/G+/BBFApZXBxEXb/FV04KTnHY9ua0Zdp57H/RBhOaGgEpSShytSPjOW5dPI4jxy4g8Nn7mQCWJ0fg6qmjOHbuBqJSckKSIi3mMYJ8T+BcSLIqfGncXVw+eRK+D5NyvyeJvQu/08dwwi8cyUVEouiwZUiPjUSw30mcCUpQhSVPisA172M4fvkeEvJrWNzfWlpaXOHng5cthVQmK2aKT4agP9biQmot9B7YuIBBpFz4VhgyoS+qyR9gx/rTKpPQb48U8fevwPvYcVwKjkHZ1BIxYkMC8CBHQCWmqZBfDUXLMQcFkiOv48yxozjtextRiZ/mjlC95rPg0b8Snu2biyWXMzSuSgrJRJaB+Cd3ufJyEjdecm4ZT+B/+gwCX+avSHIkR1zFqaPHcO5GFN4QGYciLQrXvY/i8IlLuP08I7dMyzkFR509PGRLpZDJii5xZeMtyno+xDEh8Dl5FCd9ghGTmWOMPB/iWIQEPIBaJDJkxD/B3WveOHnjJfeNDDzxP40zgS+50ppHyWVIiQJpUdfhffQwTly6jecZeRJRCkSL6374vGxIpTK8l0hU8GHefhA6ViuPJrboOqN0jwnxwcmjJ+HD1dWixPipoVVnFH7fvhoL5vaF09sqY1p1MOr37Vi9YC76FvWyLAw7tvhA0bQ9WmnGYwLLVmhR4wkObDv3ju0lIz8fRKHIjH0NYbX2GDWyFbQfHcDWC/lX9RWIOXwC8p5DUdeEU7lTk5FcoCJIEXlwCjr2WYgL0ZlIjzqO2a3t0WLKIURyrYc8cj++aWsDfaEWRKbO+GLdLVWjInuwExNaVIeOdlU0HvQrbqhaGgkec6PCzv2WwCc2HbG+i9CpTit4XEpAdpQX5gzsiFYd+mP076dwfsUoDJm4FOuWT0a3+vUxbOsFbJvYHd3HLMGmTYswplMjdP5fENe05VB82LLoI/AY3BmtO/TBsBXH4PPLKPQaPg9rNy3GuK7OcHE/qd5bIn+KI4tnYGeoFIp4X6yeNgmTJs7BrpAiWgZ5JC5eegiZXj041yu+puk1b43GFQiJN68gWCrH472T0KJ6BQhF5hh9Uq0eSG+vw7DGVSDS0obzD3lpUrz0xvcDv8CPpx4hNT0Ke0Y1hPNYL0QX1TarkMBvUUc4mBnDwmU89j3hPBabpow3/WrCKE6OKh+KOHjPaYNW4w8hKi0Bt9cOh6P1cOz/JAcUJug2sBMqKTgZ7bnEdYtFyI8j/eoaTOjXAe16DsLCnbsxqa0rOvdxQ9uvt+CF0ovkMQ5M7ox+S3wQmx4L30WdUKeVBy7lbtDgZLp/Etp3m4fzMWKkBq/F4Dp26Oh5A2lPj2DxjJ0IlSoQ77sa0yZNwsQ5u1BUkSsLirKW9RykUfhzRhd0neaF8DQx4vyWwf3n28jWPIbED4s6OsDM2AIu4/dBJZL0q1gzoR86tOuJQQt3YvektnDt3Adubb/GFrVASi5DSjiZ7Z/UHt3mnUeMOBXBawejjl1HeN5Iw9MjizFjZyikinj4rp6GSZMmYs6ukHx1/S2Rh+OnIdNwsTi9lxtJ7xjrCgsdrg2znqTxl4mrq/qjoakIWjrN4PlQqdEUXT6USKP+xIwuXTHNKxxp4jj4LXPHz7dzpfgZwAPvPfaC8Ip4WRH3F67cJ1Szs0MFjRtENrC24CMh4Bru5tdOGe+GZumjHMmmsCXdaMyxLJLH7aJ+JgIy7reT4nLWqGT3aeXoBXRNTJS2sw9VELWjX5/nLWBl3VhAzkautDTfgmTaXzOprrACOS+4QVlKB0kQLWwsImHduXRDovKiImHPEGo+w49ydhek+swkx0rtafUjTVjyWNrUTZdEjRdRqHJtLesUjTYXkLBqW5p/+m/1Wl3GeZpgJSCBWQda7BdHqpjJn9Gv7bjv5VsnLTVs8UWaVENA/MrNaOafkep4UwLtH1yJtMy+puNqB44M2jdAn7TsZ9LVfGl5A7E3janGxctqIl3kZFcs4kuqNV1exUF0QLNg+3pzd9IRWNHEfC9mB/1ADYVCcvV8SOoUiOnyZBsSOc6nQM26Y/rxkWQurEfzAnIWIovaQ5FB/rPrkpawKS19kJNnxaXpTb+lyVEWvpya61jShPOauIuv0qx24+hUrvw+JjJob3894hsNJa9iFstlUauotRAkdMkpS0XJj8ufkIXUSMgnI+vetCo4iR6e2EA7/ZXlMZV8ZjpSpfarKU9km6ibrogaLwpVleE032/J0bAxLQzSCF92j5Y11yOT7uspSvlOxj4aoK9F9jOvcjn6thSRxrco69fmNSSjposoJPfDEro2y4G08u+hyPCn2XW1SNh0KeWKJDuEFjYSct+1pt6rginp4QnasNNf1a6UWhe5FsH3W0cybLyQ8kSyjJrrmVD39VGq8p+xbwDpa9nTzBIrYRFkB5KHk5AE5q1p5NRpNG3aNzRhWEuyqjWZLudUt6L2UMhf0O8dRFwd+Zau5ZPF9Tl1OFlwbeKznDaxiPKRcY3mNTSipotC8vJPco1mOWh9FnsoVGTspf56Qmq0MOTt9/loymjh/XmSv6ZTLS0htfzpsabNU5JOe/rpEs9wcKF9T4x34QPMUMgRG08wrcIH36wfxvQzR+q57din2W4rub4XD52+hKs2oFWxIvSQgsTcbbZpOP3bRoRZtEenfOee9FuMx5eNZQjdvgWXlYNsUX2MHtMOOhFe2HNNMymviIbXETG+mNISqtksRSwOrtqCcBMzSHy2YdPG9Vi3bjcCE3jIvn8HQVmcH74B9HV50G3tjvk9LNRHsrRtYMNprPzaPTCipZl6CodvBgtzXSDpFV4pk1GWsHn6qrCFTcdiwYCaUJ/mrAiH2tXBS+HCUfp5G0gMiYS4b8tLHjnxtKEt4rR7LRFEmtytYGwEHZ4WtPItKPJNjGHIKfGqpQkV2mg0YS32b3RHQ42Tdk0bVEMk7oaVdG5EB1aWVTg5cf+UOqIo5LcMcuSJuHRQLC7tOYII5ayEdkssO/s7un+iR4wFlSvBSJkvUgmU2Vmc/Hh6etwoig+zvrMwpYERavdyx1fNzYDYg1i1JRwmZhL4bNuEjevXYd3uQCTwsnH/ThCyOJkeWLkZ4Xa9MdBRM5MlqIvv/kpEnPdE2HyI44RlLeuJR/Hzhnuw7tYHdXMn2QSoVMlIdQw1Fx0rWCoNk/HVx1NV8PSgxw0r+WZ9MWtKAxjV7gX3r5rDDKWXIUXsAazcHA673gORJ5Lv8FdiHLwn2hRaZ383+OZtMH6+Bzw85mHWhP5wNlG2hCXAN4JRRS6NBdb5BTAyqsilmQ9BTrUsonwkHv0ZG+5Zo1ufusgTYyVUMiogxc8SSeRl7N2xHdu3a/7dcRDXXpRtfYoyMpBJPIi0RfnKm3ImhPslFnN1R+PEeGc0XU55ks0pFDxOoVBWE310HjMUtaTXsHNHKNcRJsP7cAo6DrNTVSKeoSEMKAVJSZoCIXuI2yEpgEllmOav5QJr1K9nCop/gLC/lX75sBoyBm4mz3F09wXVMUnZ/d04aTAMw2tqXswORkBwJgTmtnCwqIbq1a1gZW2PXh57ccTLA504/UANDwKRdr5KzVVnpVSICpwvVxY6UiigUDqWOWzuPS7s/PsdBKqWglMK3nY+lW8BC66RVSS9wN8l9e+KRCSlKDiR2cE2t1EqG4ZOPdC/fibOr52H8V8Ox1cLTiCaS7NYLMmbOi5PyiBHvtVQfDuuDuL3DEd92yYY5LEf98XaH6Lg/iMoMrMg5ho1vqk5qpaaCD7Ma9QocNQwOzgAwZkCmNs6wKJadVS3soK1fS947D0CL49O0M0Owk1OpvwqXHnJn/+cgvmWxeGtKa2sS8MCEZrOQyUzjaL+DvDNa6BGQYGUWoayg25yMuOjioVm0KBBS1SOEuHrwLCyKUy5fLVrMwazZ3aBzQcRuBRhgaFI51WC2X/OvLwMD/5cgSWenvDU/LtsxXZc5QawZYGnrw89TneQy/MrIHJIs+WcvmoAgw9dQf4DlH+JlL9CbLIhqmg0AlHTUfiqCR9he7fCN+IQLuj0Qx9NRRBUNIIBp2QkJWkKhEIKSTb3t/LkR4EywoOhoT4XWe6fnBib9MTYgZaIP7kHpxLFuL7zGmqP6o1KmsfKEb2YGwIqeJXRsJsb3Hr2RK9evdG7Tx/0dXNBtfwKy9vyIcMuDlEDdO9UA4KsW7jsk6xxfBNZZDBCEwVw6NYTdd+ygmQEr0P/Jv2xg9cX/9u+F7tXDETND9lmlUWO/Kro9ft1BHn/gtGOSTizbARad14I//x7Gj8hpHdDES4XwqlNG5i+g2yJG0lJSAFe5Ybo5uaGnj17oVfv3ujTpy/cXKpBQFJIpZwynJH20Z2eomwpsjlFXZJV3GVQ70AZyhBJOZlw381Ie4dTLe+EIVoO7g3bD9EOcJLLlmZz4x0JsrLKTYqfCFpoOPccHkY8wqNH6n8jHpzFXOeyNXRatWrDRkhITVZvwlehSEIyV1EE1rVQiykU780HUChiECfjtOecUYSgNr4a2QG6zw7gu7F+sBrWBjkDeJ5RRU6hyOAUCs2yhcgeTg66kEcE4Mar/FWfkJKSDl6VunDK7a110XbsCNRNPYed27ZhR2QbjGmVbx5cyxY1rQTcAOYizscW14zkVMj8FZNrjJU/C81QqBxVDzjeMuwC4ah+FXRRwXUSJTd22mg1fS66mbzGyTWbitlAJMGdvV4IMxuEBd80yh2NlbQUQTlpkoVhjfssnLOZit8musKspMrFvZI/BapZm6IoIk0F/JYqRwUSL2zE7jARanadjvUXQnFtWWvgzkZsuVS28yf/ODnyLApFDI5sPoYYsz6YMaZubv4UKb+c8lcoPC3bmrASZCP44nkUKTKhHexqCLjs9Id/8XqnCuWM2zuhilP+eOX8XXJZ17KxhaVAjkdhd5E/90glgPyzdopC4SjR1Evl/1W/NZShLgrt7FBDIEOYvz83fCkJTjF5B5EUGa8iKOxDeby4cB1R10dFgRnMguVDCza2lhDIHyHsbgEpqv3JZe++mfRjg0tPbvv01qheLiBxfuX26NBIgOePHnMtpQbZEzz5G7Dt2BW1mULx3pS7QqF4HYK7T7hRVO6sEh8Wg0fBrVIyHldshy/r5eUar0IFaPMUiH/5UrPeaIp+U0bAVuqHrVtC8zI98yYuXMtEY/eJaJ9fZ6g/EiNbZOPcd98joddXcMg/ItCqiyHDWkA/9Tw8Zx/Cs5xaJo+Dz+a9CFIGnp2AhBQ5xKkpyN3SQMlIVZ4fKjBLkonkFDEUnBvnvWxhc5pvAheAggs77wSbAslJqVwbkoKEfOfplGetKSEGLzO552Fn4RtRdJMgsBmDP3bPRN37SzFi+jE8L+Qt+dpSzDxUCfMPrMPgfPPpfFMzVOYlIS4upwFS4HVQKJ7JFXgWFqI+2ieLwL0IKYT6BqigeTU9OhoJnAxk0pyckHHxToFcnITE9JxEKZCUmMLV3RQkJZeWpkJ+S5UjH/zos/hlZ4CmLOihTjtXWAj0YWBY/rrwe6N4jfhEGUguyVf+1cgTbmPHFE6R8K+D+Xs34Ivc44RFy0/++jUSuQYxMeE15yMPrbpDMKyFPlLPe2L2oWe5nYc8zgeb9wZBInDAkBGtYJB0Ap6LLubezCmPOYsli7ygPIXK5Q6XP4SEmJfIVCQj7KwvImRyhO8Yh65uU3EwqlDk86OIR2wCl8bMV4jLKdhlLOuCGn0woKUeXh9fg/Wh6rIoe3kR20+Gc/1gMLzWHID/0wxVeIkpXGeQwo0ec6Iif43XiZxbYgJeFxRIqXVR4DAEI1oZIOmEJxZdzDn5IUfM2SVY5KU8hsqh3MtACYh5mQlFchjO+kZAJg/HjnFd4Tb1IIoViTQOcYmcUpAYj1eF6mMuMk07k5SI3GrDKQbVLc2BmAe4p8kk2Utf7PGO4GQRimMbvHBdKYs3yocANfoMQEu91zi+Zj3UYpTh5cXtOBnOKWXBXlhzwB9PU8sQ948YeexLxGcrkBD/6u0VJHksXsZnQ5FQKE8EdvhqYk9oXz2DyxqDJ+KAEzif2g5Txrvk7UdhvDvKnZnlheTaSupb34x0tA2pZpsptC8yZy9tBl2e0ZEmnc676i3ryi80or09GYlEpGvhQv2m76L7mh3Zt9YOIYdK1tR55mra9sfPNKWLM7WddpievLHdV05xu/pR5Rpj6XThiyOVZEfSwckuVFkoJNMG3WnIsIHUs+sg8jjxjMT3d9CEdnaq74sMbKjt9IP0JOsGrR7UmMx1hCTUMafGX2+mu+JI2jelDdkYcP60jal259l0WHn7ZylhuyvTps29o2dFLcbvpIfZGeTn2ZPqVdYmoUiHqjr3peV/Kbe/y+j+T61Ij8cnHQNjsunqSVcSS96mnfXkIq2Z3Je6D5xAC1Ztod27t9PGX36g6bN+ofNPijgCIgmhVe0rk37tAfTjxs20+se5NO/H0eQi4pN2pVrUfPR2CpfGkNfImqSjX4+GL9tM6xZOoBFjh1ILYwFVbDySflj9Ky36sj3ZG3FpEumRVbMBtPT8PfKa3YPqm2lzbtpk6tSdJu98wH2wiDS9elK03xLkqNp9f2goVTKqT8M9t9KebT/R+Fb21MT9ED3N26b9UZDm9wuN7tuELCqo5VO9SU/64quR9NXwL2hA7y7Utp0bjVm8n4IS8uWt7FkRMrlL93dMoi71KpM2Vza1K9ehDkOWk0++8p0deZAmu1QmodCUGnQfQsMG9qSugzzoxDONULKj6ODEJpxMK5Bls770xaAu1Kz1KNp+P+eIw336qZUe8fg6ZGBsQ109r1CiPIsuTLWnCjwhOc4LUPsrROrlFTS8e0OqqqNMYwUyd+5Ow79bQOPKXNa5snt3PfWz1iFhZUfq3Ls39Rq9ko54dqIKFe2o/fAZtHrfZprVoz6ZKcPTNiWn7pNp26mtNKlLPaqscqtMdToMoeUFBVJiGVJ5iTpIE5twMqtgSc36fkGDujSj1qO2U55IfqJWejzi6xiQsU1X8rySSPKsCzTVvgLxhI75TjrlIKNH+76l/q1tyVDZhoiMqFbbATTrQGTuN5VIAtbS15p2TimfZgOW0iVNM5h9dzV1NNUi/ZptqV+/XtRr1Ar6cyknCwNbajdsOv16LqCY+pVFd9f3I2uunars2Jl69+5Fo1ceIc9OFaiiXXsaPmMNXYo6V0LcP2JkD2j3tP7UrrYJiYSczIzsqHX/mbQv5wRPicjowe5p1L9dbTIRCVV5Yte6P83c90jznEP+gk7MbE1NB/xIW7YsoSEt29O3J/4ukGeMd6fcjYOVF/LkSNwKvI9YiT5qNHJFw2o5CyWFkL3AvUci1KljWux0S0Z0EG6GRENsYINGzZxQtchbod6NcglbnoAwv+t4YeCEVi41uHF46SgSr2PtVHesDLbD+KWemNGntvp0S3HIXuH+tQA8UVjAqUl9WOkl4O7NeFg0rYc8+20ZeB7oj6AXUhg7NEdLBxNkPfHHlXCCrWsz2Bu/xaLwW6apRDlK4nAv4A4iU7Rh2cAVzpZlkdDnTgaig24iJFoMA5tGaOZUtdBlZwqkP7uDm3dfQmpUC02b1UGlfFO68oQw+F1/AQOnVnCpkSNPbkR4aCQG3HaH74oWGrcPQGY0bvuH4LVhA7R2sYRObChCJLXhXOP9KmapdVGRjmd3buLuSymMajVFszqVcpedOIkgIcwP118YwKmVC/JEkoBDIwfgtvt5rGhR/mNY2at7uHozCnJLF7RqUBXCuLsIEduXSRaZ0bfhH/Iahg1aw8VSB7GhIZDUdkbuqx847p8uMiSE38StKIJN8xawVx27YpQHH61CwSgeWeR+jO81DrvjamPAqN6cslUZlcwsYN+wGVzqVoUuqx+Md0D87DSWTN6Miku8MNeZdUDKmyifnV6CyZsrYonXXHxaIvmU4874VGEKxaeG7CF+G+COe/2X49vmekiIjsSj0JvwOXsa3n73kKxrjQYt26NLl05o16whaltXhZFQioTnD3Dr6iWcu56G9gtXYRizb8zIj/w5jq7cjqzu0zGswVsb2P4skT8/ipXbs9B9+jB8aiL5lOPO+HRhCsVnhOzVXZzx2odDfx7D+ZuP8SpLBmXu8njaqGTfFB37jsS0GV+jueqOEAaDwWAwyg+mUDAYDAaDwXhv2Go7g8FgMBiM94YpFAwGg8FgMN6bf2jJQ46UyOsIFTuhdT22Q6hsyPHUZy8uPpZobnvjw9RlAPo2NFL9Kglp+FnsuRINuSZnBRYt8UWPurk3lDL+G8hTInE9VAyn1vXAat3HAGsHGZ83H3iGQoG443PRqY4pTGt1wHenX3FV6iNAnozo54lvfwPbP0o2bv8xHRMmL8a+27HI1jFB5YplO/slMKiEynp8pEacwMppEzDxF598NxgyPgjiFLxKSERScjKSE+MQHfkAoSGhuB8Vi/RiCr08ORrPE9+hFJZSfhVxxzG3Ux2YmtZCh+9Oqy3kloHMF/dw+9Yt3Cry30DcDH6qMsTHeFs+0naQwShnPrBCwUeVPivgvX0cagl40NHVzWc29t9CimvzWsCuVjssDCjSIMZHhbDVbOxZ/z0mfdkPrWrmm2NQJCLY62d4TJ+G2Yt+x+HgnCuFOYWimgt6Dx2Db1fuh2df449A5p8/yYG7sXiKGxzNTGBc2RadZmzGsdPHset/w+BcwxH9PX0Rn1+pk17DvBZ2qNVuId6uGJZefvlV+mCF93aMqyUAT0cXumUqAAokhfvhyLpv4NbMBa6dJ2PjGR/4+FzC2SN/YPGormjdYwn88puPYJSRj7EdZDDKn39kD4XA2BgVuRrEF3wMxxVFcBwwFVOnT0W/Om9724sC8bcOYsUP2xD0D01v8A2NYVw4lxQvcWR8aww5pIu+c+ZjTON4rOvZBIP+CC80ahXCsKLeP5PJ/3GMWk/B73t24pvGWuAb9cL/9q/GD/O/x/JtF3Dhhxrw/WEQxu+MzlX6IHLEgKlTMX1qP7xdMSxj+RVw5UZd6fKZ5i8JPiw6TMLSjZ4YZMm9Y9cLM+fPxuzZc7HAcyNO3PDGrOrPEVGsMbzPkfKt7x9XO8hglD//yb7G0NUdK1eMRRMDjUOZyYD34q+xYF/IP2ga+s2xTPq5HzFzX2VM+Gk8XKpVgUPPH7HW3RSnuQ7Mq4CVVuUdFJo/GB8eQSWYKK/xFVWATm6fIYB1v95w0UrAea+z+QxbGcLVfSVWjG2Cty2G715+y4DAAEYGRTQLek3xzYrxqP+funHx36jvDMany4dTKMQxCPE5iaMnfRAck1nMeq8cyRFXceroMZy7EfXmOr8iGZHXz+DY0dPwvR2FxByjlzko0hB13RtHD5/ApdvPkaF5X5YRjyd3r8H75A2VdcWMJ/44fSYQL3NniMWIDQnAg2TlCzKkx0Uh5MopnAqI48YkciSF/4WTx7zhH5WWN6JUIge0tLS4RpcPXrYUUpms0FpoBp7fuojjR47hQuCzfJYFlciQEf8Ed6954+QNpYXDDDzxP40zgS/xdgsvYvj+eRIvK9XJZ8pdANsWTWGedBEn/XLtpjL+BYrU33R0oMM9kIuzkK1xUiGORUjAA6iKYT4yngfi3NHDOH45BDFcWb61zxMz3Gdg002lGVwl+ctvfsSICfHByaMn4RMcg8xynUXjw7z9IHSsxpXcUsuxFPH3r8D72HFc4uJR5CpJxnMEnjuKw8cvIyQmA/G39sFzhjtmbLrJPZQiLeYxgnxP4FxIsqoOSuPu4vLJk/B9mJRbJyWxd+F3+hhO+IW/IUMl8uQIXD11FMfO3UBUbuPC1ffYSAT7ncSZIPUyoTwpAte8j3Hyvqe2vJtDafVdnoyIq6dw9Ng53IhKyY1XAcrUDjIYnwcfQKGQIurPGejSdRq8wtMgjvPDMvefcbtAS8oheYwDkzuj3xIfxKbHwndRJ9Rp5YFLGlO+ijhvzGnTCuMPRSEt4TbWDneE9fD9yFQ9Vb6+H5Pad8O881yDlRqMtYPrwK6jJ25kpuPqmgno16Edeg5aiJ27J6Gta2f0cWuLr7dEwW9RRziYGcPCZTz2PVFA8eo8fhrTC+3a9cbgHzdh58Jv8cvZJ4gP24VxjWuj04++ahPQ8qc4sngGdoZKoYj3xeppkzBp4hzsClE3EdLIg5jSsQ8WXohGZnoUjs9uDfsWU3AoUtPMpl/Fmgn90KFdTwxauBO7J7WFa+c+cGv7Nba8KLIpKoZMxMZwjWqhnktQuRKMeen4+1m8xoXxsSAOCsIDmQ4admyPKsoaJ/HDoo4OMDO2gMv4feCKoRpFPC4t7IQ2E/7EM3EGwneORH2LZvhZ2gNu9YwgFEjfKL85SKP+xIwuXTHNKxxp4jj4LXPHz29UundEHo6fhkzDRaVCX0o5Vrz0xvcDv8CPpx4hlasHe0Y1hPNYL0TnRlWB+EsL0anNBPz5TIyM8J0YWd8CzX6WoodbPRgJBZBHeWHOwI5o1aE/Rv9+CudXjMKQiUuxbvlkdKtfH8O2XsC2id3RfcwSbNq0CGM6NULn/wXl66wleHxgMjr3WwKf2HTE+i5Cpzqt4HEpAbLoI/AY3BmtO/TBsBXH4PPLKPQaPg9rNy3GuK7OcHE/iSRlEKXUd8njA5jcuR+W+MRyCoovFnWqg1Yel3LNxZe5HWQwPieUx0bLk4xr86ihUVNaFKKxC8whuTaLHLRE1Gl9LKmNN6eSz0xHqtR+NeVYpZXHbqJuuiJqvCiUsklG4cubk47lBDqvscYtvjqL2o07RSojyGm+9K2jITVeGETqr8jo3rLmpGfSndZHKQPMppCFjUjINyLr3qsoOOkhndiwk/zjlF/PIP/ZdUlL2JSWPtB8XHKFZthrEd+kM/16L8f8dzbdX9ma9LUsadSxBI1bBu0boE9a9jPpal7yiLJu0AJnI3Jdei/PDG7aXzSzrpAqOC+gG2rLzVyQIbSwkZD4RtbUe1UwJT08QRt2+pMqWm+QRX8OM6YKfXdzX82PmC5NtiaB0Jl+CM4zS5x9ZwE1EAqp9aoojYsSMV1wt6QKHdfSy5ItojPKhde0uZs28auMohMqy/SpFOW7gUY1MKM6I7bT/fyW5TP8aXZdLRI2XUo5xTD15GiyEDXMy1dJAM13EpJx3x0Um5t/RZTfjGs0r6ERNV0UoqkPHJJrNMtBi0Sd1ud7twxkB5IH902BeWsaOXUaTZv2DU0Y1pKsak2my7lVo7hyLKbLk21I5DifAjVJSD8+ksyF9fJMaKeepNEWImr4QzBXw5RIKGC+EwmN+9KO/BHNOkWjzQUkrNqW5p/+W+034zxNsBKQwKwDLfaLU7cl8mf0azsRCZssoXs5cvSZSY6V2tPqvMaFNnXTJVHjRRSqDEh8kSbVEBC/cjOa+Wekuk2hBNo/uBJpmX1Nx3Pqa3H1PdWHZjpWovarH2nqu5xiN3UjXVFjWqT6gDJLytIOMhifF+U8Q5GIoz9vwD3rbuhTN2+xVVCpEozyjagVsQexaks4TMwk8Nm2CRvXr8O63YFI4GXj/p0gZIEHkUgEir2EPUciVLMS2i2X4ezv3aHDjXBiD6zE5nA79B7oCPVXBKj73V9IjPPGRBvlMgAPenoVAL4Z+s6aggZGtdHL/Ss0N1MmVwdWllXAV/6TEye+HvR0eNBq3B9DHXJs/2qh9pdforX2CxzecUrjVjRpp3/DxjALtO9kl7cBTr8Fxn/ZGLLQ7dhyWTPpy+O+o4pWX8ya0gBGtXvB/avmUEWrzGij7dT56GkWhrWTvsOh288R8ywEZ7x88VRhiBo1q2j8Mf4tKPUafhvVH+3rWsKu/TQEdT+GgN0jUSe/RWodK1gqpyv4fM0yiQwPrt1EHCqjimoag0NUD8719JAWFIB7uSPbN8tv4tGfseGeNbr1qaupDxyCSqiUv9K9JXzzNhg/3wMeHvMwa0J/OJuoVgDUFFuOtdFowlrs3+iOhhq74No1bVANkbgbpj5wKntwDTfjgMpVlGlQIkI953rQSwtCQF4iucANoK/Lg25rd8zvYaE2M65tAxsLLt21e2BESzP1+1wdtzDXBZJeqY/HKmJxcNUWhJuYQeKzDZs2rse6dbsRmMBD9v07CFKuCPL0VWELm47FggE1OYkqqQiH2tXBS+HCKXHVkGt/Dq7ClnATmEl8sG3TRqxftw67AxPAy76PO6oPlK0dZDA+N96qKysVaRgCQ9PBq2RWYieZHRyA4EwBzG0dYFGtOqpbWcHavhc89h6Bl0cn6HLRshr6LcbVicee4fVh22QQPPbfh1hbGWg2gm4GI5NfBRYWmlZLhRZE+X8q4ZujRg2h5kfp8AQC5XJpLnzj2rA35yPr72cal6KQ4eHtEKTABJVN8+/eFsC6fj2YUjwehP2tcVPDN6+Bt4jWGwjsx+HPW1exYYgBbu9dg9/2XIbvjTCkG7VD9zbs+qp/G17Flpi6/Qh8gi5hUXNthO3dhAuFNsu+CR8WVhbQpkTE554vzUaWWAZ+1eqoVrhs5yJFWGAo0nmVYPZ2mmnJ8HVgWNkUpqbmsGszBrNndoFNoTgUVY4NnXqgf/1MnF87j1Ooh+OrBScQrVBALJao9hjwLaxgoU1IjI/P3XOQnSWGjF8V1d9IJA8CkXaeks795vQv5bSq5rI3NTweD8R9Q6F0zA5GQHAmBOa2cLCohurVrWBlbY9eHntxxMsDnfJVDx4Xdn4dTyBQfl8OWYkbHbIRHMC1PwJz2DpYoFr16rCysoZ9Lw/sPeIFD+UHytgOMhifG+Vb3Ckb0myuskuykFXC/ZskFkNCCvAqN0Q3Nzf07NkLvXr3Rp8+feHmUk3VgPCr9sLv14Pg/ctoOCadwbIRrdF5oT8yuKZEKpVybUoG0j741mtuNMRJiGdQ0u2UCkgl2Vys0pGaWjDRPEND6HPv81WtYPmiVbUpBk9diBW//IylX+ojPFiMeuNmon8ljQfGv49uY8z+bRYaJe7D3B8vcUpnSXAKxbB5mFA7Agd+P44nmXIk39qEXYFWGD1/NOzz66oFIGRLufJHEmSVVOneC0O0HNwbtsXGIY+M4HXo36Q/dvD64n/b92L3ioGoma/48y2GYd6E2og48DuOP8mEPPkWNu0KhNXo+RhdfCLLDokhlhAUvMpo2M0Nbj17olev3ujdpw/6urkgdx/zO0Mq5YgUPFRu2A1ubj3Rs1cv9O7dB336usFF+YEytoMMxudG+fZ0WjawtRRA/igMd/Nv7eaUB2W9kmtUfy3bmrAScJr+xfMo8li7IhEXNu5GmKgmuk5fjwuh17CsNXBn4xZcEgthZ1cDAlkY/P2TNS+8CWluFC/qYnHVSKYspD3C4xge6rbmPp4fLj150RbB3skBuvIIBNx4lc+d85aSwo0cq6CuU7UcF018Co6w3gv5E+yavgjXas/FRo/mmulbxr+FKn/zFTrtxrPw2wwn/L31Wyy7lrOlWIm6TuRHkRKJJyaDMKqmPzwnj8PcA8D401exrnfO8oCaguVXCza2lhDIHyGsYKVT+5PL3vpkQelltJhyzNXJNe6zcM5mKn6b6AqzomZVFCmIfGKCQaNqwt9zMsapE4mr63qrN6zmkhNy/i9ovsv9p8B3lY7qCCkbF9S0EiA7+CLOF3tnRs7bhdOo/FXQRUWB+q4F25pWEGQH4+L52AL1PZcytoMMxudG+SoUghroM6Al9F4fx5r1oerjYrKXuLj9JMK5hi3Yaw0O+D+FpO4QDGuhj9Tznph96FlugyeP88HmvUGQcCP66LO/YGeA5pyoXh20c7WAQN8AhnwBHIaMQCuDJJzwXISLOduq5TE4u2QRvJTnRCHH69eJXBuTiIS8g/8aFEhKTOGepSApucAhMFBWRr6jnnKE79qNKxX7Y86E+ho35bSoAJQQg5eZCiSHnYVvhAym/aZghK0Uflu3IDT3aGsmbl64hszG7pjYXtPNy1/jdSLXiCUm5LuP4D3IuI/d4/rix1df4cCxH9BcX+PO+HeQxyGeK4+U/grxGRo36ML1u98w1eEx1k5bgZs5OoUiCYkpXFlISUJOMczwOwU/HRd8NfdnbNm+DZtWzcGgBsaFKmnh8itAjT4D0FLvNY6vWY9QdaXDy4vbcTJcDlmwF9Yc8MfTDK487xiHrm5TcTCqYLkvgDQOcYlcB5oYj1fF9XvFlWNZBO5FSCHk6mkFTaTTo6ORwPWiMqmmYmT44ZSfDly+mouft2zHtk2rMGdQgzcvb8tOQEKKHOLUFORuaaBkpCpPzqanIm8yMBPJKWIoODfOO9eZ18WQYS2gn3oenrMP4Vle4wKfzXsRpIwGJ/sELgAFF3beUXWuPielcn1+ChLynR19s74DdYcMQwv9VJz3nI1DeR9AnM9m7FV+oIztYGr4Dozr6oapB6NUITAYnzzqvZnlSNZdWt/PmnSElcmxc2/q3Ws0rTziSZ0qVCS79sNpxppLqhMH2ZEHabJLZRIKTalB9yE0bGBP6jrIg048U+6bzqBDQyuRUf3h5Ll1D237aTy1sm9C7oeeanZVZ1PUwYnUpLKQKlg2o75fDKIuzVrTqO33SZJ9n3ZM6kL1KmuTSKRNlet0oCHLfShN+ZrsGXnN7kH1zdTPTJ260+SdD5RHJGhBfSHxhNWo/dSfaduubfTzTDdydh5Ma24mq76oRkb3f2pFejw+6RgYk01XT7qSqN6vnXZrLQ1xqETWnWfS6m1/0M9TupBz22l0+Il613f2/R00qUs9qqwtIpF2ZarTYQgt91HFqhiKO+WhREL39s2g3s3b0HBPb4rKf3qgAOyUxz9FwvmlNLxbA6qizF+RLlk07kljNtzRnGTgSnTw79TbSp+s3Txo96ltNLtHfTJTlQVTcuo+mXY+yKbsu6upo6kumdo7UyMne7K2rE41ajlRi94Tac1fsSQvrvxyZeXu+n5krSOkyo6dqXfvXjR65RHy7FSBKtq1p+Ez1tCllxl0Yao9VeAJyXFegDpSBZDRo33fUv/WtmQoUqbBiGq1HUCzDkTmnVziKLEcy2PIa2RN0tGvR8OXbaZ1CyfQiLFDqYWxgCo2Hkk//O5NT8R3aXVHU9I1tSfnRk5kb21J1WvUIqcWvWnimr9UJ1KU35jQzo6MlPEwsKG20w/Sk6wbtHpQYzLn0ijUMafGX2+mu+JI2jelDdkYKONiTLU7z6bDf6saFzo42YUqC4Vk2qA7DRk2kHp2HUQeJ56RmAvbvb09GSnjr2dFLcbvpIfZGeTn2VPVZghFOlTVuS8t/0t1TKeY+p5NkQcnkwvX/ghNG1D3IcNoYM+uNMjjBKmaLyVlaAejzk0l+wo8EjrO07zEYHzafCBro5mIvu2PkNeGaNDaBZY6sQgNkaC2c40Cm6C44Qqig24iJFoMA5tGaOZUtcBzSdw9BNyJRIq2JRq4OsNST/NAgyL9Ge7cvIuXUiPUatoMdSoVu3OtZGRB+L6xK1ZW+QkByxog+u80CMzqwrWpHYwLr7nKExDmdx0vDJzQyqUGCkRJnozIW4G4HyuBfo1GcG1Y7T0sfIpxeHg1fJn5G14fHVEoHAXiHj6AwqYezAsKtBASXJxYC70fzUXk+ckwL9/5KMbbkhaF61fvQ1arHVrbvTmdlHJ9Bcatz4RbZ2tulKu8bVOGtNiH8N2zEYcim2DN7dOYWLP4TQCZ0bfhH/Iahg1aw8VSB7GhIZDUdkaN3DKiQMKhkRhw2x2+K1po3MqbDDwP9EfQCymMHZqjpYMJsp7440o4wda1Gez5AVgxbj0y3TrDGgJU0BFAlhaLh757sPFQJJqsuY2zE2tqwno/MqKDcDMkGmIDGzRq5oSqJdaVYiipvmdEI+hmCKLFBrBp1AxOb3yg9HZQkXAIIwfcxi7fFRoXBuMTRqVW/NfRzFBod9tMrzVO/z7qGQqdHn9Qosbl7cmiY19VJh02Q/Hxkx1ICxqaUL/d+WfENKT50Df2VemrY7kXJLwTWU9P0Xy33rT8Tv5LFf5JsilwQUMy6beb3kxlGvl8Y09Vvzqm+f0fIOspnZrvRr2X39E4MBifNmzMqkQhgUS5K1t5vW557G0oR7KvboDH1osIioxBSlnv6JalI/5JKPz2L8W6C3lXFTM+YlLuIPChXGnLqwgkkBm1QZem72FIQ/4cZ/bfQr2luzDX+T3CeS9ScCfwIeRFJxISmRHadGmq+fW5I8fzM/txq95S7JrrrHFjMD5tBD9yaP7+b5L5EsHnt2P91mv4O5WHSvVqobqZOYyUxhf+ZaQpr0EmpqCX93Hb/yoeixqjVa3Sd15m3tiC7zecRsjTTBjXbgSXlh3Rrbk1OwHyMaMlw4PDW7HnyktYtGiN+lUrgCdPx7Pr+7Fq6RmYzf4FExz1NZdgvQN8Q9Rp1Q5OVf/NUqAF2YPD2LrnCl5atEDr+lVRgSdH+rPr2L9qKc6YzcYvExyh95+4/IkPwzqt0M6pKquXjM+GD7SH4tNB/vQsNuwPRoZAwFVxBeQyHuz6zMTAeu+4H4PBeEdk0T7YtGYbzoa+ho5FdRhVMEGtZt0xaEA72BTaP/TJIouGz6Y12HY2FK91LFDdqAJMajVD90ED0O6zSSSD8d/kP69QMBgMBoPBeH/YHgoGg8FgMBjvDVMoGIxPBjlSIq/iyr2SL/GGPAWRV6+gNG+MfxiWL4zPHKZQMBjlihjP/Q9hw0pPLF3xK/7w8kFYXP77l98FBeKOz0WnOqYwrdUB351+xakWRaCIw/G5nVDH1BS1OnyH0yrzm/8WH0IO5YkcydHPkVjcbaDlyUeVLwzGh4MpFAxGeSF5gB1fNkfv1U9g3qo7Ojc0RMTGEWjUaAq8c69kfxf4qNJnBby3j0MtAQ86urpFn/bgV0GfFd7YPq4WBDwd6Or+S8clPpgcyg/ptXloYVcL7RYGoKynsd+ZjyVfGIwPDFMoGIxyQY7IjZMx43ZHrNs9F32bO6Np11H46chWjDZ4ise5JsnfHYGxMSpyfRFfUPxtmZwvGBtXVBr6RonePhgfXg65KOJx6+AK/LAt6K0NoIkcB2Dq1OmY2q8O/plbOf7tfGEwPjxMoWAwyoUs+PveRJZlLdjnv1jAsBOmLuwLG83Pz59/UA4Z3lj89QLsC0l9+8vbDF3hvnIFxjYx0DgwGIz3hSkUDEa5wIeBgS5k/juw4VZ+M+VaqDt0CnpZvmNVE8cgxOckjp70QXBMZrEjcXFMCHxOHsVJn2DEZBbtS54cgaunjuLYuRuIyjOzqbpZNTYyGH4nzyBIZb1XjqSIa/A+dhyX7yUUvV+jWMpfDorkSFw/cwxHT/vidlQiclZN5FyYWlrc2J/PQ7ZUCpksf0yliL9/RZWGS8ExaoufhRDHhiDgQbJaGXkHGRQrz3yUJV8YjM8FplAwGOWCLjqNHYk62TexuGsbjFx1GuGFOhnZgx0Y62oBHS0RrCddVHeMmVexqn9DmIq0oNPMEw9zey4pov6cgS5dp8ErPA3iOD8sc/8Zt7M1j3OQRuHPGV3QdZoXwtPEiPNbBvefb6OgNwkeH5iMzv2WwCeW6zh9F6FTnVbwuJTAdaYKRB/xwODOrdGhzzCsOOaDX0b1wvB5a7Fp8Th0dXaB+8kkTThloTzloECc9xy0aTUeh6LSkHB7LYY7WmP4/kzInx7B4hk7ESpVIN53NaZNmoSJc3YhhOuzFS+98f3AL/DjqUdITY/CnlEN4TzWC9GaaEj8FqGjgxmMLVwwft+Td5BBSfLUUKZ8YTA+M5QXWzEYjPJAQo+9ZlBbC23igUdaRvbU5ZvNdON1nmU2+YvfqYNIi+y/vcb51iC5TnPqaJGo3a/0TOM149o8amjUlBaF5BnyklybRQ5aIuq0PpbU3jLo2ryGZNR0EeV5k9C1WQ6kJepE65W2wDlSfWaSY6X2tPqRxra2PJY2ddMlUeNFFKqxry6+OIlqCPhUudlM+jNSY4QsYT8NrqRFZl8fp7czS1ZOcpCF0/LmOmQ54TypLfSL6eqsdjTulCY2GftogD4XxsyreWFwfi5PtiGR43wK1KQt/fhIMhfWo3kBOcbkuVf9Z1NdLSE1Xfog1zx7WWVQujzLli8MxucGm6FgMMoNEWwH/gLfh2Hw/m0a3Kq/wuW1E9Ch5VgcfKaeeuAbGaEiV+sE+XfmCYxgpN5tCfWF74k4+vMG3LPuhj5187YMCipVglH+AwKJR/Hzhnuw7tYHed4EqFTJKO8UiCIWB1dtQbiJGSQ+27Bp43qsW7cbgQk8ZN+/g6AstTeevj50eUI0HbsAA2pqNj9UdEDt6jykvHoFjbcyUk5y4IkgEhFiL+3BkQjl8ok2Wi47i9+7l2T9QhuNJqzF/o3uaKi5PV+7pg2qIRJ3w9LVDhw6Vpaown2fz88TaJlkUBZ5liVfGIzPEKZQMBjljb4dun2zGseC7uLY5PqgiF2Ys9ynyHX8IpGGITA0HbxKZjAroYZKwwIRms5DJTOz4itydjACgjMhMLeFg0U1VK9uBStre/Ty2IsjXh7opKvxp4IHkba25m8lAgiUnbJc9tanKFS8rxz4Vhj67TjUid+D4fVt0WSQB/bfF0O7lFbL0KkH+tfPxPm18zD+y+H4asEJRCsUEIsleUsSxVKKDMogzzLlC4PxGcLKO4NRLkiQKS60dU/LAm6L56GXCSHmXihiS+/N1FA2pEpz+pIsZJVgaUdpbj+bCJKsLBTrjcQQSwgKXmU07OYGt5490atXb/Tu0wd93VxQrdyPMJajHLjmqWqv33E9yBu/jHZE0pllGNG6Mxb6Z2ieF01G8Dr0b9IfO3h98b/te7F7xUDULK+WrgzyLFO+MBifIUyhYDDKAXn4r/jC/SiSNb9z0auBGqYCGFSrjkqq2sYDj/s/cSPmPDjlQdnzKDSjYC0b2FoKIH8Uhrv5h/OkUHVQcpl6vkDLxhaWAjkehd0tMOonhcoXVN60bFHTSsANrC/ifEk9eU7PV9hWoPJnIaeSKE85KBIvYOPuMIhqdsX09RcQem0ZWuMONm65VCi9+cKQhWGN+yycs5mK3ya6wkyz7PEGKhkVIsepJBmUQZ5lyhcG4zOEKRQMRjkgqFIFvNMrsfpGmsZFjTz6Om69csSEb9yguvFAqzoszYGYB/egOp3IdZ0vfffAO4LraEKPYYPXdTwV10CfAS2h9/o41qwPVXdKspe4uP0kwuUyBHutwQH/pxDX6IMBLfXw+vgarA9Vd12ylxex/WQ4p3QEw2vNAfj/XQNDhrWAfup5eM4+hGc5nZk8Dj6b9yJIcwZTkZSAVE5hSU1JyVsWUCQjKZUbjackIEE16SBH+I5x6Oo2FQejCs1CaChPOTzPisbZX3YiQBNHvTrt4GohgL6BoabhEkAgICTEvEQmF9ews76IEEfgXoQUQn0DVNC0bunR0Ujg+nKZNOfAqTK9iUjhFIeUpOTcI6FlkoFW3VLlKShLvjxNLVWWDManhuBHDs3fDAbjXeGLce/Qz1ix7giCE7KQ/vo57vkdwE8rr6HWkh34X9cqXPfHIeA6UsVV7NmwFXt9bsHvyH74C7vDVXwCAeLqqKpnAOvGrmjSugmMwo5i68Y/cPjKNZw7fBM6vZoj63gApFbVYFDRGk1cG6N1EyOEHd2KjX8cxpVr53D4pg56Nc/C8QAprKoZoKK1C3oMcYNdwjUc270BW45ex+0rx7DzjzPI7DAOX9TVQ/jOyRju4YXw1GzEhF7D80qt0L3WfawYNAmbgxIhjbuLK3fkqNvXBYm752HF3osI0+2BSR0tVEkvQHnKoZEJwn5ejO33CdpZj3Fx4wrsS+gKz1/dUd+I0xb4fDw9sx0nzx3Fut/24UHNAfiqbQNoRxyB18kbeMIXIvbiFmy+ngJpZBhCohMhkWpB9OQPTJ75B24mSJD0wB83n+nAKHYzpnxfFhm0RuMWbWBbrDw5ZYdvgoaNS8sXJwh9l+KnkmTJYHxi8JRHPTR/MxiM90KBzPgoPHj4GC8SxBBUsuM6fUdUyb/HT4UMr+5dxU1uZGrp0goNqgoRdzcEYntn1CjgNxPRt/0R8toQDVq7wFInFqEhEtR2roGC3qJx2z8Erw0boLWLJXRiQxEiqQ3ngoEhIzoIN0OiITawQaNmTqj6RrzKggIJh0ZiwG13+K5ooXErTHnKQYK4ewG4E5kCbcsGcHW2hJ7miRJ5Qhj8rr+AgVMruNTIeZKB54H+CHohhbFDc7R0MEHWE39cCSfYujaDvXH5bBwpVZ6l5ktZZMlgfDowhYLBYJQZ8bPTWDJ5Myou8cJc53/GCsbnCpMl43ODKRQMBqNsyJ/j6MrtyOo+HcMaGGocGe8EkyXjM4QpFAwGg8FgMN4bdsqDwWAwGAzGe8MUCgaDwWAwGO8NUygYDAaDwWC8N0yhYDAYDAaD8d4whYLBYHyUZL68Bd/bMXm3VjIYjI8adsqDwSgH5IlRuPd3BvgCvspENSnkIANL1LM2Vmvt6dG4H5UEOV8ApcVs5XOFdhXUtq9S8JKqjx4ZEiLv40UmHwKV6W+CQs6DoU0dWBkUNT6RIzn6BRTmVjApzq5GIaTXV2HI5F9wNuQVqk2+iAe/tQW7pYHB+PhhMxQMRjkgeX4Tx7d5YEBTJzg6NcXABdtx4lbe6Fr+6i7O7vHE163rc8+d0WP6Rhy++hjpn9zwOwtR14/ijzl90NjJEfVbDsfi3d4Ijil6XCK9Ng8t7Gqh3cIASDVupSFqPguHT36H5pwCItL5tNQtBuO/DJuhYDDKC0UcNnSzwuS/OmLzS2+MNdG455KJY1/VwIADllgQGIBFDco4ZP8IkUetQluHOQjttQcvDw+Dvsb9DVJuYuP/jkBryAKMbaIyC1Y2MvegX6XRiJh2FUHLmxY/Q6GIxy0vTnnL6IIfRjvj05Uog/Hpw2YoGIzygm8AQwMheBUMYaSjcSuAAEZGFcHjut+KFZXLBZ8uAkNDGPB50DU0KLkTN3SF+8oVb6dM5IPHfaPERirDG4u/XoB9IalsrwWD8S/DFAoGo9x5N2VBnhyBq6eO4ti5G4hKebN7lMbfxxXvYzh+KRgxaqvYnwTi2BAEPEgu1OErDXidw9HDx3E5JAYZ8bewz3MG3Gdsws18ls9zJCmJC4MfJ5sTvg+RlC8gOafOaHEajXI/R7ZUCpmMmQJnMP4tmELBYPzrSPD4wGR07rcEPrHpiPVdhE51WsHjUoK6E1a8hPf3A/HFj6fwKDUdUXtGoaHzWHhFK5/KEbn/G7S10YdQSwRT5y+w7pZyt4IMD3ZOQIvqOtCu2hh9Jo5BOxs9zo8QRrV7YNlfGcqQIQv7A6OaWkBHZAyHPqsRUNaNDmVA4rcIHR3MYGzhgvH7nuQqFIr4S1jYqQ0m/PkM4oxw7BxZHxbNfoa0hxvqGQkhyKeP8WTROPzdAPQesxgbN/2IUZ0aoNnUc1DqHPKnR7B4xk6EShWI912NaZMmYeKcXQiRqd9lMBj/MMo9FAwGozzIoL399YinXYd6T5lG06YV/vcbGtzYiPjC1rQqSqZ5hyjVZyY5VmpPqx9p3OSxtKmbLokaL6LQbCLx5clkI3Kk+YHcDyXpx2mkuZDqzQsgjQtJghZSY5GQ6s69QRKNG1EC7RnSnGb4pal+SUL/R64VBGQx5hSpXZTIKX7PF9RyynlKkGucysLrzdRNm09VRp2gLI1TUWT4z6a6WkJquvQBqVOXSidHW5Co4Q8UrIm8JGA+OQmNqe+OWC42GjJ2U18dHunW7EMrrsSr3eUx9IebAWlVH09nxSpfnL99NEBfi+xnXs2XbgaD8W/AZigYjHKGV6Eu+n/nAQ+Pwv/Ow4jGRgUXRBSxOLhqC8JNzCDx2YZNG9dj3brdCEzgIfv+HQRlAdqNJmDt/o1wb6jZraBdEzbVgMi7YUhXu0BUfzTGtNNBhNceXNMshyiivXBE/AWmtFRvmRTVG4+pbsaIPfIHDsdq5gvkUdj7J2H0vI4w+QCtgY6VJapw4fJVR0w5ZA9w7WYcULmKyl2JqJ4z6umlISjgHrLVThoEqNb7W0xvZaqeSuWboLZ9VSDhFV6xWQgG46ODKRQMRrkjgp6xKUxNC/9rAgPtQlUuOxgBwZkQmNvCwaIaqle3gpW1PXp57MURLw900uX8GDqhR//6yDy/FvPGf4nhXy3AiWgFFGIxJDnrCHwrDBnjBpPnR7H7glLNkOH+7pMwGDYcNQVqL+Cbou+kL2CddhabdoZDudtAErgNl6zGYUi1f6gp4FvAykIblBiP+Jy4Z2dBLOOjavVqb2zwFIoKnu/Q0uISo5BDzs6mMRgfHUyhYDD+TUgMsYSg4FVGw25ucOvZE7169UbvPn3Q180F1ZTKQEYw1vVvgv47eOj7v+3Yu3sFBtZ8s+qa9ByLgZbxOLnnFBLF17HzWm2M6l1J81SNbmt3jGpECNy2Gf7iZJzZ9hAtx7eFnuZ5uaCQcGnK0RYKwSkUw+ZNQO2IA/j9+BNkypNxa9MuBFqNxvzR9sjRfRgMxqcHUygYjPJEda1LCcPnws+1bFHTSoDs4Is4n7MMUQAZwta4Y9Y5G0z9bSJczUo4pKnbFmNH1EXquZ3Ytm0HItuMQavCx1e16mDU+M7Qj9yP39evx97M3vi6TokHP4tGQcWmMv3sNPT8/rr6IivOX0EUSIl8ApNBo1DT3xOTx83FAYzH6avr0DtnDaQE1LfmvPllUhSjwDAYjH8MplAwGOWFIh6xCTJQ1ivEpxbVwUkR/yqF6xQTEB+nOd6oVRdDhrWAfup5eM4+hGc5ewPkcfDZvBdBEhki7kVAKtSHQQVNdU2PRnQC16nKpJCoXTRoof7IkWiRfQ7ffZ+AXl85FDHi56Pa4IkYUO01vOZshNGwgTAv0ArIEb5jHLq6TcXBqOKPYMri4/CaS2K2RFrgOKji1WX8+P0haNW0Uy1fKJISkcJpASlJyaolFuVxUb9TftBx+Qpzf96C7ds2YdWcQWhgXLApUqSlIYNTRtJTUvOpD4Tk5DROfqlITMj5qgACASEh5iUyFckIO+uLCLa/gsH4d9BszmQwGO9B6uUVNLx7Q6qqIyKRqAKZO3enL3/1zz15kH13G03p14KsDbjnQhGZOHSgwd8foxfK4wvZkXRwsgtVFgrJtEF3GjJsIPXsOog8TjwjGckpxmsk1dTRp3rDl9HmdQtpwoixNLSFMQkqNqaRP/xO3k/yToyQPI529atMNcaezneSozAS+mt6LdJxmk85B0fyyKILU+2pAk9IjvMCNG75SaDz//uCOtXhvs8D8fXtqdPQkTRy5Nc0fEAncjITEU/LnmZezaRnXrOpR30z0haJSNvUibpP3kkPsrPp7uqOZKprSvbOjcjJ3posq9egWk4tqPfENfRXrJzSfZfTABcL0hUJSVTJkXou86MMeRJd+LErORiLSCjSJYsmg+iX65x0Zffpp1Z6xOPrkIGxDXX1vEKJb3NahcFglBvs6m0G4yMhIzoIN0OiITawQaNmTqiaz4xFxvNA+Ae9gNTYAc1bOsAk6wn8r4SDbF3RzN64wEyE7MU9PBLVQR3T4iYg5Yha1R0TBBtwdoZtEbMYCiQcGokBt93hu6KFxq28SMH1FeOwPtMNna0BQQUdCGRpiH3oiz0bDyGyyRrcPj0xbyNpGZAnhMHv+gsYOLWCS41y3Q3CYDDeAqZQMBj/NeSR+HXwIphu2IHhZm8qHeJnp7Fk8mZUXOKFuc7la+dTdut7uHS9h2+jjmCEocZRQ7rvVDQemoKfnuxEnyKvLmcwGB8zxQ1hGAzGZ4hCIcGLEz/hku04DChCmYD8Oc7sv4V6S3eVuzKhJOVOIB7K+UWf5pDIYNSmC5oyW+UMxicJUygYjP8EckSt74bK2rqoOUuG0d+2RNH2y6zQ77uFGNag0PRBOWHQoDFqSc7Ac+YOBCeqN1bK05/h2s4F+MarBn5aO7TQJlEGg/GpUOySB4/3bgaOGAwGg8FglM7ntuOA7aFgMBgMBoPx3rDJRQaDwWAwGO8NUygYDAaDwWC8N0yhYDAYDAaD8d4whYLBYDAYDMZ7AvwfJ1mm7eNhEM4AAAAASUVORK5CYII=;" parent="1" vertex="1">
                    <mxGeometry x="10" y="630" width="302.17" height="330" as="geometry"/>
                </mxCell>
                <mxCell id="IzsZYcXj3AiTTVjj9_hH-16" value="&quot;A Web-based system for annotation of dance multimodal recordings by dance practitioners and experts&quot; - Raheb et al, 2018&lt;br&gt;&lt;br&gt;&lt;br&gt;Movement qualities are a subset from Camurri et al" style="text;html=1;strokeColor=none;fillColor=none;align=center;verticalAlign=middle;whiteSpace=wrap;rounded=0;" parent="1" vertex="1">
                    <mxGeometry x="10" y="960" width="290" height="130" as="geometry"/>
                </mxCell>
                <mxCell id="bE2ecG__ZAsPNsDTRA_h-1" value="Dance Movement Principles also proposed by Raheb et al. -- extends Camurri et al's movement qualities with an eye on teaching applications." style="text;html=1;strokeColor=none;fillColor=none;align=center;verticalAlign=middle;whiteSpace=wrap;rounded=0;" parent="1" vertex="1">
                    <mxGeometry x="330" y="630" width="290" height="60" as="geometry"/>
                </mxCell>
                <mxCell id="bE2ecG__ZAsPNsDTRA_h-2" value="&lt;b&gt;Principles&lt;/b&gt;&lt;br&gt;1. Symmetry (left and right sides of body), either simultaneously or sequentially.&lt;br&gt;2. Directionality - awareness of body orientation in space. Perhaps directed towards audience, camera, studio, etc.&lt;br&gt;3. Balance - is CoM within support polygon?&amp;nbsp;&lt;br&gt;4. Alignment - directionality of body parts compared to each other. Also horizontal, vertical, saggital (front-back) planes. Also, creating &quot;virtual lines&quot; with the different parts of the body.&amp;nbsp; &amp;nbsp; &amp;nbsp; &amp;nbsp; &amp;nbsp; &amp;nbsp;&lt;br&gt;5. Weight-bearing vs gesturing - distinguishing those movements which transfer bodily support to those that are simply gestures / expression.&lt;br&gt;6. Gross vs fine motoric / isolation / articulation. Unclear...&lt;br&gt;7. Coordination. The ability to synchronize or not different parts of the body, to move them together or independently.&lt;br&gt;8. Motion through space. Moving the body in certain paths while dancing, as opposed to dancing in space. Basically, root motion?&lt;br&gt;9. Whythmn anbd phrasing - ability to move in predefined or improvised rhythms, and about how dancers movement is related to any accompanying sound and its tempo / time signauture, rhythmic patterns.&lt;br&gt;10. Stillness. Ability to remain still &amp;amp; balanced, whether as part of a choreography / dance interpretation, or as an exercise." style="text;html=1;strokeColor=none;fillColor=none;align=left;verticalAlign=top;whiteSpace=wrap;rounded=0;" parent="1" vertex="1">
                    <mxGeometry x="320" y="700" width="350" height="350" as="geometry"/>
                </mxCell>
                <mxCell id="2" value="Movement qualities - rhaeb et al focused on a specific shortlist which consists mainly of Laban concepts (Fluid,Rigid, Fragmented, Sustained, Sudden, Heavy, Light, Direct, Indirect)" style="text;whiteSpace=wrap;html=1;" vertex="1" parent="1">
                    <mxGeometry x="312.17" y="1050" width="377.83" height="30" as="geometry"/>
                </mxCell>
            </root>
        </mxGraphModel>
    </diagram>
</mxfile>